G04 #@! TF.GenerationSoftware,KiCad,Pcbnew,9.0.2*
G04 #@! TF.CreationDate,2025-07-08T19:22:52+03:00*
G04 #@! TF.ProjectId,PCB,5043422e-6b69-4636-9164-5f7063625858,rev?*
G04 #@! TF.SameCoordinates,Original*
G04 #@! TF.FileFunction,Paste,Top*
G04 #@! TF.FilePolarity,Positive*
%FSLAX46Y46*%
G04 Gerber Fmt 4.6, Leading zero omitted, Abs format (unit mm)*
G04 Created by KiCad (PCBNEW 9.0.2) date 2025-07-08 19:22:52*
%MOMM*%
%LPD*%
G01*
G04 APERTURE LIST*
G04 Aperture macros list*
%AMRoundRect*
0 Rectangle with rounded corners*
0 $1 Rounding radius*
0 $2 $3 $4 $5 $6 $7 $8 $9 X,Y pos of 4 corners*
0 Add a 4 corners polygon primitive as box body*
4,1,4,$2,$3,$4,$5,$6,$7,$8,$9,$2,$3,0*
0 Add four circle primitives for the rounded corners*
1,1,$1+$1,$2,$3*
1,1,$1+$1,$4,$5*
1,1,$1+$1,$6,$7*
1,1,$1+$1,$8,$9*
0 Add four rect primitives between the rounded corners*
20,1,$1+$1,$2,$3,$4,$5,0*
20,1,$1+$1,$4,$5,$6,$7,0*
20,1,$1+$1,$6,$7,$8,$9,0*
20,1,$1+$1,$8,$9,$2,$3,0*%
G04 Aperture macros list end*
%ADD10RoundRect,0.200000X-0.200000X-0.275000X0.200000X-0.275000X0.200000X0.275000X-0.200000X0.275000X0*%
%ADD11RoundRect,0.079500X0.079500X0.100500X-0.079500X0.100500X-0.079500X-0.100500X0.079500X-0.100500X0*%
%ADD12RoundRect,0.237500X0.287500X0.237500X-0.287500X0.237500X-0.287500X-0.237500X0.287500X-0.237500X0*%
%ADD13RoundRect,0.225000X-0.225000X-0.250000X0.225000X-0.250000X0.225000X0.250000X-0.225000X0.250000X0*%
%ADD14RoundRect,0.079500X0.100500X-0.079500X0.100500X0.079500X-0.100500X0.079500X-0.100500X-0.079500X0*%
%ADD15R,1.803400X0.533400*%
%ADD16RoundRect,0.250000X-0.325000X-0.650000X0.325000X-0.650000X0.325000X0.650000X-0.325000X0.650000X0*%
G04 APERTURE END LIST*
D10*
X122175000Y-88300000D03*
X123825000Y-88300000D03*
D11*
X121095000Y-84750000D03*
X120405000Y-84750000D03*
D12*
X134135000Y-102580000D03*
X132385000Y-102580000D03*
D13*
X117725000Y-95400000D03*
X119275000Y-95400000D03*
D14*
X131090000Y-102925000D03*
X131090000Y-102235000D03*
D15*
X131575200Y-83815000D03*
X131575200Y-82545000D03*
X131575200Y-81275000D03*
X131575200Y-80005000D03*
X131575200Y-78735000D03*
X131575200Y-77465000D03*
X131575200Y-76195000D03*
X131575200Y-74925000D03*
X131575200Y-73655000D03*
X131575200Y-72385000D03*
X122024800Y-72385000D03*
X122024800Y-73655000D03*
X122024800Y-74925000D03*
X122024800Y-76195000D03*
X122024800Y-77465000D03*
X122024800Y-78735000D03*
X122024800Y-80005000D03*
X122024800Y-81275000D03*
X122024800Y-82545000D03*
X122024800Y-83815000D03*
D11*
X122595000Y-67150000D03*
X121905000Y-67150000D03*
D16*
X117012000Y-97686000D03*
X119962000Y-97686000D03*
D15*
X131575200Y-65815000D03*
X131575200Y-64545000D03*
X131575200Y-63275000D03*
X131575200Y-62005000D03*
X131575200Y-60735000D03*
X131575200Y-59465000D03*
X131575200Y-58195000D03*
X131575200Y-56925000D03*
X131575200Y-55655000D03*
X131575200Y-54385000D03*
X122024800Y-54385000D03*
X122024800Y-55655000D03*
X122024800Y-56925000D03*
X122024800Y-58195000D03*
X122024800Y-59465000D03*
X122024800Y-60735000D03*
X122024800Y-62005000D03*
X122024800Y-63275000D03*
X122024800Y-64545000D03*
X122024800Y-65815000D03*
M02*
