%TF.GenerationSoftware,KiCad,Pcbnew,9.0.2*%
%TF.CreationDate,2025-07-08T19:22:45+03:00*%
%TF.ProjectId,PCB,5043422e-6b69-4636-9164-5f7063625858,rev?*%
%TF.SameCoordinates,Original*%
%TF.FileFunction,Drillmap*%
%TF.FilePolarity,Positive*%
%FSLAX45Y45*%
G04 Gerber Fmt 4.5, Leading zero omitted, Abs format (unit mm)*
G04 Created by KiCad (PCBNEW 9.0.2) date 2025-07-08 19:22:45*
%MOMM*%
%LPD*%
G01*
G04 APERTURE LIST*
%ADD10C,0.038100*%
%ADD11C,0.200000*%
%ADD12C,0.100000*%
G04 APERTURE END LIST*
D10*
X11400000Y-10600000D02*
X11400000Y-5000000D01*
X16400000Y-5000000D02*
X16400000Y-10600000D01*
X16400000Y-10600000D02*
X11400000Y-10600000D01*
X11400000Y-5000000D02*
X16400000Y-5000000D01*
D11*
D12*
X12021250Y-9261250D02*
X12051250Y-9291250D01*
X12051250Y-9261250D02*
X12021250Y-9291250D01*
X12125000Y-8545000D02*
X12155000Y-8575000D01*
X12155000Y-8545000D02*
X12125000Y-8575000D01*
X12202500Y-8675000D02*
X12232500Y-8705000D01*
X12232500Y-8675000D02*
X12202500Y-8705000D01*
X12405000Y-5575000D02*
X12435000Y-5605000D01*
X12435000Y-5575000D02*
X12405000Y-5605000D01*
X12852300Y-6503800D02*
X12882300Y-6533800D01*
X12882300Y-6503800D02*
X12852300Y-6533800D01*
X12905000Y-6315000D02*
X12935000Y-6345000D01*
X12935000Y-6315000D02*
X12905000Y-6345000D01*
X13005000Y-9275000D02*
X13035000Y-9305000D01*
X13035000Y-9275000D02*
X13005000Y-9305000D01*
X13120000Y-9270000D02*
X13150000Y-9300000D01*
X13150000Y-9270000D02*
X13120000Y-9300000D01*
X13275000Y-6915000D02*
X13305000Y-6945000D01*
X13305000Y-6915000D02*
X13275000Y-6945000D01*
X13310000Y-8290000D02*
X13340000Y-8320000D01*
X13340000Y-8290000D02*
X13310000Y-8320000D01*
X13355000Y-6875000D02*
X13385000Y-6905000D01*
X13385000Y-6875000D02*
X13355000Y-6905000D01*
X13367700Y-8235000D02*
X13397700Y-8265000D01*
X13397700Y-8235000D02*
X13367700Y-8265000D01*
X13407700Y-7185000D02*
X13437700Y-7215000D01*
X13437700Y-7185000D02*
X13407700Y-7215000D01*
X13407700Y-8115000D02*
X13437700Y-8145000D01*
X13437700Y-8115000D02*
X13407700Y-8145000D01*
X13435000Y-5275000D02*
X13465000Y-5305000D01*
X13465000Y-5275000D02*
X13435000Y-5305000D01*
X13435000Y-6565000D02*
X13465000Y-6595000D01*
X13465000Y-6565000D02*
X13435000Y-6595000D01*
X13447700Y-7425000D02*
X13477700Y-7455000D01*
X13477700Y-7425000D02*
X13447700Y-7455000D01*
X13447700Y-7508065D02*
X13477700Y-7538065D01*
X13477700Y-7508065D02*
X13447700Y-7538065D01*
X13447700Y-7985000D02*
X13477700Y-8015000D01*
X13477700Y-7985000D02*
X13447700Y-8015000D01*
X13522300Y-7740000D02*
X13552300Y-7770000D01*
X13552300Y-7740000D02*
X13522300Y-7770000D01*
X13522300Y-7955000D02*
X13552300Y-7985000D01*
X13552300Y-7955000D02*
X13522300Y-7985000D01*
X13542500Y-6167500D02*
X13572500Y-6197500D01*
X13572500Y-6167500D02*
X13542500Y-6197500D01*
X13555000Y-8205000D02*
X13585000Y-8235000D01*
X13585000Y-8205000D02*
X13555000Y-8235000D01*
X13555100Y-7632265D02*
X13585100Y-7662265D01*
X13585100Y-7632265D02*
X13555100Y-7662265D01*
X13665000Y-6595000D02*
X13695000Y-6625000D01*
X13695000Y-6595000D02*
X13665000Y-6625000D01*
X13935000Y-7355000D02*
X13965000Y-7385000D01*
X13965000Y-7355000D02*
X13935000Y-7385000D01*
X13987800Y-8732200D02*
X14017800Y-8762200D01*
X14017800Y-8732200D02*
X13987800Y-8762200D01*
X14040500Y-6750000D02*
X14070500Y-6780000D01*
X14070500Y-6750000D02*
X14040500Y-6780000D01*
X14054814Y-6567551D02*
X14084814Y-6597551D01*
X14084814Y-6567551D02*
X14054814Y-6597551D01*
X14056601Y-6494873D02*
X14086601Y-6524873D01*
X14086601Y-6494873D02*
X14056601Y-6524873D01*
X14060000Y-6650000D02*
X14090000Y-6680000D01*
X14090000Y-6650000D02*
X14060000Y-6680000D01*
X14920000Y-6494873D02*
X14950000Y-6524873D01*
X14950000Y-6494873D02*
X14920000Y-6524873D01*
X14935000Y-6570000D02*
X14965000Y-6600000D01*
X14965000Y-6570000D02*
X14935000Y-6600000D01*
X14975000Y-6645000D02*
X15005000Y-6675000D01*
X15005000Y-6645000D02*
X14975000Y-6675000D01*
X15094600Y-5549865D02*
X15124600Y-5579865D01*
X15124600Y-5549865D02*
X15094600Y-5579865D01*
X15099147Y-5625853D02*
X15129147Y-5655853D01*
X15129147Y-5625853D02*
X15099147Y-5655853D01*
X15335000Y-6265000D02*
X15365000Y-6295000D01*
X15365000Y-6265000D02*
X15335000Y-6295000D01*
X15335000Y-7585000D02*
X15365000Y-7615000D01*
X15365000Y-7585000D02*
X15335000Y-7615000D01*
X15795000Y-5585000D02*
X15825000Y-5615000D01*
X15825000Y-5585000D02*
X15795000Y-5615000D01*
X15845000Y-5735000D02*
X15875000Y-5765000D01*
X15875000Y-5735000D02*
X15845000Y-5765000D01*
X11726000Y-5277000D02*
G75*
G02*
X11626000Y-5277000I-50000J0D01*
G01*
X11626000Y-5277000D02*
G75*
G02*
X11726000Y-5277000I50000J0D01*
G01*
X11726000Y-5531000D02*
G75*
G02*
X11626000Y-5531000I-50000J0D01*
G01*
X11626000Y-5531000D02*
G75*
G02*
X11726000Y-5531000I50000J0D01*
G01*
X11726000Y-5785000D02*
G75*
G02*
X11626000Y-5785000I-50000J0D01*
G01*
X11626000Y-5785000D02*
G75*
G02*
X11726000Y-5785000I50000J0D01*
G01*
X11726000Y-6039000D02*
G75*
G02*
X11626000Y-6039000I-50000J0D01*
G01*
X11626000Y-6039000D02*
G75*
G02*
X11726000Y-6039000I50000J0D01*
G01*
X11726000Y-6293000D02*
G75*
G02*
X11626000Y-6293000I-50000J0D01*
G01*
X11626000Y-6293000D02*
G75*
G02*
X11726000Y-6293000I50000J0D01*
G01*
X11726000Y-6547000D02*
G75*
G02*
X11626000Y-6547000I-50000J0D01*
G01*
X11626000Y-6547000D02*
G75*
G02*
X11726000Y-6547000I50000J0D01*
G01*
X11726000Y-6801000D02*
G75*
G02*
X11626000Y-6801000I-50000J0D01*
G01*
X11626000Y-6801000D02*
G75*
G02*
X11726000Y-6801000I50000J0D01*
G01*
X11726000Y-7055000D02*
G75*
G02*
X11626000Y-7055000I-50000J0D01*
G01*
X11626000Y-7055000D02*
G75*
G02*
X11726000Y-7055000I50000J0D01*
G01*
X11726000Y-7309000D02*
G75*
G02*
X11626000Y-7309000I-50000J0D01*
G01*
X11626000Y-7309000D02*
G75*
G02*
X11726000Y-7309000I50000J0D01*
G01*
X11726000Y-7563000D02*
G75*
G02*
X11626000Y-7563000I-50000J0D01*
G01*
X11626000Y-7563000D02*
G75*
G02*
X11726000Y-7563000I50000J0D01*
G01*
X11726000Y-7817000D02*
G75*
G02*
X11626000Y-7817000I-50000J0D01*
G01*
X11626000Y-7817000D02*
G75*
G02*
X11726000Y-7817000I50000J0D01*
G01*
X11726000Y-8071000D02*
G75*
G02*
X11626000Y-8071000I-50000J0D01*
G01*
X11626000Y-8071000D02*
G75*
G02*
X11726000Y-8071000I50000J0D01*
G01*
X11726000Y-8325000D02*
G75*
G02*
X11626000Y-8325000I-50000J0D01*
G01*
X11626000Y-8325000D02*
G75*
G02*
X11726000Y-8325000I50000J0D01*
G01*
X11726000Y-8579000D02*
G75*
G02*
X11626000Y-8579000I-50000J0D01*
G01*
X11626000Y-8579000D02*
G75*
G02*
X11726000Y-8579000I50000J0D01*
G01*
X11726000Y-8833000D02*
G75*
G02*
X11626000Y-8833000I-50000J0D01*
G01*
X11626000Y-8833000D02*
G75*
G02*
X11726000Y-8833000I50000J0D01*
G01*
X11726000Y-9087000D02*
G75*
G02*
X11626000Y-9087000I-50000J0D01*
G01*
X11626000Y-9087000D02*
G75*
G02*
X11726000Y-9087000I50000J0D01*
G01*
X11746800Y-10225800D02*
G75*
G02*
X11646800Y-10225800I-50000J0D01*
G01*
X11646800Y-10225800D02*
G75*
G02*
X11746800Y-10225800I50000J0D01*
G01*
X12000800Y-10225800D02*
G75*
G02*
X11900800Y-10225800I-50000J0D01*
G01*
X11900800Y-10225800D02*
G75*
G02*
X12000800Y-10225800I50000J0D01*
G01*
X12430000Y-9550000D02*
G75*
G02*
X12330000Y-9550000I-50000J0D01*
G01*
X12330000Y-9550000D02*
G75*
G02*
X12430000Y-9550000I50000J0D01*
G01*
X13190000Y-9550000D02*
G75*
G02*
X13090000Y-9550000I-50000J0D01*
G01*
X13090000Y-9550000D02*
G75*
G02*
X13190000Y-9550000I50000J0D01*
G01*
X13820000Y-5460000D02*
G75*
G02*
X13720000Y-5460000I-50000J0D01*
G01*
X13720000Y-5460000D02*
G75*
G02*
X13820000Y-5460000I50000J0D01*
G01*
X13820000Y-5714000D02*
G75*
G02*
X13720000Y-5714000I-50000J0D01*
G01*
X13720000Y-5714000D02*
G75*
G02*
X13820000Y-5714000I50000J0D01*
G01*
X13820000Y-5968000D02*
G75*
G02*
X13720000Y-5968000I-50000J0D01*
G01*
X13720000Y-5968000D02*
G75*
G02*
X13820000Y-5968000I50000J0D01*
G01*
X13820000Y-6222000D02*
G75*
G02*
X13720000Y-6222000I-50000J0D01*
G01*
X13720000Y-6222000D02*
G75*
G02*
X13820000Y-6222000I50000J0D01*
G01*
X13820000Y-6476000D02*
G75*
G02*
X13720000Y-6476000I-50000J0D01*
G01*
X13720000Y-6476000D02*
G75*
G02*
X13820000Y-6476000I50000J0D01*
G01*
X13820000Y-6730000D02*
G75*
G02*
X13720000Y-6730000I-50000J0D01*
G01*
X13720000Y-6730000D02*
G75*
G02*
X13820000Y-6730000I50000J0D01*
G01*
X13820000Y-6984000D02*
G75*
G02*
X13720000Y-6984000I-50000J0D01*
G01*
X13720000Y-6984000D02*
G75*
G02*
X13820000Y-6984000I50000J0D01*
G01*
X13820000Y-7238000D02*
G75*
G02*
X13720000Y-7238000I-50000J0D01*
G01*
X13720000Y-7238000D02*
G75*
G02*
X13820000Y-7238000I50000J0D01*
G01*
X13820000Y-7492000D02*
G75*
G02*
X13720000Y-7492000I-50000J0D01*
G01*
X13720000Y-7492000D02*
G75*
G02*
X13820000Y-7492000I50000J0D01*
G01*
X13820000Y-7746000D02*
G75*
G02*
X13720000Y-7746000I-50000J0D01*
G01*
X13720000Y-7746000D02*
G75*
G02*
X13820000Y-7746000I50000J0D01*
G01*
X13820000Y-8000000D02*
G75*
G02*
X13720000Y-8000000I-50000J0D01*
G01*
X13720000Y-8000000D02*
G75*
G02*
X13820000Y-8000000I50000J0D01*
G01*
X13820000Y-8254000D02*
G75*
G02*
X13720000Y-8254000I-50000J0D01*
G01*
X13720000Y-8254000D02*
G75*
G02*
X13820000Y-8254000I50000J0D01*
G01*
X13820000Y-8508000D02*
G75*
G02*
X13720000Y-8508000I-50000J0D01*
G01*
X13720000Y-8508000D02*
G75*
G02*
X13820000Y-8508000I50000J0D01*
G01*
X13820000Y-8762000D02*
G75*
G02*
X13720000Y-8762000I-50000J0D01*
G01*
X13720000Y-8762000D02*
G75*
G02*
X13820000Y-8762000I50000J0D01*
G01*
X13820000Y-9016000D02*
G75*
G02*
X13720000Y-9016000I-50000J0D01*
G01*
X13720000Y-9016000D02*
G75*
G02*
X13820000Y-9016000I50000J0D01*
G01*
X13820000Y-9270000D02*
G75*
G02*
X13720000Y-9270000I-50000J0D01*
G01*
X13720000Y-9270000D02*
G75*
G02*
X13820000Y-9270000I50000J0D01*
G01*
X13820000Y-9524000D02*
G75*
G02*
X13720000Y-9524000I-50000J0D01*
G01*
X13720000Y-9524000D02*
G75*
G02*
X13820000Y-9524000I50000J0D01*
G01*
X13820000Y-9778000D02*
G75*
G02*
X13720000Y-9778000I-50000J0D01*
G01*
X13720000Y-9778000D02*
G75*
G02*
X13820000Y-9778000I50000J0D01*
G01*
X13820000Y-10032000D02*
G75*
G02*
X13720000Y-10032000I-50000J0D01*
G01*
X13720000Y-10032000D02*
G75*
G02*
X13820000Y-10032000I50000J0D01*
G01*
X13820000Y-10286000D02*
G75*
G02*
X13720000Y-10286000I-50000J0D01*
G01*
X13720000Y-10286000D02*
G75*
G02*
X13820000Y-10286000I50000J0D01*
G01*
X15598000Y-5460000D02*
G75*
G02*
X15498000Y-5460000I-50000J0D01*
G01*
X15498000Y-5460000D02*
G75*
G02*
X15598000Y-5460000I50000J0D01*
G01*
X15598000Y-5714000D02*
G75*
G02*
X15498000Y-5714000I-50000J0D01*
G01*
X15498000Y-5714000D02*
G75*
G02*
X15598000Y-5714000I50000J0D01*
G01*
X15598000Y-5968000D02*
G75*
G02*
X15498000Y-5968000I-50000J0D01*
G01*
X15498000Y-5968000D02*
G75*
G02*
X15598000Y-5968000I50000J0D01*
G01*
X15598000Y-6222000D02*
G75*
G02*
X15498000Y-6222000I-50000J0D01*
G01*
X15498000Y-6222000D02*
G75*
G02*
X15598000Y-6222000I50000J0D01*
G01*
X15598000Y-6476000D02*
G75*
G02*
X15498000Y-6476000I-50000J0D01*
G01*
X15498000Y-6476000D02*
G75*
G02*
X15598000Y-6476000I50000J0D01*
G01*
X15598000Y-6730000D02*
G75*
G02*
X15498000Y-6730000I-50000J0D01*
G01*
X15498000Y-6730000D02*
G75*
G02*
X15598000Y-6730000I50000J0D01*
G01*
X15598000Y-6984000D02*
G75*
G02*
X15498000Y-6984000I-50000J0D01*
G01*
X15498000Y-6984000D02*
G75*
G02*
X15598000Y-6984000I50000J0D01*
G01*
X15598000Y-7238000D02*
G75*
G02*
X15498000Y-7238000I-50000J0D01*
G01*
X15498000Y-7238000D02*
G75*
G02*
X15598000Y-7238000I50000J0D01*
G01*
X15598000Y-7492000D02*
G75*
G02*
X15498000Y-7492000I-50000J0D01*
G01*
X15498000Y-7492000D02*
G75*
G02*
X15598000Y-7492000I50000J0D01*
G01*
X15598000Y-7746000D02*
G75*
G02*
X15498000Y-7746000I-50000J0D01*
G01*
X15498000Y-7746000D02*
G75*
G02*
X15598000Y-7746000I50000J0D01*
G01*
X15598000Y-8000000D02*
G75*
G02*
X15498000Y-8000000I-50000J0D01*
G01*
X15498000Y-8000000D02*
G75*
G02*
X15598000Y-8000000I50000J0D01*
G01*
X15598000Y-8254000D02*
G75*
G02*
X15498000Y-8254000I-50000J0D01*
G01*
X15498000Y-8254000D02*
G75*
G02*
X15598000Y-8254000I50000J0D01*
G01*
X15598000Y-8508000D02*
G75*
G02*
X15498000Y-8508000I-50000J0D01*
G01*
X15498000Y-8508000D02*
G75*
G02*
X15598000Y-8508000I50000J0D01*
G01*
X15598000Y-8762000D02*
G75*
G02*
X15498000Y-8762000I-50000J0D01*
G01*
X15498000Y-8762000D02*
G75*
G02*
X15598000Y-8762000I50000J0D01*
G01*
X15598000Y-9016000D02*
G75*
G02*
X15498000Y-9016000I-50000J0D01*
G01*
X15498000Y-9016000D02*
G75*
G02*
X15598000Y-9016000I50000J0D01*
G01*
X15598000Y-9270000D02*
G75*
G02*
X15498000Y-9270000I-50000J0D01*
G01*
X15498000Y-9270000D02*
G75*
G02*
X15598000Y-9270000I50000J0D01*
G01*
X15598000Y-9524000D02*
G75*
G02*
X15498000Y-9524000I-50000J0D01*
G01*
X15498000Y-9524000D02*
G75*
G02*
X15598000Y-9524000I50000J0D01*
G01*
X15598000Y-9778000D02*
G75*
G02*
X15498000Y-9778000I-50000J0D01*
G01*
X15498000Y-9778000D02*
G75*
G02*
X15598000Y-9778000I50000J0D01*
G01*
X15598000Y-10032000D02*
G75*
G02*
X15498000Y-10032000I-50000J0D01*
G01*
X15498000Y-10032000D02*
G75*
G02*
X15598000Y-10032000I50000J0D01*
G01*
X15598000Y-10286000D02*
G75*
G02*
X15498000Y-10286000I-50000J0D01*
G01*
X15498000Y-10286000D02*
G75*
G02*
X15598000Y-10286000I50000J0D01*
G01*
X16170000Y-5473500D02*
G75*
G02*
X16070000Y-5473500I-50000J0D01*
G01*
X16070000Y-5473500D02*
G75*
G02*
X16170000Y-5473500I50000J0D01*
G01*
X16170000Y-5727500D02*
G75*
G02*
X16070000Y-5727500I-50000J0D01*
G01*
X16070000Y-5727500D02*
G75*
G02*
X16170000Y-5727500I50000J0D01*
G01*
X16170000Y-6128000D02*
G75*
G02*
X16070000Y-6128000I-50000J0D01*
G01*
X16070000Y-6128000D02*
G75*
G02*
X16170000Y-6128000I50000J0D01*
G01*
X16170000Y-6382000D02*
G75*
G02*
X16070000Y-6382000I-50000J0D01*
G01*
X16070000Y-6382000D02*
G75*
G02*
X16170000Y-6382000I50000J0D01*
G01*
X16170000Y-6636000D02*
G75*
G02*
X16070000Y-6636000I-50000J0D01*
G01*
X16070000Y-6636000D02*
G75*
G02*
X16170000Y-6636000I50000J0D01*
G01*
X16170000Y-6890000D02*
G75*
G02*
X16070000Y-6890000I-50000J0D01*
G01*
X16070000Y-6890000D02*
G75*
G02*
X16170000Y-6890000I50000J0D01*
G01*
X16170000Y-7144000D02*
G75*
G02*
X16070000Y-7144000I-50000J0D01*
G01*
X16070000Y-7144000D02*
G75*
G02*
X16170000Y-7144000I50000J0D01*
G01*
X16170000Y-7398000D02*
G75*
G02*
X16070000Y-7398000I-50000J0D01*
G01*
X16070000Y-7398000D02*
G75*
G02*
X16170000Y-7398000I50000J0D01*
G01*
X16170000Y-7652000D02*
G75*
G02*
X16070000Y-7652000I-50000J0D01*
G01*
X16070000Y-7652000D02*
G75*
G02*
X16170000Y-7652000I50000J0D01*
G01*
D11*
X11658872Y-10913389D02*
X11658872Y-10713389D01*
X11658872Y-10713389D02*
X11706491Y-10713389D01*
X11706491Y-10713389D02*
X11735062Y-10722913D01*
X11735062Y-10722913D02*
X11754110Y-10741960D01*
X11754110Y-10741960D02*
X11763634Y-10761008D01*
X11763634Y-10761008D02*
X11773157Y-10799103D01*
X11773157Y-10799103D02*
X11773157Y-10827675D01*
X11773157Y-10827675D02*
X11763634Y-10865770D01*
X11763634Y-10865770D02*
X11754110Y-10884817D01*
X11754110Y-10884817D02*
X11735062Y-10903865D01*
X11735062Y-10903865D02*
X11706491Y-10913389D01*
X11706491Y-10913389D02*
X11658872Y-10913389D01*
X11858872Y-10913389D02*
X11858872Y-10780055D01*
X11858872Y-10818151D02*
X11868396Y-10799103D01*
X11868396Y-10799103D02*
X11877919Y-10789579D01*
X11877919Y-10789579D02*
X11896967Y-10780055D01*
X11896967Y-10780055D02*
X11916015Y-10780055D01*
X11982681Y-10913389D02*
X11982681Y-10780055D01*
X11982681Y-10713389D02*
X11973157Y-10722913D01*
X11973157Y-10722913D02*
X11982681Y-10732436D01*
X11982681Y-10732436D02*
X11992205Y-10722913D01*
X11992205Y-10722913D02*
X11982681Y-10713389D01*
X11982681Y-10713389D02*
X11982681Y-10732436D01*
X12106491Y-10913389D02*
X12087443Y-10903865D01*
X12087443Y-10903865D02*
X12077919Y-10884817D01*
X12077919Y-10884817D02*
X12077919Y-10713389D01*
X12211253Y-10913389D02*
X12192205Y-10903865D01*
X12192205Y-10903865D02*
X12182681Y-10884817D01*
X12182681Y-10884817D02*
X12182681Y-10713389D01*
X12439824Y-10913389D02*
X12439824Y-10713389D01*
X12439824Y-10713389D02*
X12506491Y-10856246D01*
X12506491Y-10856246D02*
X12573157Y-10713389D01*
X12573157Y-10713389D02*
X12573157Y-10913389D01*
X12754110Y-10913389D02*
X12754110Y-10808627D01*
X12754110Y-10808627D02*
X12744586Y-10789579D01*
X12744586Y-10789579D02*
X12725538Y-10780055D01*
X12725538Y-10780055D02*
X12687443Y-10780055D01*
X12687443Y-10780055D02*
X12668396Y-10789579D01*
X12754110Y-10903865D02*
X12735062Y-10913389D01*
X12735062Y-10913389D02*
X12687443Y-10913389D01*
X12687443Y-10913389D02*
X12668396Y-10903865D01*
X12668396Y-10903865D02*
X12658872Y-10884817D01*
X12658872Y-10884817D02*
X12658872Y-10865770D01*
X12658872Y-10865770D02*
X12668396Y-10846722D01*
X12668396Y-10846722D02*
X12687443Y-10837198D01*
X12687443Y-10837198D02*
X12735062Y-10837198D01*
X12735062Y-10837198D02*
X12754110Y-10827675D01*
X12849348Y-10780055D02*
X12849348Y-10980055D01*
X12849348Y-10789579D02*
X12868396Y-10780055D01*
X12868396Y-10780055D02*
X12906491Y-10780055D01*
X12906491Y-10780055D02*
X12925538Y-10789579D01*
X12925538Y-10789579D02*
X12935062Y-10799103D01*
X12935062Y-10799103D02*
X12944586Y-10818151D01*
X12944586Y-10818151D02*
X12944586Y-10875294D01*
X12944586Y-10875294D02*
X12935062Y-10894341D01*
X12935062Y-10894341D02*
X12925538Y-10903865D01*
X12925538Y-10903865D02*
X12906491Y-10913389D01*
X12906491Y-10913389D02*
X12868396Y-10913389D01*
X12868396Y-10913389D02*
X12849348Y-10903865D01*
X13030300Y-10894341D02*
X13039824Y-10903865D01*
X13039824Y-10903865D02*
X13030300Y-10913389D01*
X13030300Y-10913389D02*
X13020777Y-10903865D01*
X13020777Y-10903865D02*
X13030300Y-10894341D01*
X13030300Y-10894341D02*
X13030300Y-10913389D01*
X13030300Y-10789579D02*
X13039824Y-10799103D01*
X13039824Y-10799103D02*
X13030300Y-10808627D01*
X13030300Y-10808627D02*
X13020777Y-10799103D01*
X13020777Y-10799103D02*
X13030300Y-10789579D01*
X13030300Y-10789579D02*
X13030300Y-10808627D01*
D12*
X11368095Y-11226905D02*
X11398095Y-11256905D01*
X11398095Y-11226905D02*
X11368095Y-11256905D01*
D11*
X11696967Y-11133389D02*
X11716015Y-11133389D01*
X11716015Y-11133389D02*
X11735062Y-11142913D01*
X11735062Y-11142913D02*
X11744586Y-11152436D01*
X11744586Y-11152436D02*
X11754110Y-11171484D01*
X11754110Y-11171484D02*
X11763634Y-11209579D01*
X11763634Y-11209579D02*
X11763634Y-11257198D01*
X11763634Y-11257198D02*
X11754110Y-11295293D01*
X11754110Y-11295293D02*
X11744586Y-11314341D01*
X11744586Y-11314341D02*
X11735062Y-11323865D01*
X11735062Y-11323865D02*
X11716015Y-11333389D01*
X11716015Y-11333389D02*
X11696967Y-11333389D01*
X11696967Y-11333389D02*
X11677919Y-11323865D01*
X11677919Y-11323865D02*
X11668396Y-11314341D01*
X11668396Y-11314341D02*
X11658872Y-11295293D01*
X11658872Y-11295293D02*
X11649348Y-11257198D01*
X11649348Y-11257198D02*
X11649348Y-11209579D01*
X11649348Y-11209579D02*
X11658872Y-11171484D01*
X11658872Y-11171484D02*
X11668396Y-11152436D01*
X11668396Y-11152436D02*
X11677919Y-11142913D01*
X11677919Y-11142913D02*
X11696967Y-11133389D01*
X11849348Y-11314341D02*
X11858872Y-11323865D01*
X11858872Y-11323865D02*
X11849348Y-11333389D01*
X11849348Y-11333389D02*
X11839824Y-11323865D01*
X11839824Y-11323865D02*
X11849348Y-11314341D01*
X11849348Y-11314341D02*
X11849348Y-11333389D01*
X11925538Y-11133389D02*
X12049348Y-11133389D01*
X12049348Y-11133389D02*
X11982681Y-11209579D01*
X11982681Y-11209579D02*
X12011253Y-11209579D01*
X12011253Y-11209579D02*
X12030300Y-11219103D01*
X12030300Y-11219103D02*
X12039824Y-11228627D01*
X12039824Y-11228627D02*
X12049348Y-11247674D01*
X12049348Y-11247674D02*
X12049348Y-11295293D01*
X12049348Y-11295293D02*
X12039824Y-11314341D01*
X12039824Y-11314341D02*
X12030300Y-11323865D01*
X12030300Y-11323865D02*
X12011253Y-11333389D01*
X12011253Y-11333389D02*
X11954110Y-11333389D01*
X11954110Y-11333389D02*
X11935062Y-11323865D01*
X11935062Y-11323865D02*
X11925538Y-11314341D01*
X12173157Y-11133389D02*
X12192205Y-11133389D01*
X12192205Y-11133389D02*
X12211253Y-11142913D01*
X12211253Y-11142913D02*
X12220777Y-11152436D01*
X12220777Y-11152436D02*
X12230300Y-11171484D01*
X12230300Y-11171484D02*
X12239824Y-11209579D01*
X12239824Y-11209579D02*
X12239824Y-11257198D01*
X12239824Y-11257198D02*
X12230300Y-11295293D01*
X12230300Y-11295293D02*
X12220777Y-11314341D01*
X12220777Y-11314341D02*
X12211253Y-11323865D01*
X12211253Y-11323865D02*
X12192205Y-11333389D01*
X12192205Y-11333389D02*
X12173157Y-11333389D01*
X12173157Y-11333389D02*
X12154110Y-11323865D01*
X12154110Y-11323865D02*
X12144586Y-11314341D01*
X12144586Y-11314341D02*
X12135062Y-11295293D01*
X12135062Y-11295293D02*
X12125538Y-11257198D01*
X12125538Y-11257198D02*
X12125538Y-11209579D01*
X12125538Y-11209579D02*
X12135062Y-11171484D01*
X12135062Y-11171484D02*
X12144586Y-11152436D01*
X12144586Y-11152436D02*
X12154110Y-11142913D01*
X12154110Y-11142913D02*
X12173157Y-11133389D01*
X12363634Y-11133389D02*
X12382681Y-11133389D01*
X12382681Y-11133389D02*
X12401729Y-11142913D01*
X12401729Y-11142913D02*
X12411253Y-11152436D01*
X12411253Y-11152436D02*
X12420777Y-11171484D01*
X12420777Y-11171484D02*
X12430300Y-11209579D01*
X12430300Y-11209579D02*
X12430300Y-11257198D01*
X12430300Y-11257198D02*
X12420777Y-11295293D01*
X12420777Y-11295293D02*
X12411253Y-11314341D01*
X12411253Y-11314341D02*
X12401729Y-11323865D01*
X12401729Y-11323865D02*
X12382681Y-11333389D01*
X12382681Y-11333389D02*
X12363634Y-11333389D01*
X12363634Y-11333389D02*
X12344586Y-11323865D01*
X12344586Y-11323865D02*
X12335062Y-11314341D01*
X12335062Y-11314341D02*
X12325538Y-11295293D01*
X12325538Y-11295293D02*
X12316015Y-11257198D01*
X12316015Y-11257198D02*
X12316015Y-11209579D01*
X12316015Y-11209579D02*
X12325538Y-11171484D01*
X12325538Y-11171484D02*
X12335062Y-11152436D01*
X12335062Y-11152436D02*
X12344586Y-11142913D01*
X12344586Y-11142913D02*
X12363634Y-11133389D01*
X12516015Y-11333389D02*
X12516015Y-11200055D01*
X12516015Y-11219103D02*
X12525538Y-11209579D01*
X12525538Y-11209579D02*
X12544586Y-11200055D01*
X12544586Y-11200055D02*
X12573158Y-11200055D01*
X12573158Y-11200055D02*
X12592205Y-11209579D01*
X12592205Y-11209579D02*
X12601729Y-11228627D01*
X12601729Y-11228627D02*
X12601729Y-11333389D01*
X12601729Y-11228627D02*
X12611253Y-11209579D01*
X12611253Y-11209579D02*
X12630300Y-11200055D01*
X12630300Y-11200055D02*
X12658872Y-11200055D01*
X12658872Y-11200055D02*
X12677919Y-11209579D01*
X12677919Y-11209579D02*
X12687443Y-11228627D01*
X12687443Y-11228627D02*
X12687443Y-11333389D01*
X12782681Y-11333389D02*
X12782681Y-11200055D01*
X12782681Y-11219103D02*
X12792205Y-11209579D01*
X12792205Y-11209579D02*
X12811253Y-11200055D01*
X12811253Y-11200055D02*
X12839824Y-11200055D01*
X12839824Y-11200055D02*
X12858872Y-11209579D01*
X12858872Y-11209579D02*
X12868396Y-11228627D01*
X12868396Y-11228627D02*
X12868396Y-11333389D01*
X12868396Y-11228627D02*
X12877919Y-11209579D01*
X12877919Y-11209579D02*
X12896967Y-11200055D01*
X12896967Y-11200055D02*
X12925538Y-11200055D01*
X12925538Y-11200055D02*
X12944586Y-11209579D01*
X12944586Y-11209579D02*
X12954110Y-11228627D01*
X12954110Y-11228627D02*
X12954110Y-11333389D01*
X13344586Y-11123865D02*
X13173158Y-11381008D01*
X13601729Y-11133389D02*
X13620777Y-11133389D01*
X13620777Y-11133389D02*
X13639824Y-11142913D01*
X13639824Y-11142913D02*
X13649348Y-11152436D01*
X13649348Y-11152436D02*
X13658872Y-11171484D01*
X13658872Y-11171484D02*
X13668396Y-11209579D01*
X13668396Y-11209579D02*
X13668396Y-11257198D01*
X13668396Y-11257198D02*
X13658872Y-11295293D01*
X13658872Y-11295293D02*
X13649348Y-11314341D01*
X13649348Y-11314341D02*
X13639824Y-11323865D01*
X13639824Y-11323865D02*
X13620777Y-11333389D01*
X13620777Y-11333389D02*
X13601729Y-11333389D01*
X13601729Y-11333389D02*
X13582681Y-11323865D01*
X13582681Y-11323865D02*
X13573158Y-11314341D01*
X13573158Y-11314341D02*
X13563634Y-11295293D01*
X13563634Y-11295293D02*
X13554110Y-11257198D01*
X13554110Y-11257198D02*
X13554110Y-11209579D01*
X13554110Y-11209579D02*
X13563634Y-11171484D01*
X13563634Y-11171484D02*
X13573158Y-11152436D01*
X13573158Y-11152436D02*
X13582681Y-11142913D01*
X13582681Y-11142913D02*
X13601729Y-11133389D01*
X13754110Y-11314341D02*
X13763634Y-11323865D01*
X13763634Y-11323865D02*
X13754110Y-11333389D01*
X13754110Y-11333389D02*
X13744586Y-11323865D01*
X13744586Y-11323865D02*
X13754110Y-11314341D01*
X13754110Y-11314341D02*
X13754110Y-11333389D01*
X13887443Y-11133389D02*
X13906491Y-11133389D01*
X13906491Y-11133389D02*
X13925539Y-11142913D01*
X13925539Y-11142913D02*
X13935062Y-11152436D01*
X13935062Y-11152436D02*
X13944586Y-11171484D01*
X13944586Y-11171484D02*
X13954110Y-11209579D01*
X13954110Y-11209579D02*
X13954110Y-11257198D01*
X13954110Y-11257198D02*
X13944586Y-11295293D01*
X13944586Y-11295293D02*
X13935062Y-11314341D01*
X13935062Y-11314341D02*
X13925539Y-11323865D01*
X13925539Y-11323865D02*
X13906491Y-11333389D01*
X13906491Y-11333389D02*
X13887443Y-11333389D01*
X13887443Y-11333389D02*
X13868396Y-11323865D01*
X13868396Y-11323865D02*
X13858872Y-11314341D01*
X13858872Y-11314341D02*
X13849348Y-11295293D01*
X13849348Y-11295293D02*
X13839824Y-11257198D01*
X13839824Y-11257198D02*
X13839824Y-11209579D01*
X13839824Y-11209579D02*
X13849348Y-11171484D01*
X13849348Y-11171484D02*
X13858872Y-11152436D01*
X13858872Y-11152436D02*
X13868396Y-11142913D01*
X13868396Y-11142913D02*
X13887443Y-11133389D01*
X14144586Y-11333389D02*
X14030301Y-11333389D01*
X14087443Y-11333389D02*
X14087443Y-11133389D01*
X14087443Y-11133389D02*
X14068396Y-11161960D01*
X14068396Y-11161960D02*
X14049348Y-11181008D01*
X14049348Y-11181008D02*
X14030301Y-11190532D01*
X14335062Y-11333389D02*
X14220777Y-11333389D01*
X14277920Y-11333389D02*
X14277920Y-11133389D01*
X14277920Y-11133389D02*
X14258872Y-11161960D01*
X14258872Y-11161960D02*
X14239824Y-11181008D01*
X14239824Y-11181008D02*
X14220777Y-11190532D01*
X14449348Y-11219103D02*
X14430301Y-11209579D01*
X14430301Y-11209579D02*
X14420777Y-11200055D01*
X14420777Y-11200055D02*
X14411253Y-11181008D01*
X14411253Y-11181008D02*
X14411253Y-11171484D01*
X14411253Y-11171484D02*
X14420777Y-11152436D01*
X14420777Y-11152436D02*
X14430301Y-11142913D01*
X14430301Y-11142913D02*
X14449348Y-11133389D01*
X14449348Y-11133389D02*
X14487443Y-11133389D01*
X14487443Y-11133389D02*
X14506491Y-11142913D01*
X14506491Y-11142913D02*
X14516015Y-11152436D01*
X14516015Y-11152436D02*
X14525539Y-11171484D01*
X14525539Y-11171484D02*
X14525539Y-11181008D01*
X14525539Y-11181008D02*
X14516015Y-11200055D01*
X14516015Y-11200055D02*
X14506491Y-11209579D01*
X14506491Y-11209579D02*
X14487443Y-11219103D01*
X14487443Y-11219103D02*
X14449348Y-11219103D01*
X14449348Y-11219103D02*
X14430301Y-11228627D01*
X14430301Y-11228627D02*
X14420777Y-11238151D01*
X14420777Y-11238151D02*
X14411253Y-11257198D01*
X14411253Y-11257198D02*
X14411253Y-11295293D01*
X14411253Y-11295293D02*
X14420777Y-11314341D01*
X14420777Y-11314341D02*
X14430301Y-11323865D01*
X14430301Y-11323865D02*
X14449348Y-11333389D01*
X14449348Y-11333389D02*
X14487443Y-11333389D01*
X14487443Y-11333389D02*
X14506491Y-11323865D01*
X14506491Y-11323865D02*
X14516015Y-11314341D01*
X14516015Y-11314341D02*
X14525539Y-11295293D01*
X14525539Y-11295293D02*
X14525539Y-11257198D01*
X14525539Y-11257198D02*
X14516015Y-11238151D01*
X14516015Y-11238151D02*
X14506491Y-11228627D01*
X14506491Y-11228627D02*
X14487443Y-11219103D01*
X14601729Y-11133389D02*
X14601729Y-11171484D01*
X14677920Y-11133389D02*
X14677920Y-11171484D01*
X14973158Y-11409579D02*
X14963634Y-11400055D01*
X14963634Y-11400055D02*
X14944586Y-11371484D01*
X14944586Y-11371484D02*
X14935063Y-11352436D01*
X14935063Y-11352436D02*
X14925539Y-11323865D01*
X14925539Y-11323865D02*
X14916015Y-11276246D01*
X14916015Y-11276246D02*
X14916015Y-11238151D01*
X14916015Y-11238151D02*
X14925539Y-11190532D01*
X14925539Y-11190532D02*
X14935063Y-11161960D01*
X14935063Y-11161960D02*
X14944586Y-11142913D01*
X14944586Y-11142913D02*
X14963634Y-11114341D01*
X14963634Y-11114341D02*
X14973158Y-11104817D01*
X15135063Y-11200055D02*
X15135063Y-11333389D01*
X15087443Y-11123865D02*
X15039824Y-11266722D01*
X15039824Y-11266722D02*
X15163634Y-11266722D01*
X15277920Y-11133389D02*
X15296967Y-11133389D01*
X15296967Y-11133389D02*
X15316015Y-11142913D01*
X15316015Y-11142913D02*
X15325539Y-11152436D01*
X15325539Y-11152436D02*
X15335063Y-11171484D01*
X15335063Y-11171484D02*
X15344586Y-11209579D01*
X15344586Y-11209579D02*
X15344586Y-11257198D01*
X15344586Y-11257198D02*
X15335063Y-11295293D01*
X15335063Y-11295293D02*
X15325539Y-11314341D01*
X15325539Y-11314341D02*
X15316015Y-11323865D01*
X15316015Y-11323865D02*
X15296967Y-11333389D01*
X15296967Y-11333389D02*
X15277920Y-11333389D01*
X15277920Y-11333389D02*
X15258872Y-11323865D01*
X15258872Y-11323865D02*
X15249348Y-11314341D01*
X15249348Y-11314341D02*
X15239824Y-11295293D01*
X15239824Y-11295293D02*
X15230301Y-11257198D01*
X15230301Y-11257198D02*
X15230301Y-11209579D01*
X15230301Y-11209579D02*
X15239824Y-11171484D01*
X15239824Y-11171484D02*
X15249348Y-11152436D01*
X15249348Y-11152436D02*
X15258872Y-11142913D01*
X15258872Y-11142913D02*
X15277920Y-11133389D01*
X15582682Y-11333389D02*
X15582682Y-11133389D01*
X15668396Y-11333389D02*
X15668396Y-11228627D01*
X15668396Y-11228627D02*
X15658872Y-11209579D01*
X15658872Y-11209579D02*
X15639825Y-11200055D01*
X15639825Y-11200055D02*
X15611253Y-11200055D01*
X15611253Y-11200055D02*
X15592205Y-11209579D01*
X15592205Y-11209579D02*
X15582682Y-11219103D01*
X15792205Y-11333389D02*
X15773158Y-11323865D01*
X15773158Y-11323865D02*
X15763634Y-11314341D01*
X15763634Y-11314341D02*
X15754110Y-11295293D01*
X15754110Y-11295293D02*
X15754110Y-11238151D01*
X15754110Y-11238151D02*
X15763634Y-11219103D01*
X15763634Y-11219103D02*
X15773158Y-11209579D01*
X15773158Y-11209579D02*
X15792205Y-11200055D01*
X15792205Y-11200055D02*
X15820777Y-11200055D01*
X15820777Y-11200055D02*
X15839825Y-11209579D01*
X15839825Y-11209579D02*
X15849348Y-11219103D01*
X15849348Y-11219103D02*
X15858872Y-11238151D01*
X15858872Y-11238151D02*
X15858872Y-11295293D01*
X15858872Y-11295293D02*
X15849348Y-11314341D01*
X15849348Y-11314341D02*
X15839825Y-11323865D01*
X15839825Y-11323865D02*
X15820777Y-11333389D01*
X15820777Y-11333389D02*
X15792205Y-11333389D01*
X15973158Y-11333389D02*
X15954110Y-11323865D01*
X15954110Y-11323865D02*
X15944586Y-11304817D01*
X15944586Y-11304817D02*
X15944586Y-11133389D01*
X16125539Y-11323865D02*
X16106491Y-11333389D01*
X16106491Y-11333389D02*
X16068396Y-11333389D01*
X16068396Y-11333389D02*
X16049348Y-11323865D01*
X16049348Y-11323865D02*
X16039825Y-11304817D01*
X16039825Y-11304817D02*
X16039825Y-11228627D01*
X16039825Y-11228627D02*
X16049348Y-11209579D01*
X16049348Y-11209579D02*
X16068396Y-11200055D01*
X16068396Y-11200055D02*
X16106491Y-11200055D01*
X16106491Y-11200055D02*
X16125539Y-11209579D01*
X16125539Y-11209579D02*
X16135063Y-11228627D01*
X16135063Y-11228627D02*
X16135063Y-11247674D01*
X16135063Y-11247674D02*
X16039825Y-11266722D01*
X16211253Y-11323865D02*
X16230301Y-11333389D01*
X16230301Y-11333389D02*
X16268396Y-11333389D01*
X16268396Y-11333389D02*
X16287444Y-11323865D01*
X16287444Y-11323865D02*
X16296967Y-11304817D01*
X16296967Y-11304817D02*
X16296967Y-11295293D01*
X16296967Y-11295293D02*
X16287444Y-11276246D01*
X16287444Y-11276246D02*
X16268396Y-11266722D01*
X16268396Y-11266722D02*
X16239825Y-11266722D01*
X16239825Y-11266722D02*
X16220777Y-11257198D01*
X16220777Y-11257198D02*
X16211253Y-11238151D01*
X16211253Y-11238151D02*
X16211253Y-11228627D01*
X16211253Y-11228627D02*
X16220777Y-11209579D01*
X16220777Y-11209579D02*
X16239825Y-11200055D01*
X16239825Y-11200055D02*
X16268396Y-11200055D01*
X16268396Y-11200055D02*
X16287444Y-11209579D01*
X16363634Y-11409579D02*
X16373158Y-11400055D01*
X16373158Y-11400055D02*
X16392206Y-11371484D01*
X16392206Y-11371484D02*
X16401729Y-11352436D01*
X16401729Y-11352436D02*
X16411253Y-11323865D01*
X16411253Y-11323865D02*
X16420777Y-11276246D01*
X16420777Y-11276246D02*
X16420777Y-11238151D01*
X16420777Y-11238151D02*
X16411253Y-11190532D01*
X16411253Y-11190532D02*
X16401729Y-11161960D01*
X16401729Y-11161960D02*
X16392206Y-11142913D01*
X16392206Y-11142913D02*
X16373158Y-11114341D01*
X16373158Y-11114341D02*
X16363634Y-11104817D01*
D12*
X11398095Y-11505905D02*
G75*
G02*
X11298095Y-11505905I-50000J0D01*
G01*
X11298095Y-11505905D02*
G75*
G02*
X11398095Y-11505905I50000J0D01*
G01*
D11*
X11763634Y-11597389D02*
X11649348Y-11597389D01*
X11706491Y-11597389D02*
X11706491Y-11397389D01*
X11706491Y-11397389D02*
X11687443Y-11425960D01*
X11687443Y-11425960D02*
X11668396Y-11445008D01*
X11668396Y-11445008D02*
X11649348Y-11454532D01*
X11849348Y-11578341D02*
X11858872Y-11587865D01*
X11858872Y-11587865D02*
X11849348Y-11597389D01*
X11849348Y-11597389D02*
X11839824Y-11587865D01*
X11839824Y-11587865D02*
X11849348Y-11578341D01*
X11849348Y-11578341D02*
X11849348Y-11597389D01*
X11982681Y-11397389D02*
X12001729Y-11397389D01*
X12001729Y-11397389D02*
X12020777Y-11406913D01*
X12020777Y-11406913D02*
X12030300Y-11416436D01*
X12030300Y-11416436D02*
X12039824Y-11435484D01*
X12039824Y-11435484D02*
X12049348Y-11473579D01*
X12049348Y-11473579D02*
X12049348Y-11521198D01*
X12049348Y-11521198D02*
X12039824Y-11559293D01*
X12039824Y-11559293D02*
X12030300Y-11578341D01*
X12030300Y-11578341D02*
X12020777Y-11587865D01*
X12020777Y-11587865D02*
X12001729Y-11597389D01*
X12001729Y-11597389D02*
X11982681Y-11597389D01*
X11982681Y-11597389D02*
X11963634Y-11587865D01*
X11963634Y-11587865D02*
X11954110Y-11578341D01*
X11954110Y-11578341D02*
X11944586Y-11559293D01*
X11944586Y-11559293D02*
X11935062Y-11521198D01*
X11935062Y-11521198D02*
X11935062Y-11473579D01*
X11935062Y-11473579D02*
X11944586Y-11435484D01*
X11944586Y-11435484D02*
X11954110Y-11416436D01*
X11954110Y-11416436D02*
X11963634Y-11406913D01*
X11963634Y-11406913D02*
X11982681Y-11397389D01*
X12173157Y-11397389D02*
X12192205Y-11397389D01*
X12192205Y-11397389D02*
X12211253Y-11406913D01*
X12211253Y-11406913D02*
X12220777Y-11416436D01*
X12220777Y-11416436D02*
X12230300Y-11435484D01*
X12230300Y-11435484D02*
X12239824Y-11473579D01*
X12239824Y-11473579D02*
X12239824Y-11521198D01*
X12239824Y-11521198D02*
X12230300Y-11559293D01*
X12230300Y-11559293D02*
X12220777Y-11578341D01*
X12220777Y-11578341D02*
X12211253Y-11587865D01*
X12211253Y-11587865D02*
X12192205Y-11597389D01*
X12192205Y-11597389D02*
X12173157Y-11597389D01*
X12173157Y-11597389D02*
X12154110Y-11587865D01*
X12154110Y-11587865D02*
X12144586Y-11578341D01*
X12144586Y-11578341D02*
X12135062Y-11559293D01*
X12135062Y-11559293D02*
X12125538Y-11521198D01*
X12125538Y-11521198D02*
X12125538Y-11473579D01*
X12125538Y-11473579D02*
X12135062Y-11435484D01*
X12135062Y-11435484D02*
X12144586Y-11416436D01*
X12144586Y-11416436D02*
X12154110Y-11406913D01*
X12154110Y-11406913D02*
X12173157Y-11397389D01*
X12363634Y-11397389D02*
X12382681Y-11397389D01*
X12382681Y-11397389D02*
X12401729Y-11406913D01*
X12401729Y-11406913D02*
X12411253Y-11416436D01*
X12411253Y-11416436D02*
X12420777Y-11435484D01*
X12420777Y-11435484D02*
X12430300Y-11473579D01*
X12430300Y-11473579D02*
X12430300Y-11521198D01*
X12430300Y-11521198D02*
X12420777Y-11559293D01*
X12420777Y-11559293D02*
X12411253Y-11578341D01*
X12411253Y-11578341D02*
X12401729Y-11587865D01*
X12401729Y-11587865D02*
X12382681Y-11597389D01*
X12382681Y-11597389D02*
X12363634Y-11597389D01*
X12363634Y-11597389D02*
X12344586Y-11587865D01*
X12344586Y-11587865D02*
X12335062Y-11578341D01*
X12335062Y-11578341D02*
X12325538Y-11559293D01*
X12325538Y-11559293D02*
X12316015Y-11521198D01*
X12316015Y-11521198D02*
X12316015Y-11473579D01*
X12316015Y-11473579D02*
X12325538Y-11435484D01*
X12325538Y-11435484D02*
X12335062Y-11416436D01*
X12335062Y-11416436D02*
X12344586Y-11406913D01*
X12344586Y-11406913D02*
X12363634Y-11397389D01*
X12516015Y-11597389D02*
X12516015Y-11464055D01*
X12516015Y-11483103D02*
X12525538Y-11473579D01*
X12525538Y-11473579D02*
X12544586Y-11464055D01*
X12544586Y-11464055D02*
X12573158Y-11464055D01*
X12573158Y-11464055D02*
X12592205Y-11473579D01*
X12592205Y-11473579D02*
X12601729Y-11492627D01*
X12601729Y-11492627D02*
X12601729Y-11597389D01*
X12601729Y-11492627D02*
X12611253Y-11473579D01*
X12611253Y-11473579D02*
X12630300Y-11464055D01*
X12630300Y-11464055D02*
X12658872Y-11464055D01*
X12658872Y-11464055D02*
X12677919Y-11473579D01*
X12677919Y-11473579D02*
X12687443Y-11492627D01*
X12687443Y-11492627D02*
X12687443Y-11597389D01*
X12782681Y-11597389D02*
X12782681Y-11464055D01*
X12782681Y-11483103D02*
X12792205Y-11473579D01*
X12792205Y-11473579D02*
X12811253Y-11464055D01*
X12811253Y-11464055D02*
X12839824Y-11464055D01*
X12839824Y-11464055D02*
X12858872Y-11473579D01*
X12858872Y-11473579D02*
X12868396Y-11492627D01*
X12868396Y-11492627D02*
X12868396Y-11597389D01*
X12868396Y-11492627D02*
X12877919Y-11473579D01*
X12877919Y-11473579D02*
X12896967Y-11464055D01*
X12896967Y-11464055D02*
X12925538Y-11464055D01*
X12925538Y-11464055D02*
X12944586Y-11473579D01*
X12944586Y-11473579D02*
X12954110Y-11492627D01*
X12954110Y-11492627D02*
X12954110Y-11597389D01*
X13344586Y-11387865D02*
X13173158Y-11645008D01*
X13601729Y-11397389D02*
X13620777Y-11397389D01*
X13620777Y-11397389D02*
X13639824Y-11406913D01*
X13639824Y-11406913D02*
X13649348Y-11416436D01*
X13649348Y-11416436D02*
X13658872Y-11435484D01*
X13658872Y-11435484D02*
X13668396Y-11473579D01*
X13668396Y-11473579D02*
X13668396Y-11521198D01*
X13668396Y-11521198D02*
X13658872Y-11559293D01*
X13658872Y-11559293D02*
X13649348Y-11578341D01*
X13649348Y-11578341D02*
X13639824Y-11587865D01*
X13639824Y-11587865D02*
X13620777Y-11597389D01*
X13620777Y-11597389D02*
X13601729Y-11597389D01*
X13601729Y-11597389D02*
X13582681Y-11587865D01*
X13582681Y-11587865D02*
X13573158Y-11578341D01*
X13573158Y-11578341D02*
X13563634Y-11559293D01*
X13563634Y-11559293D02*
X13554110Y-11521198D01*
X13554110Y-11521198D02*
X13554110Y-11473579D01*
X13554110Y-11473579D02*
X13563634Y-11435484D01*
X13563634Y-11435484D02*
X13573158Y-11416436D01*
X13573158Y-11416436D02*
X13582681Y-11406913D01*
X13582681Y-11406913D02*
X13601729Y-11397389D01*
X13754110Y-11578341D02*
X13763634Y-11587865D01*
X13763634Y-11587865D02*
X13754110Y-11597389D01*
X13754110Y-11597389D02*
X13744586Y-11587865D01*
X13744586Y-11587865D02*
X13754110Y-11578341D01*
X13754110Y-11578341D02*
X13754110Y-11597389D01*
X13887443Y-11397389D02*
X13906491Y-11397389D01*
X13906491Y-11397389D02*
X13925539Y-11406913D01*
X13925539Y-11406913D02*
X13935062Y-11416436D01*
X13935062Y-11416436D02*
X13944586Y-11435484D01*
X13944586Y-11435484D02*
X13954110Y-11473579D01*
X13954110Y-11473579D02*
X13954110Y-11521198D01*
X13954110Y-11521198D02*
X13944586Y-11559293D01*
X13944586Y-11559293D02*
X13935062Y-11578341D01*
X13935062Y-11578341D02*
X13925539Y-11587865D01*
X13925539Y-11587865D02*
X13906491Y-11597389D01*
X13906491Y-11597389D02*
X13887443Y-11597389D01*
X13887443Y-11597389D02*
X13868396Y-11587865D01*
X13868396Y-11587865D02*
X13858872Y-11578341D01*
X13858872Y-11578341D02*
X13849348Y-11559293D01*
X13849348Y-11559293D02*
X13839824Y-11521198D01*
X13839824Y-11521198D02*
X13839824Y-11473579D01*
X13839824Y-11473579D02*
X13849348Y-11435484D01*
X13849348Y-11435484D02*
X13858872Y-11416436D01*
X13858872Y-11416436D02*
X13868396Y-11406913D01*
X13868396Y-11406913D02*
X13887443Y-11397389D01*
X14020777Y-11397389D02*
X14144586Y-11397389D01*
X14144586Y-11397389D02*
X14077920Y-11473579D01*
X14077920Y-11473579D02*
X14106491Y-11473579D01*
X14106491Y-11473579D02*
X14125539Y-11483103D01*
X14125539Y-11483103D02*
X14135062Y-11492627D01*
X14135062Y-11492627D02*
X14144586Y-11511674D01*
X14144586Y-11511674D02*
X14144586Y-11559293D01*
X14144586Y-11559293D02*
X14135062Y-11578341D01*
X14135062Y-11578341D02*
X14125539Y-11587865D01*
X14125539Y-11587865D02*
X14106491Y-11597389D01*
X14106491Y-11597389D02*
X14049348Y-11597389D01*
X14049348Y-11597389D02*
X14030301Y-11587865D01*
X14030301Y-11587865D02*
X14020777Y-11578341D01*
X14239824Y-11597389D02*
X14277920Y-11597389D01*
X14277920Y-11597389D02*
X14296967Y-11587865D01*
X14296967Y-11587865D02*
X14306491Y-11578341D01*
X14306491Y-11578341D02*
X14325539Y-11549770D01*
X14325539Y-11549770D02*
X14335062Y-11511674D01*
X14335062Y-11511674D02*
X14335062Y-11435484D01*
X14335062Y-11435484D02*
X14325539Y-11416436D01*
X14325539Y-11416436D02*
X14316015Y-11406913D01*
X14316015Y-11406913D02*
X14296967Y-11397389D01*
X14296967Y-11397389D02*
X14258872Y-11397389D01*
X14258872Y-11397389D02*
X14239824Y-11406913D01*
X14239824Y-11406913D02*
X14230301Y-11416436D01*
X14230301Y-11416436D02*
X14220777Y-11435484D01*
X14220777Y-11435484D02*
X14220777Y-11483103D01*
X14220777Y-11483103D02*
X14230301Y-11502151D01*
X14230301Y-11502151D02*
X14239824Y-11511674D01*
X14239824Y-11511674D02*
X14258872Y-11521198D01*
X14258872Y-11521198D02*
X14296967Y-11521198D01*
X14296967Y-11521198D02*
X14316015Y-11511674D01*
X14316015Y-11511674D02*
X14325539Y-11502151D01*
X14325539Y-11502151D02*
X14335062Y-11483103D01*
X14506491Y-11464055D02*
X14506491Y-11597389D01*
X14458872Y-11387865D02*
X14411253Y-11530722D01*
X14411253Y-11530722D02*
X14535062Y-11530722D01*
X14601729Y-11397389D02*
X14601729Y-11435484D01*
X14677920Y-11397389D02*
X14677920Y-11435484D01*
X14973158Y-11673579D02*
X14963634Y-11664055D01*
X14963634Y-11664055D02*
X14944586Y-11635484D01*
X14944586Y-11635484D02*
X14935063Y-11616436D01*
X14935063Y-11616436D02*
X14925539Y-11587865D01*
X14925539Y-11587865D02*
X14916015Y-11540246D01*
X14916015Y-11540246D02*
X14916015Y-11502151D01*
X14916015Y-11502151D02*
X14925539Y-11454532D01*
X14925539Y-11454532D02*
X14935063Y-11425960D01*
X14935063Y-11425960D02*
X14944586Y-11406913D01*
X14944586Y-11406913D02*
X14963634Y-11378341D01*
X14963634Y-11378341D02*
X14973158Y-11368817D01*
X15135063Y-11397389D02*
X15096967Y-11397389D01*
X15096967Y-11397389D02*
X15077920Y-11406913D01*
X15077920Y-11406913D02*
X15068396Y-11416436D01*
X15068396Y-11416436D02*
X15049348Y-11445008D01*
X15049348Y-11445008D02*
X15039824Y-11483103D01*
X15039824Y-11483103D02*
X15039824Y-11559293D01*
X15039824Y-11559293D02*
X15049348Y-11578341D01*
X15049348Y-11578341D02*
X15058872Y-11587865D01*
X15058872Y-11587865D02*
X15077920Y-11597389D01*
X15077920Y-11597389D02*
X15116015Y-11597389D01*
X15116015Y-11597389D02*
X15135063Y-11587865D01*
X15135063Y-11587865D02*
X15144586Y-11578341D01*
X15144586Y-11578341D02*
X15154110Y-11559293D01*
X15154110Y-11559293D02*
X15154110Y-11511674D01*
X15154110Y-11511674D02*
X15144586Y-11492627D01*
X15144586Y-11492627D02*
X15135063Y-11483103D01*
X15135063Y-11483103D02*
X15116015Y-11473579D01*
X15116015Y-11473579D02*
X15077920Y-11473579D01*
X15077920Y-11473579D02*
X15058872Y-11483103D01*
X15058872Y-11483103D02*
X15049348Y-11492627D01*
X15049348Y-11492627D02*
X15039824Y-11511674D01*
X15249348Y-11597389D02*
X15287443Y-11597389D01*
X15287443Y-11597389D02*
X15306491Y-11587865D01*
X15306491Y-11587865D02*
X15316015Y-11578341D01*
X15316015Y-11578341D02*
X15335063Y-11549770D01*
X15335063Y-11549770D02*
X15344586Y-11511674D01*
X15344586Y-11511674D02*
X15344586Y-11435484D01*
X15344586Y-11435484D02*
X15335063Y-11416436D01*
X15335063Y-11416436D02*
X15325539Y-11406913D01*
X15325539Y-11406913D02*
X15306491Y-11397389D01*
X15306491Y-11397389D02*
X15268396Y-11397389D01*
X15268396Y-11397389D02*
X15249348Y-11406913D01*
X15249348Y-11406913D02*
X15239824Y-11416436D01*
X15239824Y-11416436D02*
X15230301Y-11435484D01*
X15230301Y-11435484D02*
X15230301Y-11483103D01*
X15230301Y-11483103D02*
X15239824Y-11502151D01*
X15239824Y-11502151D02*
X15249348Y-11511674D01*
X15249348Y-11511674D02*
X15268396Y-11521198D01*
X15268396Y-11521198D02*
X15306491Y-11521198D01*
X15306491Y-11521198D02*
X15325539Y-11511674D01*
X15325539Y-11511674D02*
X15335063Y-11502151D01*
X15335063Y-11502151D02*
X15344586Y-11483103D01*
X15582682Y-11597389D02*
X15582682Y-11397389D01*
X15668396Y-11597389D02*
X15668396Y-11492627D01*
X15668396Y-11492627D02*
X15658872Y-11473579D01*
X15658872Y-11473579D02*
X15639825Y-11464055D01*
X15639825Y-11464055D02*
X15611253Y-11464055D01*
X15611253Y-11464055D02*
X15592205Y-11473579D01*
X15592205Y-11473579D02*
X15582682Y-11483103D01*
X15792205Y-11597389D02*
X15773158Y-11587865D01*
X15773158Y-11587865D02*
X15763634Y-11578341D01*
X15763634Y-11578341D02*
X15754110Y-11559293D01*
X15754110Y-11559293D02*
X15754110Y-11502151D01*
X15754110Y-11502151D02*
X15763634Y-11483103D01*
X15763634Y-11483103D02*
X15773158Y-11473579D01*
X15773158Y-11473579D02*
X15792205Y-11464055D01*
X15792205Y-11464055D02*
X15820777Y-11464055D01*
X15820777Y-11464055D02*
X15839825Y-11473579D01*
X15839825Y-11473579D02*
X15849348Y-11483103D01*
X15849348Y-11483103D02*
X15858872Y-11502151D01*
X15858872Y-11502151D02*
X15858872Y-11559293D01*
X15858872Y-11559293D02*
X15849348Y-11578341D01*
X15849348Y-11578341D02*
X15839825Y-11587865D01*
X15839825Y-11587865D02*
X15820777Y-11597389D01*
X15820777Y-11597389D02*
X15792205Y-11597389D01*
X15973158Y-11597389D02*
X15954110Y-11587865D01*
X15954110Y-11587865D02*
X15944586Y-11568817D01*
X15944586Y-11568817D02*
X15944586Y-11397389D01*
X16125539Y-11587865D02*
X16106491Y-11597389D01*
X16106491Y-11597389D02*
X16068396Y-11597389D01*
X16068396Y-11597389D02*
X16049348Y-11587865D01*
X16049348Y-11587865D02*
X16039825Y-11568817D01*
X16039825Y-11568817D02*
X16039825Y-11492627D01*
X16039825Y-11492627D02*
X16049348Y-11473579D01*
X16049348Y-11473579D02*
X16068396Y-11464055D01*
X16068396Y-11464055D02*
X16106491Y-11464055D01*
X16106491Y-11464055D02*
X16125539Y-11473579D01*
X16125539Y-11473579D02*
X16135063Y-11492627D01*
X16135063Y-11492627D02*
X16135063Y-11511674D01*
X16135063Y-11511674D02*
X16039825Y-11530722D01*
X16211253Y-11587865D02*
X16230301Y-11597389D01*
X16230301Y-11597389D02*
X16268396Y-11597389D01*
X16268396Y-11597389D02*
X16287444Y-11587865D01*
X16287444Y-11587865D02*
X16296967Y-11568817D01*
X16296967Y-11568817D02*
X16296967Y-11559293D01*
X16296967Y-11559293D02*
X16287444Y-11540246D01*
X16287444Y-11540246D02*
X16268396Y-11530722D01*
X16268396Y-11530722D02*
X16239825Y-11530722D01*
X16239825Y-11530722D02*
X16220777Y-11521198D01*
X16220777Y-11521198D02*
X16211253Y-11502151D01*
X16211253Y-11502151D02*
X16211253Y-11492627D01*
X16211253Y-11492627D02*
X16220777Y-11473579D01*
X16220777Y-11473579D02*
X16239825Y-11464055D01*
X16239825Y-11464055D02*
X16268396Y-11464055D01*
X16268396Y-11464055D02*
X16287444Y-11473579D01*
X16363634Y-11673579D02*
X16373158Y-11664055D01*
X16373158Y-11664055D02*
X16392206Y-11635484D01*
X16392206Y-11635484D02*
X16401729Y-11616436D01*
X16401729Y-11616436D02*
X16411253Y-11587865D01*
X16411253Y-11587865D02*
X16420777Y-11540246D01*
X16420777Y-11540246D02*
X16420777Y-11502151D01*
X16420777Y-11502151D02*
X16411253Y-11454532D01*
X16411253Y-11454532D02*
X16401729Y-11425960D01*
X16401729Y-11425960D02*
X16392206Y-11406913D01*
X16392206Y-11406913D02*
X16373158Y-11378341D01*
X16373158Y-11378341D02*
X16363634Y-11368817D01*
M02*
