G04 #@! TF.GenerationSoftware,KiCad,Pcbnew,9.0.2*
G04 #@! TF.CreationDate,2025-07-08T19:25:07+03:00*
G04 #@! TF.ProjectId,PCB,5043422e-6b69-4636-9164-5f7063625858,rev?*
G04 #@! TF.SameCoordinates,Original*
G04 #@! TF.FileFunction,Copper,L2,Inr*
G04 #@! TF.FilePolarity,Positive*
%FSLAX46Y46*%
G04 Gerber Fmt 4.6, Leading zero omitted, Abs format (unit mm)*
G04 Created by KiCad (PCBNEW 9.0.2) date 2025-07-08 19:25:07*
%MOMM*%
%LPD*%
G01*
G04 APERTURE LIST*
G04 Aperture macros list*
%AMRoundRect*
0 Rectangle with rounded corners*
0 $1 Rounding radius*
0 $2 $3 $4 $5 $6 $7 $8 $9 X,Y pos of 4 corners*
0 Add a 4 corners polygon primitive as box body*
4,1,4,$2,$3,$4,$5,$6,$7,$8,$9,$2,$3,0*
0 Add four circle primitives for the rounded corners*
1,1,$1+$1,$2,$3*
1,1,$1+$1,$4,$5*
1,1,$1+$1,$6,$7*
1,1,$1+$1,$8,$9*
0 Add four rect primitives between the rounded corners*
20,1,$1+$1,$2,$3,$4,$5,0*
20,1,$1+$1,$4,$5,$6,$7,0*
20,1,$1+$1,$6,$7,$8,$9,0*
20,1,$1+$1,$8,$9,$2,$3,0*%
%AMFreePoly0*
4,1,37,0.603843,0.796157,0.639018,0.796157,0.711114,0.766294,0.766294,0.711114,0.796157,0.639018,0.796157,0.603843,0.800000,0.600000,0.800000,-0.600000,0.796157,-0.603843,0.796157,-0.639018,0.766294,-0.711114,0.711114,-0.766294,0.639018,-0.796157,0.603843,-0.796157,0.600000,-0.800000,0.000000,-0.800000,0.000000,-0.796148,-0.078414,-0.796148,-0.232228,-0.765552,-0.377117,-0.705537,
-0.507515,-0.618408,-0.618408,-0.507515,-0.705537,-0.377117,-0.765552,-0.232228,-0.796148,-0.078414,-0.796148,0.078414,-0.765552,0.232228,-0.705537,0.377117,-0.618408,0.507515,-0.507515,0.618408,-0.377117,0.705537,-0.232228,0.765552,-0.078414,0.796148,0.000000,0.796148,0.000000,0.800000,0.600000,0.800000,0.603843,0.796157,0.603843,0.796157,$1*%
%AMFreePoly1*
4,1,37,0.000000,0.796148,0.078414,0.796148,0.232228,0.765552,0.377117,0.705537,0.507515,0.618408,0.618408,0.507515,0.705537,0.377117,0.765552,0.232228,0.796148,0.078414,0.796148,-0.078414,0.765552,-0.232228,0.705537,-0.377117,0.618408,-0.507515,0.507515,-0.618408,0.377117,-0.705537,0.232228,-0.765552,0.078414,-0.796148,0.000000,-0.796148,0.000000,-0.800000,-0.600000,-0.800000,
-0.603843,-0.796157,-0.639018,-0.796157,-0.711114,-0.766294,-0.766294,-0.711114,-0.796157,-0.639018,-0.796157,-0.603843,-0.800000,-0.600000,-0.800000,0.600000,-0.796157,0.603843,-0.796157,0.639018,-0.766294,0.711114,-0.711114,0.766294,-0.639018,0.796157,-0.603843,0.796157,-0.600000,0.800000,0.000000,0.800000,0.000000,0.796148,0.000000,0.796148,$1*%
G04 Aperture macros list end*
G04 #@! TA.AperFunction,ComponentPad*
%ADD10R,1.700000X1.700000*%
G04 #@! TD*
G04 #@! TA.AperFunction,ComponentPad*
%ADD11C,1.700000*%
G04 #@! TD*
G04 #@! TA.AperFunction,ComponentPad*
%ADD12RoundRect,0.200000X-0.600000X-0.600000X0.600000X-0.600000X0.600000X0.600000X-0.600000X0.600000X0*%
G04 #@! TD*
G04 #@! TA.AperFunction,ComponentPad*
%ADD13C,1.600000*%
G04 #@! TD*
G04 #@! TA.AperFunction,ComponentPad*
%ADD14FreePoly0,0.000000*%
G04 #@! TD*
G04 #@! TA.AperFunction,ComponentPad*
%ADD15FreePoly1,0.000000*%
G04 #@! TD*
G04 #@! TA.AperFunction,ComponentPad*
%ADD16R,2.000000X2.000000*%
G04 #@! TD*
G04 #@! TA.AperFunction,ComponentPad*
%ADD17C,2.000000*%
G04 #@! TD*
G04 #@! TA.AperFunction,ViaPad*
%ADD18C,0.600000*%
G04 #@! TD*
G04 APERTURE END LIST*
D10*
X116760000Y-90870000D03*
D11*
X116760000Y-88330000D03*
X116760000Y-85790000D03*
X116760000Y-83250000D03*
X116760000Y-80710000D03*
X116760000Y-78170000D03*
X116760000Y-75630000D03*
X116760000Y-73090000D03*
X116760000Y-70550000D03*
X116760000Y-68010000D03*
X116760000Y-65470000D03*
X116760000Y-62930000D03*
X116760000Y-60390000D03*
X116760000Y-57850000D03*
X116760000Y-55310000D03*
X116760000Y-52770000D03*
D12*
X137700000Y-54600000D03*
D13*
X137700000Y-57140000D03*
D14*
X137700000Y-59680000D03*
D13*
X137700000Y-62220000D03*
X137700000Y-64760000D03*
X137700000Y-67300000D03*
X137700000Y-69840000D03*
D14*
X137700000Y-72380000D03*
D13*
X137700000Y-74920000D03*
X137700000Y-77460000D03*
X137700000Y-80000000D03*
X137700000Y-82540000D03*
D14*
X137700000Y-85080000D03*
D13*
X137700000Y-87620000D03*
X137700000Y-90160000D03*
X137700000Y-92700000D03*
X137700000Y-95240000D03*
D14*
X137700000Y-97780000D03*
D13*
X137700000Y-100320000D03*
X137700000Y-102860000D03*
X155480000Y-102860000D03*
X155480000Y-100320000D03*
D15*
X155480000Y-97780000D03*
D13*
X155480000Y-95240000D03*
X155480000Y-92700000D03*
X155480000Y-90160000D03*
X155480000Y-87620000D03*
D15*
X155480000Y-85080000D03*
D13*
X155480000Y-82540000D03*
X155480000Y-80000000D03*
X155480000Y-77460000D03*
X155480000Y-74920000D03*
D15*
X155480000Y-72380000D03*
D13*
X155480000Y-69840000D03*
X155480000Y-67300000D03*
X155480000Y-64760000D03*
X155480000Y-62220000D03*
D15*
X155480000Y-59680000D03*
D13*
X155480000Y-57140000D03*
X155480000Y-54600000D03*
D10*
X161200000Y-61280000D03*
D11*
X161200000Y-63820000D03*
X161200000Y-66360000D03*
X161200000Y-68900000D03*
X161200000Y-71440000D03*
X161200000Y-73980000D03*
X161200000Y-76520000D03*
D10*
X119508000Y-102258000D03*
D11*
X116968000Y-102258000D03*
D16*
X123800000Y-95500000D03*
D17*
X131400000Y-95500000D03*
D10*
X161200000Y-57275000D03*
D11*
X161200000Y-54735000D03*
D18*
X129200000Y-63300000D03*
X131350000Y-92850000D03*
X134627000Y-80000000D03*
X134627000Y-75230649D03*
X135575000Y-61825000D03*
X140028000Y-87472000D03*
X121400000Y-85600000D03*
X134500000Y-52900000D03*
X120362500Y-92762500D03*
X132900000Y-69300000D03*
X134500000Y-65800000D03*
X133250000Y-83050000D03*
X134227000Y-72000000D03*
X134227000Y-81300000D03*
X134627000Y-74400000D03*
X128673000Y-65188000D03*
X130200000Y-92900000D03*
X135701000Y-76472646D03*
X135700000Y-82200000D03*
X136800000Y-66100000D03*
X151096000Y-55648647D03*
X140698143Y-65825509D03*
X149500000Y-65850000D03*
X153500000Y-62800000D03*
X153500000Y-76000000D03*
X139500000Y-73700000D03*
X151141468Y-56408532D03*
X135373000Y-77550000D03*
X135373000Y-79700000D03*
X133700000Y-68900000D03*
X133827000Y-82500000D03*
X140555000Y-67650000D03*
X158600000Y-57500000D03*
X140750000Y-66650000D03*
X149900000Y-66600000D03*
X149350000Y-65098726D03*
X140716013Y-65098726D03*
X122175000Y-86900000D03*
X124200000Y-55900000D03*
X158100000Y-56000000D03*
M02*
