G04 #@! TF.GenerationSoftware,KiCad,Pcbnew,9.0.2*
G04 #@! TF.CreationDate,2025-07-08T19:25:08+03:00*
G04 #@! TF.ProjectId,PCB,5043422e-6b69-4636-9164-5f7063625858,rev?*
G04 #@! TF.SameCoordinates,Original*
G04 #@! TF.FileFunction,Legend,Top*
G04 #@! TF.FilePolarity,Positive*
%FSLAX46Y46*%
G04 Gerber Fmt 4.6, Leading zero omitted, Abs format (unit mm)*
G04 Created by KiCad (PCBNEW 9.0.2) date 2025-07-08 19:25:08*
%MOMM*%
%LPD*%
G01*
G04 APERTURE LIST*
%ADD10C,0.152400*%
%ADD11C,0.150000*%
%ADD12C,0.120000*%
%ADD13C,0.000000*%
G04 APERTURE END LIST*
D10*
G36*
X160015850Y-99916553D02*
G01*
X160100061Y-99938293D01*
X160177208Y-99973996D01*
X160247548Y-100022127D01*
X160304486Y-100076665D01*
X160349460Y-100137944D01*
X160387546Y-100215581D01*
X160412292Y-100301221D01*
X160425220Y-100394108D01*
X160430000Y-100511575D01*
X160430000Y-100870184D01*
X159413949Y-100870184D01*
X159413949Y-100541617D01*
X159605436Y-100541617D01*
X159605436Y-100607868D01*
X160238513Y-100607868D01*
X160238513Y-100541617D01*
X160235982Y-100454257D01*
X160230026Y-100404291D01*
X160218170Y-100361401D01*
X160199129Y-100318928D01*
X160168319Y-100274687D01*
X160132123Y-100239963D01*
X160090075Y-100213721D01*
X160043385Y-100195820D01*
X159987699Y-100184357D01*
X159921303Y-100180259D01*
X159855559Y-100184655D01*
X159799118Y-100197099D01*
X159750516Y-100216835D01*
X159707183Y-100245447D01*
X159670286Y-100283589D01*
X159639385Y-100332606D01*
X159622771Y-100373587D01*
X159612580Y-100414916D01*
X159607539Y-100462282D01*
X159605436Y-100541617D01*
X159413949Y-100541617D01*
X159413949Y-100501317D01*
X159419570Y-100381362D01*
X159434771Y-100286871D01*
X159460869Y-100201457D01*
X159493756Y-100135197D01*
X159541542Y-100069990D01*
X159598930Y-100015019D01*
X159666802Y-99969539D01*
X159741539Y-99936653D01*
X159826291Y-99916223D01*
X159923012Y-99909089D01*
X160015850Y-99916553D01*
G37*
G36*
X160093921Y-99529596D02*
G01*
X160151444Y-99519041D01*
X160197018Y-99496180D01*
X160233262Y-99460964D01*
X160258477Y-99416175D01*
X160275237Y-99355651D01*
X160281500Y-99274790D01*
X160274370Y-99198201D01*
X160252923Y-99123848D01*
X160221753Y-99055531D01*
X160191618Y-99008382D01*
X160191618Y-98981088D01*
X160389699Y-98981088D01*
X160419218Y-99063855D01*
X160438365Y-99138197D01*
X160449505Y-99214067D01*
X160453447Y-99301474D01*
X160448546Y-99396628D01*
X160434776Y-99477757D01*
X160413260Y-99546822D01*
X160384725Y-99605538D01*
X160349460Y-99655321D01*
X160305386Y-99698716D01*
X160254838Y-99732544D01*
X160196898Y-99757290D01*
X160130236Y-99772789D01*
X160053194Y-99778236D01*
X159976950Y-99773123D01*
X159909952Y-99758493D01*
X159850803Y-99735036D01*
X159798362Y-99702922D01*
X159751798Y-99661793D01*
X159713046Y-99613645D01*
X159682418Y-99558752D01*
X159659812Y-99496137D01*
X159645599Y-99424535D01*
X159641810Y-99362229D01*
X159793014Y-99362229D01*
X159797450Y-99408307D01*
X159809997Y-99446747D01*
X159830200Y-99479099D01*
X159858170Y-99503979D01*
X159896785Y-99521329D01*
X159949330Y-99530268D01*
X159949330Y-99211287D01*
X159898695Y-99217120D01*
X159860630Y-99230249D01*
X159832276Y-99249572D01*
X159811476Y-99276279D01*
X159798013Y-99312767D01*
X159793014Y-99362229D01*
X159641810Y-99362229D01*
X159640607Y-99342445D01*
X159647466Y-99248438D01*
X159666441Y-99172286D01*
X159695894Y-99110675D01*
X159735312Y-99061017D01*
X159785214Y-99021406D01*
X159845697Y-98992110D01*
X159918940Y-98973432D01*
X160007765Y-98966739D01*
X160093921Y-98966739D01*
X160093921Y-99529596D01*
G37*
G36*
X160188016Y-98126421D02*
G01*
X160244743Y-98133071D01*
X160294738Y-98152490D01*
X160339664Y-98185118D01*
X160380418Y-98232972D01*
X160410591Y-98287129D01*
X160433433Y-98352358D01*
X160448161Y-98430727D01*
X160453447Y-98524659D01*
X160448475Y-98624512D01*
X160434457Y-98710467D01*
X160413259Y-98789353D01*
X160392386Y-98844373D01*
X160191618Y-98844373D01*
X160191618Y-98821842D01*
X160218302Y-98779160D01*
X160249443Y-98710467D01*
X160274844Y-98623761D01*
X160282696Y-98574219D01*
X160285408Y-98519897D01*
X160280912Y-98452374D01*
X160270143Y-98412674D01*
X160257543Y-98392399D01*
X160242761Y-98381435D01*
X160225019Y-98377808D01*
X160200315Y-98383158D01*
X160184230Y-98398325D01*
X160173177Y-98423710D01*
X160159867Y-98476177D01*
X160146495Y-98550305D01*
X160128970Y-98635362D01*
X160105725Y-98702592D01*
X160077073Y-98753209D01*
X160043607Y-98790396D01*
X160002451Y-98818147D01*
X159954898Y-98835058D01*
X159899199Y-98840954D01*
X159846667Y-98834579D01*
X159799204Y-98815740D01*
X159755363Y-98783673D01*
X159714368Y-98736113D01*
X159683822Y-98682698D01*
X159660764Y-98618533D01*
X159645926Y-98541608D01*
X159640607Y-98449555D01*
X159645055Y-98364626D01*
X159658131Y-98284569D01*
X159677476Y-98210312D01*
X159695561Y-98161287D01*
X159890711Y-98161287D01*
X159890711Y-98182475D01*
X159858130Y-98240084D01*
X159831482Y-98307161D01*
X159814320Y-98377798D01*
X159808646Y-98448883D01*
X159812861Y-98505631D01*
X159824216Y-98548961D01*
X159837320Y-98573200D01*
X159851830Y-98585631D01*
X159868363Y-98589567D01*
X159892967Y-98584760D01*
X159910190Y-98571127D01*
X159922589Y-98546026D01*
X159939010Y-98484359D01*
X159953787Y-98403454D01*
X159971922Y-98316320D01*
X159993556Y-98253970D01*
X160020380Y-98207159D01*
X160051851Y-98172889D01*
X160090471Y-98147438D01*
X160135307Y-98131865D01*
X160188016Y-98126421D01*
G37*
G36*
X160430000Y-97716826D02*
G01*
X160430000Y-97962718D01*
X159664054Y-97962718D01*
X159664054Y-97716826D01*
X160430000Y-97716826D01*
G37*
G36*
X159554633Y-97709987D02*
G01*
X159554633Y-97969556D01*
X159367055Y-97969556D01*
X159367055Y-97709987D01*
X159554633Y-97709987D01*
G37*
G36*
X160413965Y-96742795D02*
G01*
X160473892Y-96753375D01*
X160523972Y-96769774D01*
X160570646Y-96793668D01*
X160608726Y-96822326D01*
X160639316Y-96855809D01*
X160664393Y-96894305D01*
X160684805Y-96938572D01*
X160700376Y-96989410D01*
X160714233Y-97070366D01*
X160719183Y-97165997D01*
X160716758Y-97245543D01*
X160709535Y-97323473D01*
X160698409Y-97398278D01*
X160686088Y-97457684D01*
X160492526Y-97457684D01*
X160492526Y-97427643D01*
X160508742Y-97379851D01*
X160524766Y-97317672D01*
X160536005Y-97254183D01*
X160539420Y-97201535D01*
X160535908Y-97136487D01*
X160526842Y-97090526D01*
X160510886Y-97051479D01*
X160491182Y-97025252D01*
X160466902Y-97007271D01*
X160435434Y-96994539D01*
X160399688Y-96987541D01*
X160353979Y-96984952D01*
X160339691Y-96984952D01*
X160372102Y-97031668D01*
X160397088Y-97083321D01*
X160412803Y-97139377D01*
X160418276Y-97203550D01*
X160411558Y-97283274D01*
X160392656Y-97349742D01*
X160362602Y-97405443D01*
X160321250Y-97452189D01*
X160270880Y-97488001D01*
X160207025Y-97515281D01*
X160126650Y-97533118D01*
X160026022Y-97539628D01*
X159963030Y-97536402D01*
X159908755Y-97527299D01*
X159862013Y-97513005D01*
X159797098Y-97480657D01*
X159741723Y-97437840D01*
X159699571Y-97388094D01*
X159667290Y-97326831D01*
X159647228Y-97259873D01*
X159640607Y-97191887D01*
X159644436Y-97131409D01*
X159652552Y-97092236D01*
X159820369Y-97092236D01*
X159827275Y-97154431D01*
X159846220Y-97201745D01*
X159876240Y-97237744D01*
X159916133Y-97263642D01*
X159967053Y-97280203D01*
X160032067Y-97286226D01*
X160105287Y-97280512D01*
X160154682Y-97265893D01*
X160186856Y-97244888D01*
X160210302Y-97214566D01*
X160225234Y-97174680D01*
X160230697Y-97122278D01*
X160227806Y-97085792D01*
X160219096Y-97049860D01*
X160205422Y-97015616D01*
X160188199Y-96984952D01*
X159839542Y-96984952D01*
X159825498Y-97036915D01*
X159820369Y-97092236D01*
X159652552Y-97092236D01*
X159655322Y-97078864D01*
X159673005Y-97029830D01*
X159695989Y-96986296D01*
X159664054Y-96977442D01*
X159664054Y-96739000D01*
X160342438Y-96739000D01*
X160413965Y-96742795D01*
G37*
G36*
X160430000Y-95735528D02*
G01*
X160430000Y-95982763D01*
X160049164Y-95982763D01*
X159956474Y-95987587D01*
X159913604Y-95994751D01*
X159888452Y-96003951D01*
X159866594Y-96020787D01*
X159851571Y-96043946D01*
X159843221Y-96073031D01*
X159839909Y-96117341D01*
X159842591Y-96150791D01*
X159850839Y-96185362D01*
X159864429Y-96220038D01*
X159885704Y-96260162D01*
X160430000Y-96260162D01*
X160430000Y-96506053D01*
X159664054Y-96506053D01*
X159664054Y-96260162D01*
X159746608Y-96260162D01*
X159700140Y-96193997D01*
X159667962Y-96134132D01*
X159647625Y-96071228D01*
X159640607Y-95999921D01*
X159645618Y-95938297D01*
X159659754Y-95886477D01*
X159682249Y-95842675D01*
X159713147Y-95805565D01*
X159751131Y-95776545D01*
X159798480Y-95754742D01*
X159857235Y-95740638D01*
X159929973Y-95735528D01*
X160430000Y-95735528D01*
G37*
G36*
X160093921Y-95316896D02*
G01*
X160151444Y-95306340D01*
X160197018Y-95283479D01*
X160233262Y-95248264D01*
X160258477Y-95203474D01*
X160275237Y-95142951D01*
X160281500Y-95062090D01*
X160274370Y-94985501D01*
X160252923Y-94911147D01*
X160221753Y-94842830D01*
X160191618Y-94795682D01*
X160191618Y-94768387D01*
X160389699Y-94768387D01*
X160419218Y-94851154D01*
X160438365Y-94925497D01*
X160449505Y-95001367D01*
X160453447Y-95088773D01*
X160448546Y-95183928D01*
X160434776Y-95265057D01*
X160413260Y-95334122D01*
X160384725Y-95392838D01*
X160349460Y-95442620D01*
X160305386Y-95486016D01*
X160254838Y-95519843D01*
X160196898Y-95544589D01*
X160130236Y-95560088D01*
X160053194Y-95565535D01*
X159976950Y-95560422D01*
X159909952Y-95545792D01*
X159850803Y-95522335D01*
X159798362Y-95490222D01*
X159751798Y-95449092D01*
X159713046Y-95400945D01*
X159682418Y-95346052D01*
X159659812Y-95283436D01*
X159645599Y-95211834D01*
X159641810Y-95149528D01*
X159793014Y-95149528D01*
X159797450Y-95195607D01*
X159809997Y-95234046D01*
X159830200Y-95266399D01*
X159858170Y-95291278D01*
X159896785Y-95308629D01*
X159949330Y-95317568D01*
X159949330Y-94998586D01*
X159898695Y-95004419D01*
X159860630Y-95017548D01*
X159832276Y-95036871D01*
X159811476Y-95063578D01*
X159798013Y-95100066D01*
X159793014Y-95149528D01*
X159641810Y-95149528D01*
X159640607Y-95129745D01*
X159647466Y-95035737D01*
X159666441Y-94959586D01*
X159695894Y-94897974D01*
X159735312Y-94848316D01*
X159785214Y-94808706D01*
X159845697Y-94779409D01*
X159918940Y-94760731D01*
X160007765Y-94754038D01*
X160093921Y-94754038D01*
X160093921Y-95316896D01*
G37*
G36*
X160430000Y-94080416D02*
G01*
X160350071Y-94080416D01*
X160396941Y-94144201D01*
X160427740Y-94199302D01*
X160446741Y-94257528D01*
X160453447Y-94327041D01*
X160446435Y-94394641D01*
X160426202Y-94453363D01*
X160392854Y-94505113D01*
X160345064Y-94551072D01*
X160289304Y-94586253D01*
X160223340Y-94612460D01*
X160145280Y-94629149D01*
X160052827Y-94635092D01*
X159987899Y-94631729D01*
X159930256Y-94622105D01*
X159878988Y-94606760D01*
X159807759Y-94572691D01*
X159748989Y-94529213D01*
X159703460Y-94478067D01*
X159669061Y-94416495D01*
X159647574Y-94349558D01*
X159640607Y-94283993D01*
X159644682Y-94218286D01*
X159651560Y-94187700D01*
X159820369Y-94187700D01*
X159824617Y-94235545D01*
X159836493Y-94274679D01*
X159855313Y-94306832D01*
X159881247Y-94333208D01*
X159924364Y-94358996D01*
X159979536Y-94375622D01*
X160050019Y-94381690D01*
X160125127Y-94376411D01*
X160178155Y-94362690D01*
X160214638Y-94342794D01*
X160242090Y-94313174D01*
X160259469Y-94272712D01*
X160265868Y-94217742D01*
X160262827Y-94184014D01*
X160253168Y-94146728D01*
X160238209Y-94110862D01*
X160219829Y-94080416D01*
X159841008Y-94080416D01*
X159825193Y-94135066D01*
X159820369Y-94187700D01*
X159651560Y-94187700D01*
X159655322Y-94170969D01*
X159692508Y-94080416D01*
X159367055Y-94080416D01*
X159367055Y-93834464D01*
X160430000Y-93834464D01*
X160430000Y-94080416D01*
G37*
G36*
X160125586Y-92329944D02*
G01*
X160203607Y-92349324D01*
X160271669Y-92380418D01*
X160331325Y-92423229D01*
X160381954Y-92477178D01*
X160417170Y-92535940D01*
X160438365Y-92600620D01*
X160445631Y-92672906D01*
X160441913Y-92734976D01*
X160431648Y-92785685D01*
X160414724Y-92832930D01*
X160391714Y-92877887D01*
X160430000Y-92888145D01*
X160430000Y-93123778D01*
X159367055Y-93123778D01*
X159367055Y-92877887D01*
X159741662Y-92877887D01*
X159700407Y-92819840D01*
X159668633Y-92762116D01*
X159658677Y-92735799D01*
X159828185Y-92735799D01*
X159830791Y-92770698D01*
X159838871Y-92807545D01*
X159851803Y-92843507D01*
X159869462Y-92877887D01*
X160257198Y-92877887D01*
X160270265Y-92827329D01*
X160273684Y-92769931D01*
X160269589Y-92721443D01*
X160258205Y-92682153D01*
X160240321Y-92650248D01*
X160215921Y-92624424D01*
X160174631Y-92599406D01*
X160118399Y-92582819D01*
X160042691Y-92576613D01*
X159974442Y-92581153D01*
X159922667Y-92593312D01*
X159883872Y-92611479D01*
X159860484Y-92631185D01*
X159843320Y-92657334D01*
X159832246Y-92691444D01*
X159828185Y-92735799D01*
X159658677Y-92735799D01*
X159653387Y-92721816D01*
X159643907Y-92676645D01*
X159640607Y-92625767D01*
X159647635Y-92554988D01*
X159667610Y-92495458D01*
X159699981Y-92444866D01*
X159745692Y-92401735D01*
X159799491Y-92369138D01*
X159864274Y-92344592D01*
X159942144Y-92328810D01*
X160035608Y-92323150D01*
X160125586Y-92329944D01*
G37*
G36*
X160160233Y-91798517D02*
G01*
X159664054Y-91623639D01*
X159664054Y-91370908D01*
X160711367Y-91797173D01*
X160711367Y-92063581D01*
X160426092Y-91941948D01*
X159664054Y-92240474D01*
X159664054Y-91982248D01*
X160160233Y-91798517D01*
G37*
G36*
X160015850Y-89789268D02*
G01*
X160100061Y-89811008D01*
X160177208Y-89846711D01*
X160247548Y-89894842D01*
X160304486Y-89949380D01*
X160349460Y-90010659D01*
X160387546Y-90088295D01*
X160412292Y-90173935D01*
X160425220Y-90266823D01*
X160430000Y-90384289D01*
X160430000Y-90742899D01*
X159413949Y-90742899D01*
X159413949Y-90414331D01*
X159605436Y-90414331D01*
X159605436Y-90480582D01*
X160238513Y-90480582D01*
X160238513Y-90414331D01*
X160235982Y-90326971D01*
X160230026Y-90277006D01*
X160218170Y-90234115D01*
X160199129Y-90191643D01*
X160168319Y-90147402D01*
X160132123Y-90112677D01*
X160090075Y-90086435D01*
X160043385Y-90068534D01*
X159987699Y-90057072D01*
X159921303Y-90052974D01*
X159855559Y-90057369D01*
X159799118Y-90069814D01*
X159750516Y-90089549D01*
X159707183Y-90118161D01*
X159670286Y-90156304D01*
X159639385Y-90205321D01*
X159622771Y-90246301D01*
X159612580Y-90287630D01*
X159607539Y-90334997D01*
X159605436Y-90414331D01*
X159413949Y-90414331D01*
X159413949Y-90374031D01*
X159419570Y-90254076D01*
X159434771Y-90159586D01*
X159460869Y-90074172D01*
X159493756Y-90007911D01*
X159541542Y-89942704D01*
X159598930Y-89887733D01*
X159666802Y-89842254D01*
X159741539Y-89809368D01*
X159826291Y-89788938D01*
X159923012Y-89781803D01*
X160015850Y-89789268D01*
G37*
G36*
X160430000Y-89130469D02*
G01*
X160348728Y-89130469D01*
X160384937Y-89179684D01*
X160418398Y-89235005D01*
X160433467Y-89271908D01*
X160444471Y-89310170D01*
X160451115Y-89350134D01*
X160453447Y-89395533D01*
X160448980Y-89449217D01*
X160436066Y-89496950D01*
X160414989Y-89539808D01*
X160385425Y-89578593D01*
X160349034Y-89610880D01*
X160308564Y-89633661D01*
X160263175Y-89647549D01*
X160211646Y-89652355D01*
X160156414Y-89647778D01*
X160111022Y-89634987D01*
X160073588Y-89614802D01*
X160041024Y-89586918D01*
X160012885Y-89551737D01*
X159989080Y-89508190D01*
X159963539Y-89435132D01*
X159945116Y-89338808D01*
X159933856Y-89236698D01*
X159925986Y-89130469D01*
X160070474Y-89130469D01*
X160081770Y-89238424D01*
X160090226Y-89292815D01*
X160098562Y-89326474D01*
X160113418Y-89359963D01*
X160132451Y-89382833D01*
X160157418Y-89397181D01*
X160190947Y-89402311D01*
X160229965Y-89398220D01*
X160244111Y-89391457D01*
X160258724Y-89377704D01*
X160270502Y-89360680D01*
X160278935Y-89340151D01*
X160283480Y-89315213D01*
X160285408Y-89271824D01*
X160281743Y-89235154D01*
X160270387Y-89197086D01*
X160252726Y-89161167D01*
X160230636Y-89130469D01*
X160070474Y-89130469D01*
X159925986Y-89130469D01*
X159925882Y-89129064D01*
X159921730Y-89129064D01*
X159882263Y-89135223D01*
X159853657Y-89152317D01*
X159833131Y-89180966D01*
X159820625Y-89216607D01*
X159811952Y-89266320D01*
X159808646Y-89333984D01*
X159813802Y-89395430D01*
X159830200Y-89463799D01*
X159863356Y-89562840D01*
X159863356Y-89585371D01*
X159678770Y-89585371D01*
X159654590Y-89458670D01*
X159644095Y-89370694D01*
X159640607Y-89282754D01*
X159645754Y-89173661D01*
X159659525Y-89089915D01*
X159679826Y-89026694D01*
X159705209Y-88979832D01*
X159741067Y-88939895D01*
X159785445Y-88911160D01*
X159840116Y-88893074D01*
X159907808Y-88886592D01*
X160430000Y-88886592D01*
X160430000Y-89130469D01*
G37*
G36*
X160430000Y-88159970D02*
G01*
X160350071Y-88159970D01*
X160396941Y-88223754D01*
X160427740Y-88278855D01*
X160446741Y-88337082D01*
X160453447Y-88406594D01*
X160446435Y-88474194D01*
X160426202Y-88532917D01*
X160392854Y-88584666D01*
X160345064Y-88630626D01*
X160289304Y-88665807D01*
X160223340Y-88692013D01*
X160145280Y-88708703D01*
X160052827Y-88714645D01*
X159987899Y-88711282D01*
X159930256Y-88701658D01*
X159878988Y-88686313D01*
X159807759Y-88652245D01*
X159748989Y-88608766D01*
X159703460Y-88557621D01*
X159669061Y-88496048D01*
X159647574Y-88429111D01*
X159640607Y-88363546D01*
X159644682Y-88297839D01*
X159651560Y-88267254D01*
X159820369Y-88267254D01*
X159824617Y-88315099D01*
X159836493Y-88354233D01*
X159855313Y-88386385D01*
X159881247Y-88412761D01*
X159924364Y-88438549D01*
X159979536Y-88455176D01*
X160050019Y-88461243D01*
X160125127Y-88455965D01*
X160178155Y-88442243D01*
X160214638Y-88422348D01*
X160242090Y-88392727D01*
X160259469Y-88352265D01*
X160265868Y-88297295D01*
X160262827Y-88263568D01*
X160253168Y-88226282D01*
X160238209Y-88190416D01*
X160219829Y-88159970D01*
X159841008Y-88159970D01*
X159825193Y-88214619D01*
X159820369Y-88267254D01*
X159651560Y-88267254D01*
X159655322Y-88250523D01*
X159692508Y-88159970D01*
X159367055Y-88159970D01*
X159367055Y-87914017D01*
X160430000Y-87914017D01*
X160430000Y-88159970D01*
G37*
G36*
X160430000Y-87216582D02*
G01*
X160348728Y-87216582D01*
X160384937Y-87265797D01*
X160418398Y-87321118D01*
X160433467Y-87358021D01*
X160444471Y-87396284D01*
X160451115Y-87436247D01*
X160453447Y-87481646D01*
X160448980Y-87535330D01*
X160436066Y-87583063D01*
X160414989Y-87625921D01*
X160385425Y-87664706D01*
X160349034Y-87696993D01*
X160308564Y-87719774D01*
X160263175Y-87733662D01*
X160211646Y-87738468D01*
X160156414Y-87733891D01*
X160111022Y-87721100D01*
X160073588Y-87700915D01*
X160041024Y-87673031D01*
X160012885Y-87637850D01*
X159989080Y-87594303D01*
X159963539Y-87521245D01*
X159945116Y-87424921D01*
X159933856Y-87322811D01*
X159925986Y-87216582D01*
X160070474Y-87216582D01*
X160081770Y-87324537D01*
X160090226Y-87378928D01*
X160098562Y-87412587D01*
X160113418Y-87446077D01*
X160132451Y-87468946D01*
X160157418Y-87483294D01*
X160190947Y-87488424D01*
X160229965Y-87484333D01*
X160244111Y-87477570D01*
X160258724Y-87463817D01*
X160270502Y-87446793D01*
X160278935Y-87426264D01*
X160283480Y-87401326D01*
X160285408Y-87357937D01*
X160281743Y-87321267D01*
X160270387Y-87283199D01*
X160252726Y-87247280D01*
X160230636Y-87216582D01*
X160070474Y-87216582D01*
X159925986Y-87216582D01*
X159925882Y-87215177D01*
X159921730Y-87215177D01*
X159882263Y-87221336D01*
X159853657Y-87238430D01*
X159833131Y-87267079D01*
X159820625Y-87302720D01*
X159811952Y-87352433D01*
X159808646Y-87420097D01*
X159813802Y-87481543D01*
X159830200Y-87549912D01*
X159863356Y-87648953D01*
X159863356Y-87671484D01*
X159678770Y-87671484D01*
X159654590Y-87544783D01*
X159644095Y-87456807D01*
X159640607Y-87368867D01*
X159645754Y-87259774D01*
X159659525Y-87176028D01*
X159679826Y-87112807D01*
X159705209Y-87065945D01*
X159741067Y-87026008D01*
X159785445Y-86997273D01*
X159840116Y-86979187D01*
X159907808Y-86972705D01*
X160430000Y-86972705D01*
X160430000Y-87216582D01*
G37*
X142876015Y-93079803D02*
X142876015Y-93660375D01*
X142876015Y-93660375D02*
X142837310Y-93776489D01*
X142837310Y-93776489D02*
X142759901Y-93853899D01*
X142759901Y-93853899D02*
X142643786Y-93892603D01*
X142643786Y-93892603D02*
X142566377Y-93892603D01*
X143650110Y-93892603D02*
X143263062Y-93892603D01*
X143263062Y-93892603D02*
X143263062Y-93079803D01*
X144385500Y-93815194D02*
X144346796Y-93853899D01*
X144346796Y-93853899D02*
X144230681Y-93892603D01*
X144230681Y-93892603D02*
X144153272Y-93892603D01*
X144153272Y-93892603D02*
X144037158Y-93853899D01*
X144037158Y-93853899D02*
X143959748Y-93776489D01*
X143959748Y-93776489D02*
X143921043Y-93699079D01*
X143921043Y-93699079D02*
X143882339Y-93544260D01*
X143882339Y-93544260D02*
X143882339Y-93428146D01*
X143882339Y-93428146D02*
X143921043Y-93273327D01*
X143921043Y-93273327D02*
X143959748Y-93195918D01*
X143959748Y-93195918D02*
X144037158Y-93118508D01*
X144037158Y-93118508D02*
X144153272Y-93079803D01*
X144153272Y-93079803D02*
X144230681Y-93079803D01*
X144230681Y-93079803D02*
X144346796Y-93118508D01*
X144346796Y-93118508D02*
X144385500Y-93157213D01*
X144966072Y-93079803D02*
X144966072Y-93660375D01*
X144966072Y-93660375D02*
X144927367Y-93776489D01*
X144927367Y-93776489D02*
X144849958Y-93853899D01*
X144849958Y-93853899D02*
X144733843Y-93892603D01*
X144733843Y-93892603D02*
X144656434Y-93892603D01*
X145740167Y-93892603D02*
X145353119Y-93892603D01*
X145353119Y-93892603D02*
X145353119Y-93079803D01*
X146475557Y-93815194D02*
X146436853Y-93853899D01*
X146436853Y-93853899D02*
X146320738Y-93892603D01*
X146320738Y-93892603D02*
X146243329Y-93892603D01*
X146243329Y-93892603D02*
X146127215Y-93853899D01*
X146127215Y-93853899D02*
X146049805Y-93776489D01*
X146049805Y-93776489D02*
X146011100Y-93699079D01*
X146011100Y-93699079D02*
X145972396Y-93544260D01*
X145972396Y-93544260D02*
X145972396Y-93428146D01*
X145972396Y-93428146D02*
X146011100Y-93273327D01*
X146011100Y-93273327D02*
X146049805Y-93195918D01*
X146049805Y-93195918D02*
X146127215Y-93118508D01*
X146127215Y-93118508D02*
X146243329Y-93079803D01*
X146243329Y-93079803D02*
X146320738Y-93079803D01*
X146320738Y-93079803D02*
X146436853Y-93118508D01*
X146436853Y-93118508D02*
X146475557Y-93157213D01*
X147056129Y-93079803D02*
X147056129Y-93660375D01*
X147056129Y-93660375D02*
X147017424Y-93776489D01*
X147017424Y-93776489D02*
X146940015Y-93853899D01*
X146940015Y-93853899D02*
X146823900Y-93892603D01*
X146823900Y-93892603D02*
X146746491Y-93892603D01*
X147830224Y-93892603D02*
X147443176Y-93892603D01*
X147443176Y-93892603D02*
X147443176Y-93079803D01*
X148565614Y-93815194D02*
X148526910Y-93853899D01*
X148526910Y-93853899D02*
X148410795Y-93892603D01*
X148410795Y-93892603D02*
X148333386Y-93892603D01*
X148333386Y-93892603D02*
X148217272Y-93853899D01*
X148217272Y-93853899D02*
X148139862Y-93776489D01*
X148139862Y-93776489D02*
X148101157Y-93699079D01*
X148101157Y-93699079D02*
X148062453Y-93544260D01*
X148062453Y-93544260D02*
X148062453Y-93428146D01*
X148062453Y-93428146D02*
X148101157Y-93273327D01*
X148101157Y-93273327D02*
X148139862Y-93195918D01*
X148139862Y-93195918D02*
X148217272Y-93118508D01*
X148217272Y-93118508D02*
X148333386Y-93079803D01*
X148333386Y-93079803D02*
X148410795Y-93079803D01*
X148410795Y-93079803D02*
X148526910Y-93118508D01*
X148526910Y-93118508D02*
X148565614Y-93157213D01*
X149146186Y-93079803D02*
X149146186Y-93660375D01*
X149146186Y-93660375D02*
X149107481Y-93776489D01*
X149107481Y-93776489D02*
X149030072Y-93853899D01*
X149030072Y-93853899D02*
X148913957Y-93892603D01*
X148913957Y-93892603D02*
X148836548Y-93892603D01*
X149920281Y-93892603D02*
X149533233Y-93892603D01*
X149533233Y-93892603D02*
X149533233Y-93079803D01*
X150655671Y-93815194D02*
X150616967Y-93853899D01*
X150616967Y-93853899D02*
X150500852Y-93892603D01*
X150500852Y-93892603D02*
X150423443Y-93892603D01*
X150423443Y-93892603D02*
X150307329Y-93853899D01*
X150307329Y-93853899D02*
X150229919Y-93776489D01*
X150229919Y-93776489D02*
X150191214Y-93699079D01*
X150191214Y-93699079D02*
X150152510Y-93544260D01*
X150152510Y-93544260D02*
X150152510Y-93428146D01*
X150152510Y-93428146D02*
X150191214Y-93273327D01*
X150191214Y-93273327D02*
X150229919Y-93195918D01*
X150229919Y-93195918D02*
X150307329Y-93118508D01*
X150307329Y-93118508D02*
X150423443Y-93079803D01*
X150423443Y-93079803D02*
X150500852Y-93079803D01*
X150500852Y-93079803D02*
X150616967Y-93118508D01*
X150616967Y-93118508D02*
X150655671Y-93157213D01*
G36*
X161149374Y-100482436D02*
G01*
X161890163Y-100482436D01*
X161890163Y-100027045D01*
X161149374Y-100027045D01*
X161149374Y-99703820D01*
X162845000Y-99703820D01*
X162845000Y-100027045D01*
X162097891Y-100027045D01*
X162097891Y-100482436D01*
X162845000Y-100482436D01*
X162845000Y-100813995D01*
X161149374Y-100813995D01*
X161149374Y-100482436D01*
G37*
G36*
X162523072Y-98408157D02*
G01*
X162612083Y-98422644D01*
X162690033Y-98449326D01*
X162747455Y-98485567D01*
X162791560Y-98534089D01*
X162821919Y-98594744D01*
X162838844Y-98664263D01*
X162845000Y-98750998D01*
X162845000Y-99200161D01*
X162838792Y-99290764D01*
X162821919Y-99361728D01*
X162791448Y-99423026D01*
X162747455Y-99470812D01*
X162690107Y-99505999D01*
X162612083Y-99531721D01*
X162523103Y-99545407D01*
X162404263Y-99550588D01*
X161938431Y-99550588D01*
X161821457Y-99545428D01*
X161732809Y-99531721D01*
X161654721Y-99505990D01*
X161597438Y-99470812D01*
X161553371Y-99423019D01*
X161522882Y-99361728D01*
X161506009Y-99290764D01*
X161499801Y-99200161D01*
X161499801Y-98862281D01*
X161711835Y-98862281D01*
X161711835Y-99093091D01*
X161718286Y-99137466D01*
X161736055Y-99169663D01*
X161765324Y-99192834D01*
X161827635Y-99212719D01*
X161938431Y-99221135D01*
X162400142Y-99221135D01*
X162516734Y-99212683D01*
X162581675Y-99192834D01*
X162612244Y-99169496D01*
X162630632Y-99137272D01*
X162637271Y-99093091D01*
X162637271Y-98862281D01*
X162630537Y-98816743D01*
X162612079Y-98784305D01*
X162581675Y-98761531D01*
X162517286Y-98742337D01*
X162404263Y-98734237D01*
X161938431Y-98734237D01*
X161827562Y-98742367D01*
X161765324Y-98761531D01*
X161736217Y-98784136D01*
X161718379Y-98816542D01*
X161711835Y-98862281D01*
X161499801Y-98862281D01*
X161499801Y-98750998D01*
X161505980Y-98664387D01*
X161522882Y-98595751D01*
X161553190Y-98536031D01*
X161597438Y-98487674D01*
X161654766Y-98451198D01*
X161732809Y-98423652D01*
X161821526Y-98408407D01*
X161938431Y-98402677D01*
X162404263Y-98402677D01*
X162523072Y-98408157D01*
G37*
G36*
X161071705Y-97535951D02*
G01*
X162637271Y-97535951D01*
X162637271Y-97162351D01*
X162845000Y-97162351D01*
X162845000Y-98226365D01*
X162637271Y-98226365D01*
X162637271Y-97861191D01*
X161283647Y-97861191D01*
X161283647Y-98226365D01*
X161071705Y-98226365D01*
X161071705Y-97535951D01*
G37*
G36*
X162523072Y-95843607D02*
G01*
X162612083Y-95858094D01*
X162690033Y-95884776D01*
X162747455Y-95921017D01*
X162791560Y-95969540D01*
X162821919Y-96030194D01*
X162838844Y-96099713D01*
X162845000Y-96186448D01*
X162845000Y-96635611D01*
X162838792Y-96726214D01*
X162821919Y-96797178D01*
X162791448Y-96858476D01*
X162747455Y-96906263D01*
X162690107Y-96941449D01*
X162612083Y-96967171D01*
X162523103Y-96980857D01*
X162404263Y-96986038D01*
X161938431Y-96986038D01*
X161821457Y-96980878D01*
X161732809Y-96967171D01*
X161654721Y-96941441D01*
X161597438Y-96906263D01*
X161553371Y-96858469D01*
X161522882Y-96797178D01*
X161506009Y-96726214D01*
X161499801Y-96635611D01*
X161499801Y-96297732D01*
X161711835Y-96297732D01*
X161711835Y-96528541D01*
X161718286Y-96572916D01*
X161736055Y-96605113D01*
X161765324Y-96628284D01*
X161827635Y-96648169D01*
X161938431Y-96656585D01*
X162400142Y-96656585D01*
X162516734Y-96648133D01*
X162581675Y-96628284D01*
X162612244Y-96604947D01*
X162630632Y-96572722D01*
X162637271Y-96528541D01*
X162637271Y-96297732D01*
X162630537Y-96252193D01*
X162612079Y-96219755D01*
X162581675Y-96196981D01*
X162517286Y-96177787D01*
X162404263Y-96169687D01*
X161938431Y-96169687D01*
X161827562Y-96177817D01*
X161765324Y-96196981D01*
X161736217Y-96219586D01*
X161718379Y-96251992D01*
X161711835Y-96297732D01*
X161499801Y-96297732D01*
X161499801Y-96186448D01*
X161505980Y-96099837D01*
X161522882Y-96031202D01*
X161553190Y-95971481D01*
X161597438Y-95923124D01*
X161654766Y-95886648D01*
X161732809Y-95859102D01*
X161821526Y-95843857D01*
X161938431Y-95838128D01*
X162404263Y-95838128D01*
X162523072Y-95843607D01*
G37*
G36*
X162469238Y-94580669D02*
G01*
X162557495Y-94597801D01*
X162639341Y-94626466D01*
X162707521Y-94663930D01*
X162765304Y-94711766D01*
X162808271Y-94766787D01*
X162835714Y-94829632D01*
X162845000Y-94900052D01*
X162845000Y-95684896D01*
X161149374Y-95684896D01*
X161149374Y-95063725D01*
X161361316Y-95063725D01*
X161361316Y-95359564D01*
X161877615Y-95359564D01*
X161877615Y-95063725D01*
X161872831Y-95036431D01*
X162089556Y-95036431D01*
X162089556Y-95359564D01*
X162637271Y-95359564D01*
X162637271Y-95036431D01*
X162629366Y-94995993D01*
X162605222Y-94960526D01*
X162560701Y-94928353D01*
X162507974Y-94906700D01*
X162442106Y-94892561D01*
X162360208Y-94887412D01*
X162254329Y-94897945D01*
X162207091Y-94911134D01*
X162168233Y-94928353D01*
X162134744Y-94950658D01*
X162110531Y-94975523D01*
X162094769Y-95004488D01*
X162089556Y-95036431D01*
X161872831Y-95036431D01*
X161869006Y-95014609D01*
X161844114Y-94976392D01*
X161800318Y-94946342D01*
X161730364Y-94925175D01*
X161623633Y-94916813D01*
X161539933Y-94921782D01*
X161476659Y-94935034D01*
X161429551Y-94954640D01*
X161390817Y-94984429D01*
X161368819Y-95020101D01*
X161361316Y-95063725D01*
X161149374Y-95063725D01*
X161149374Y-94929361D01*
X161158422Y-94858880D01*
X161185095Y-94796096D01*
X161227019Y-94741076D01*
X161283738Y-94693331D01*
X161350853Y-94655870D01*
X161431658Y-94627202D01*
X161518779Y-94610054D01*
X161615298Y-94604121D01*
X161731989Y-94613082D01*
X161825133Y-94637735D01*
X161880401Y-94664911D01*
X161927662Y-94701066D01*
X161967832Y-94746820D01*
X161995488Y-94711604D01*
X162036067Y-94677577D01*
X162083055Y-94648427D01*
X162135718Y-94622989D01*
X162191607Y-94602683D01*
X162252131Y-94587360D01*
X162313546Y-94577795D01*
X162370741Y-94574720D01*
X162469238Y-94580669D01*
G37*
G36*
X162523072Y-93279057D02*
G01*
X162612083Y-93293545D01*
X162690033Y-93320226D01*
X162747455Y-93356468D01*
X162791560Y-93404990D01*
X162821919Y-93465644D01*
X162838844Y-93535164D01*
X162845000Y-93621898D01*
X162845000Y-94071061D01*
X162838792Y-94161664D01*
X162821919Y-94232628D01*
X162791448Y-94293926D01*
X162747455Y-94341713D01*
X162690107Y-94376900D01*
X162612083Y-94402621D01*
X162523103Y-94416307D01*
X162404263Y-94421489D01*
X161938431Y-94421489D01*
X161821457Y-94416328D01*
X161732809Y-94402621D01*
X161654721Y-94376891D01*
X161597438Y-94341713D01*
X161553371Y-94293919D01*
X161522882Y-94232628D01*
X161506009Y-94161664D01*
X161499801Y-94071061D01*
X161499801Y-93733182D01*
X161711835Y-93733182D01*
X161711835Y-93963991D01*
X161718286Y-94008366D01*
X161736055Y-94040564D01*
X161765324Y-94063734D01*
X161827635Y-94083619D01*
X161938431Y-94092035D01*
X162400142Y-94092035D01*
X162516734Y-94083583D01*
X162581675Y-94063734D01*
X162612244Y-94040397D01*
X162630632Y-94008172D01*
X162637271Y-93963991D01*
X162637271Y-93733182D01*
X162630537Y-93687644D01*
X162612079Y-93655205D01*
X162581675Y-93632431D01*
X162517286Y-93613237D01*
X162404263Y-93605137D01*
X161938431Y-93605137D01*
X161827562Y-93613267D01*
X161765324Y-93632431D01*
X161736217Y-93655036D01*
X161718379Y-93687442D01*
X161711835Y-93733182D01*
X161499801Y-93733182D01*
X161499801Y-93621898D01*
X161505980Y-93535288D01*
X161522882Y-93466652D01*
X161553190Y-93406931D01*
X161597438Y-93358574D01*
X161654766Y-93322098D01*
X161732809Y-93294552D01*
X161821526Y-93279307D01*
X161938431Y-93273578D01*
X162404263Y-93273578D01*
X162523072Y-93279057D01*
G37*
G36*
X162845000Y-92822308D02*
G01*
X162837051Y-92886952D01*
X162813584Y-92945132D01*
X162776466Y-92996607D01*
X162726481Y-93041669D01*
X162666747Y-93077264D01*
X162594223Y-93104592D01*
X162515529Y-93120907D01*
X162427436Y-93126574D01*
X162340980Y-93120957D01*
X162261656Y-93104592D01*
X162187866Y-93077305D01*
X162126284Y-93041669D01*
X162074360Y-92996507D01*
X162036067Y-92945132D01*
X162011692Y-92886882D01*
X162003461Y-92822308D01*
X162003461Y-92593606D01*
X162209174Y-92593606D01*
X162212099Y-92655730D01*
X162219707Y-92700584D01*
X162234103Y-92739073D01*
X162254329Y-92766713D01*
X162281329Y-92786875D01*
X162316244Y-92800327D01*
X162356118Y-92807187D01*
X162408476Y-92809760D01*
X162530840Y-92801269D01*
X162596818Y-92781554D01*
X162627902Y-92756324D01*
X162637271Y-92725771D01*
X162637271Y-92331289D01*
X162209174Y-92331289D01*
X162209174Y-92593606D01*
X162003461Y-92593606D01*
X162003461Y-92329182D01*
X161888056Y-92329182D01*
X161792831Y-92337934D01*
X161747555Y-92357484D01*
X161728803Y-92379038D01*
X161716495Y-92410387D01*
X161711835Y-92455120D01*
X161711835Y-92956581D01*
X161499801Y-92956581D01*
X161499801Y-92354370D01*
X161504976Y-92261803D01*
X161518761Y-92191704D01*
X161545076Y-92131052D01*
X161584890Y-92083627D01*
X161638230Y-92048521D01*
X161712842Y-92022810D01*
X161798763Y-92009082D01*
X161915350Y-92003851D01*
X162845000Y-92003851D01*
X162845000Y-92822308D01*
G37*
G36*
X161711835Y-90776164D02*
G01*
X161711835Y-91267275D01*
X161719162Y-91366926D01*
X161731299Y-91402211D01*
X161751677Y-91427834D01*
X161780964Y-91445371D01*
X161826232Y-91457144D01*
X161959405Y-91464471D01*
X162845000Y-91464471D01*
X162845000Y-91789802D01*
X161909030Y-91789802D01*
X161800489Y-91781372D01*
X161715130Y-91758308D01*
X161648255Y-91722811D01*
X161596338Y-91675405D01*
X161556802Y-91616401D01*
X161526657Y-91542229D01*
X161506970Y-91449572D01*
X161499801Y-91334412D01*
X161499801Y-90776164D01*
X161711835Y-90776164D01*
G37*
G36*
X162845000Y-90192729D02*
G01*
X162838003Y-90281158D01*
X162818804Y-90351181D01*
X162784897Y-90411273D01*
X162735915Y-90459259D01*
X162673510Y-90494676D01*
X162590010Y-90521174D01*
X162496180Y-90535651D01*
X162374954Y-90541050D01*
X161969938Y-90541050D01*
X161848632Y-90535650D01*
X161754791Y-90521174D01*
X161671305Y-90494671D01*
X161608978Y-90459259D01*
X161559942Y-90411263D01*
X161526088Y-90351181D01*
X161506821Y-90281153D01*
X161499801Y-90192729D01*
X161499801Y-90089872D01*
X161711835Y-90089872D01*
X161714370Y-90124078D01*
X161721269Y-90150780D01*
X161734621Y-90173269D01*
X161756989Y-90191721D01*
X161785894Y-90204737D01*
X161827240Y-90214802D01*
X161940538Y-90222130D01*
X162259549Y-90222130D01*
X162378960Y-90219147D01*
X162459951Y-90211597D01*
X162529192Y-90196029D01*
X162574348Y-90174869D01*
X162607121Y-90143672D01*
X162625730Y-90102512D01*
X162634069Y-90053179D01*
X162637271Y-89985000D01*
X162637271Y-89783500D01*
X161711835Y-89783500D01*
X161711835Y-90089872D01*
X161499801Y-90089872D01*
X161499801Y-89783500D01*
X161071705Y-89783500D01*
X161071705Y-89458260D01*
X162845000Y-89458260D01*
X162845000Y-90192729D01*
G37*
G36*
X161149374Y-87686889D02*
G01*
X162505013Y-87456079D01*
X162505013Y-87422465D01*
X161149374Y-87160149D01*
X161149374Y-86862203D01*
X162845000Y-87252564D01*
X162845000Y-87651260D01*
X161149374Y-88010114D01*
X161149374Y-87686889D01*
G37*
G36*
X161149374Y-85978624D02*
G01*
X162637271Y-85978624D01*
X162637271Y-85619770D01*
X162845000Y-85619770D01*
X162845000Y-86690012D01*
X162637271Y-86690012D01*
X162637271Y-86301849D01*
X161365529Y-86301849D01*
X161365529Y-86551526D01*
X161149374Y-86551526D01*
X161149374Y-85978624D01*
G37*
D11*
X123333333Y-87304819D02*
X123000000Y-86828628D01*
X122761905Y-87304819D02*
X122761905Y-86304819D01*
X122761905Y-86304819D02*
X123142857Y-86304819D01*
X123142857Y-86304819D02*
X123238095Y-86352438D01*
X123238095Y-86352438D02*
X123285714Y-86400057D01*
X123285714Y-86400057D02*
X123333333Y-86495295D01*
X123333333Y-86495295D02*
X123333333Y-86638152D01*
X123333333Y-86638152D02*
X123285714Y-86733390D01*
X123285714Y-86733390D02*
X123238095Y-86781009D01*
X123238095Y-86781009D02*
X123142857Y-86828628D01*
X123142857Y-86828628D02*
X122761905Y-86828628D01*
X123714286Y-86400057D02*
X123761905Y-86352438D01*
X123761905Y-86352438D02*
X123857143Y-86304819D01*
X123857143Y-86304819D02*
X124095238Y-86304819D01*
X124095238Y-86304819D02*
X124190476Y-86352438D01*
X124190476Y-86352438D02*
X124238095Y-86400057D01*
X124238095Y-86400057D02*
X124285714Y-86495295D01*
X124285714Y-86495295D02*
X124285714Y-86590533D01*
X124285714Y-86590533D02*
X124238095Y-86733390D01*
X124238095Y-86733390D02*
X123666667Y-87304819D01*
X123666667Y-87304819D02*
X124285714Y-87304819D01*
X119866666Y-49454819D02*
X119533333Y-48978628D01*
X119295238Y-49454819D02*
X119295238Y-48454819D01*
X119295238Y-48454819D02*
X119676190Y-48454819D01*
X119676190Y-48454819D02*
X119771428Y-48502438D01*
X119771428Y-48502438D02*
X119819047Y-48550057D01*
X119819047Y-48550057D02*
X119866666Y-48645295D01*
X119866666Y-48645295D02*
X119866666Y-48788152D01*
X119866666Y-48788152D02*
X119819047Y-48883390D01*
X119819047Y-48883390D02*
X119771428Y-48931009D01*
X119771428Y-48931009D02*
X119676190Y-48978628D01*
X119676190Y-48978628D02*
X119295238Y-48978628D01*
X120295238Y-48931009D02*
X120628571Y-48931009D01*
X120771428Y-49454819D02*
X120295238Y-49454819D01*
X120295238Y-49454819D02*
X120295238Y-48454819D01*
X120295238Y-48454819D02*
X120771428Y-48454819D01*
X121533333Y-48931009D02*
X121200000Y-48931009D01*
X121200000Y-49454819D02*
X121200000Y-48454819D01*
X121200000Y-48454819D02*
X121676190Y-48454819D01*
X122200000Y-48454819D02*
X122200000Y-48692914D01*
X121961905Y-48597676D02*
X122200000Y-48692914D01*
X122200000Y-48692914D02*
X122438095Y-48597676D01*
X122057143Y-48883390D02*
X122200000Y-48692914D01*
X122200000Y-48692914D02*
X122342857Y-48883390D01*
X122961905Y-48454819D02*
X122961905Y-48692914D01*
X122723810Y-48597676D02*
X122961905Y-48692914D01*
X122961905Y-48692914D02*
X123200000Y-48597676D01*
X122819048Y-48883390D02*
X122961905Y-48692914D01*
X122961905Y-48692914D02*
X123104762Y-48883390D01*
X119733333Y-86109580D02*
X119685714Y-86157200D01*
X119685714Y-86157200D02*
X119542857Y-86204819D01*
X119542857Y-86204819D02*
X119447619Y-86204819D01*
X119447619Y-86204819D02*
X119304762Y-86157200D01*
X119304762Y-86157200D02*
X119209524Y-86061961D01*
X119209524Y-86061961D02*
X119161905Y-85966723D01*
X119161905Y-85966723D02*
X119114286Y-85776247D01*
X119114286Y-85776247D02*
X119114286Y-85633390D01*
X119114286Y-85633390D02*
X119161905Y-85442914D01*
X119161905Y-85442914D02*
X119209524Y-85347676D01*
X119209524Y-85347676D02*
X119304762Y-85252438D01*
X119304762Y-85252438D02*
X119447619Y-85204819D01*
X119447619Y-85204819D02*
X119542857Y-85204819D01*
X119542857Y-85204819D02*
X119685714Y-85252438D01*
X119685714Y-85252438D02*
X119733333Y-85300057D01*
X120066667Y-85204819D02*
X120685714Y-85204819D01*
X120685714Y-85204819D02*
X120352381Y-85585771D01*
X120352381Y-85585771D02*
X120495238Y-85585771D01*
X120495238Y-85585771D02*
X120590476Y-85633390D01*
X120590476Y-85633390D02*
X120638095Y-85681009D01*
X120638095Y-85681009D02*
X120685714Y-85776247D01*
X120685714Y-85776247D02*
X120685714Y-86014342D01*
X120685714Y-86014342D02*
X120638095Y-86109580D01*
X120638095Y-86109580D02*
X120590476Y-86157200D01*
X120590476Y-86157200D02*
X120495238Y-86204819D01*
X120495238Y-86204819D02*
X120209524Y-86204819D01*
X120209524Y-86204819D02*
X120114286Y-86157200D01*
X120114286Y-86157200D02*
X120066667Y-86109580D01*
X132461905Y-104654819D02*
X132461905Y-103654819D01*
X132461905Y-103654819D02*
X132700000Y-103654819D01*
X132700000Y-103654819D02*
X132842857Y-103702438D01*
X132842857Y-103702438D02*
X132938095Y-103797676D01*
X132938095Y-103797676D02*
X132985714Y-103892914D01*
X132985714Y-103892914D02*
X133033333Y-104083390D01*
X133033333Y-104083390D02*
X133033333Y-104226247D01*
X133033333Y-104226247D02*
X132985714Y-104416723D01*
X132985714Y-104416723D02*
X132938095Y-104511961D01*
X132938095Y-104511961D02*
X132842857Y-104607200D01*
X132842857Y-104607200D02*
X132700000Y-104654819D01*
X132700000Y-104654819D02*
X132461905Y-104654819D01*
X133985714Y-104654819D02*
X133414286Y-104654819D01*
X133700000Y-104654819D02*
X133700000Y-103654819D01*
X133700000Y-103654819D02*
X133604762Y-103797676D01*
X133604762Y-103797676D02*
X133509524Y-103892914D01*
X133509524Y-103892914D02*
X133414286Y-103940533D01*
X120333333Y-94659580D02*
X120285714Y-94707200D01*
X120285714Y-94707200D02*
X120142857Y-94754819D01*
X120142857Y-94754819D02*
X120047619Y-94754819D01*
X120047619Y-94754819D02*
X119904762Y-94707200D01*
X119904762Y-94707200D02*
X119809524Y-94611961D01*
X119809524Y-94611961D02*
X119761905Y-94516723D01*
X119761905Y-94516723D02*
X119714286Y-94326247D01*
X119714286Y-94326247D02*
X119714286Y-94183390D01*
X119714286Y-94183390D02*
X119761905Y-93992914D01*
X119761905Y-93992914D02*
X119809524Y-93897676D01*
X119809524Y-93897676D02*
X119904762Y-93802438D01*
X119904762Y-93802438D02*
X120047619Y-93754819D01*
X120047619Y-93754819D02*
X120142857Y-93754819D01*
X120142857Y-93754819D02*
X120285714Y-93802438D01*
X120285714Y-93802438D02*
X120333333Y-93850057D01*
X121285714Y-94754819D02*
X120714286Y-94754819D01*
X121000000Y-94754819D02*
X121000000Y-93754819D01*
X121000000Y-93754819D02*
X120904762Y-93897676D01*
X120904762Y-93897676D02*
X120809524Y-93992914D01*
X120809524Y-93992914D02*
X120714286Y-94040533D01*
X130933333Y-104554819D02*
X130600000Y-104078628D01*
X130361905Y-104554819D02*
X130361905Y-103554819D01*
X130361905Y-103554819D02*
X130742857Y-103554819D01*
X130742857Y-103554819D02*
X130838095Y-103602438D01*
X130838095Y-103602438D02*
X130885714Y-103650057D01*
X130885714Y-103650057D02*
X130933333Y-103745295D01*
X130933333Y-103745295D02*
X130933333Y-103888152D01*
X130933333Y-103888152D02*
X130885714Y-103983390D01*
X130885714Y-103983390D02*
X130838095Y-104031009D01*
X130838095Y-104031009D02*
X130742857Y-104078628D01*
X130742857Y-104078628D02*
X130361905Y-104078628D01*
X131885714Y-104554819D02*
X131314286Y-104554819D01*
X131600000Y-104554819D02*
X131600000Y-103554819D01*
X131600000Y-103554819D02*
X131504762Y-103697676D01*
X131504762Y-103697676D02*
X131409524Y-103792914D01*
X131409524Y-103792914D02*
X131314286Y-103840533D01*
X125802130Y-81273240D02*
X125802130Y-82603352D01*
X125802130Y-82603352D02*
X125880372Y-82759836D01*
X125880372Y-82759836D02*
X125958614Y-82838078D01*
X125958614Y-82838078D02*
X126115097Y-82916319D01*
X126115097Y-82916319D02*
X126428065Y-82916319D01*
X126428065Y-82916319D02*
X126584548Y-82838078D01*
X126584548Y-82838078D02*
X126662790Y-82759836D01*
X126662790Y-82759836D02*
X126741032Y-82603352D01*
X126741032Y-82603352D02*
X126741032Y-81273240D01*
X128384111Y-82916319D02*
X127445209Y-82916319D01*
X127914660Y-82916319D02*
X127914660Y-81273240D01*
X127914660Y-81273240D02*
X127758176Y-81507966D01*
X127758176Y-81507966D02*
X127601693Y-81664450D01*
X127601693Y-81664450D02*
X127445209Y-81742692D01*
X116426666Y-92704819D02*
X116426666Y-93419104D01*
X116426666Y-93419104D02*
X116379047Y-93561961D01*
X116379047Y-93561961D02*
X116283809Y-93657200D01*
X116283809Y-93657200D02*
X116140952Y-93704819D01*
X116140952Y-93704819D02*
X116045714Y-93704819D01*
X117426666Y-93704819D02*
X116855238Y-93704819D01*
X117140952Y-93704819D02*
X117140952Y-92704819D01*
X117140952Y-92704819D02*
X117045714Y-92847676D01*
X117045714Y-92847676D02*
X116950476Y-92942914D01*
X116950476Y-92942914D02*
X116855238Y-92990533D01*
X122083333Y-68559580D02*
X122035714Y-68607200D01*
X122035714Y-68607200D02*
X121892857Y-68654819D01*
X121892857Y-68654819D02*
X121797619Y-68654819D01*
X121797619Y-68654819D02*
X121654762Y-68607200D01*
X121654762Y-68607200D02*
X121559524Y-68511961D01*
X121559524Y-68511961D02*
X121511905Y-68416723D01*
X121511905Y-68416723D02*
X121464286Y-68226247D01*
X121464286Y-68226247D02*
X121464286Y-68083390D01*
X121464286Y-68083390D02*
X121511905Y-67892914D01*
X121511905Y-67892914D02*
X121559524Y-67797676D01*
X121559524Y-67797676D02*
X121654762Y-67702438D01*
X121654762Y-67702438D02*
X121797619Y-67654819D01*
X121797619Y-67654819D02*
X121892857Y-67654819D01*
X121892857Y-67654819D02*
X122035714Y-67702438D01*
X122035714Y-67702438D02*
X122083333Y-67750057D01*
X122940476Y-67988152D02*
X122940476Y-68654819D01*
X122702381Y-67607200D02*
X122464286Y-68321485D01*
X122464286Y-68321485D02*
X123083333Y-68321485D01*
X115005333Y-98045580D02*
X114957714Y-98093200D01*
X114957714Y-98093200D02*
X114814857Y-98140819D01*
X114814857Y-98140819D02*
X114719619Y-98140819D01*
X114719619Y-98140819D02*
X114576762Y-98093200D01*
X114576762Y-98093200D02*
X114481524Y-97997961D01*
X114481524Y-97997961D02*
X114433905Y-97902723D01*
X114433905Y-97902723D02*
X114386286Y-97712247D01*
X114386286Y-97712247D02*
X114386286Y-97569390D01*
X114386286Y-97569390D02*
X114433905Y-97378914D01*
X114433905Y-97378914D02*
X114481524Y-97283676D01*
X114481524Y-97283676D02*
X114576762Y-97188438D01*
X114576762Y-97188438D02*
X114719619Y-97140819D01*
X114719619Y-97140819D02*
X114814857Y-97140819D01*
X114814857Y-97140819D02*
X114957714Y-97188438D01*
X114957714Y-97188438D02*
X115005333Y-97236057D01*
X115386286Y-97236057D02*
X115433905Y-97188438D01*
X115433905Y-97188438D02*
X115529143Y-97140819D01*
X115529143Y-97140819D02*
X115767238Y-97140819D01*
X115767238Y-97140819D02*
X115862476Y-97188438D01*
X115862476Y-97188438D02*
X115910095Y-97236057D01*
X115910095Y-97236057D02*
X115957714Y-97331295D01*
X115957714Y-97331295D02*
X115957714Y-97426533D01*
X115957714Y-97426533D02*
X115910095Y-97569390D01*
X115910095Y-97569390D02*
X115338667Y-98140819D01*
X115338667Y-98140819D02*
X115957714Y-98140819D01*
X125548130Y-63273240D02*
X125548130Y-64603352D01*
X125548130Y-64603352D02*
X125626372Y-64759836D01*
X125626372Y-64759836D02*
X125704614Y-64838078D01*
X125704614Y-64838078D02*
X125861097Y-64916319D01*
X125861097Y-64916319D02*
X126174065Y-64916319D01*
X126174065Y-64916319D02*
X126330548Y-64838078D01*
X126330548Y-64838078D02*
X126408790Y-64759836D01*
X126408790Y-64759836D02*
X126487032Y-64603352D01*
X126487032Y-64603352D02*
X126487032Y-63273240D01*
X127191209Y-63429724D02*
X127269451Y-63351482D01*
X127269451Y-63351482D02*
X127425935Y-63273240D01*
X127425935Y-63273240D02*
X127817144Y-63273240D01*
X127817144Y-63273240D02*
X127973628Y-63351482D01*
X127973628Y-63351482D02*
X128051869Y-63429724D01*
X128051869Y-63429724D02*
X128130111Y-63586208D01*
X128130111Y-63586208D02*
X128130111Y-63742692D01*
X128130111Y-63742692D02*
X128051869Y-63977417D01*
X128051869Y-63977417D02*
X127112967Y-64916319D01*
X127112967Y-64916319D02*
X128130111Y-64916319D01*
X159816666Y-58704819D02*
X159816666Y-59419104D01*
X159816666Y-59419104D02*
X159769047Y-59561961D01*
X159769047Y-59561961D02*
X159673809Y-59657200D01*
X159673809Y-59657200D02*
X159530952Y-59704819D01*
X159530952Y-59704819D02*
X159435714Y-59704819D01*
X160769047Y-58704819D02*
X160292857Y-58704819D01*
X160292857Y-58704819D02*
X160245238Y-59181009D01*
X160245238Y-59181009D02*
X160292857Y-59133390D01*
X160292857Y-59133390D02*
X160388095Y-59085771D01*
X160388095Y-59085771D02*
X160626190Y-59085771D01*
X160626190Y-59085771D02*
X160721428Y-59133390D01*
X160721428Y-59133390D02*
X160769047Y-59181009D01*
X160769047Y-59181009D02*
X160816666Y-59276247D01*
X160816666Y-59276247D02*
X160816666Y-59514342D01*
X160816666Y-59514342D02*
X160769047Y-59609580D01*
X160769047Y-59609580D02*
X160721428Y-59657200D01*
X160721428Y-59657200D02*
X160626190Y-59704819D01*
X160626190Y-59704819D02*
X160388095Y-59704819D01*
X160388095Y-59704819D02*
X160292857Y-59657200D01*
X160292857Y-59657200D02*
X160245238Y-59609580D01*
X121342819Y-102591333D02*
X122057104Y-102591333D01*
X122057104Y-102591333D02*
X122199961Y-102638952D01*
X122199961Y-102638952D02*
X122295200Y-102734190D01*
X122295200Y-102734190D02*
X122342819Y-102877047D01*
X122342819Y-102877047D02*
X122342819Y-102972285D01*
X121438057Y-102162761D02*
X121390438Y-102115142D01*
X121390438Y-102115142D02*
X121342819Y-102019904D01*
X121342819Y-102019904D02*
X121342819Y-101781809D01*
X121342819Y-101781809D02*
X121390438Y-101686571D01*
X121390438Y-101686571D02*
X121438057Y-101638952D01*
X121438057Y-101638952D02*
X121533295Y-101591333D01*
X121533295Y-101591333D02*
X121628533Y-101591333D01*
X121628533Y-101591333D02*
X121771390Y-101638952D01*
X121771390Y-101638952D02*
X122342819Y-102210380D01*
X122342819Y-102210380D02*
X122342819Y-101591333D01*
X126719047Y-88231009D02*
X126861904Y-88278628D01*
X126861904Y-88278628D02*
X126909523Y-88326247D01*
X126909523Y-88326247D02*
X126957142Y-88421485D01*
X126957142Y-88421485D02*
X126957142Y-88564342D01*
X126957142Y-88564342D02*
X126909523Y-88659580D01*
X126909523Y-88659580D02*
X126861904Y-88707200D01*
X126861904Y-88707200D02*
X126766666Y-88754819D01*
X126766666Y-88754819D02*
X126385714Y-88754819D01*
X126385714Y-88754819D02*
X126385714Y-87754819D01*
X126385714Y-87754819D02*
X126719047Y-87754819D01*
X126719047Y-87754819D02*
X126814285Y-87802438D01*
X126814285Y-87802438D02*
X126861904Y-87850057D01*
X126861904Y-87850057D02*
X126909523Y-87945295D01*
X126909523Y-87945295D02*
X126909523Y-88040533D01*
X126909523Y-88040533D02*
X126861904Y-88135771D01*
X126861904Y-88135771D02*
X126814285Y-88183390D01*
X126814285Y-88183390D02*
X126719047Y-88231009D01*
X126719047Y-88231009D02*
X126385714Y-88231009D01*
X127290476Y-87754819D02*
X127957142Y-87754819D01*
X127957142Y-87754819D02*
X127290476Y-88754819D01*
X127290476Y-88754819D02*
X127957142Y-88754819D01*
X128861904Y-88754819D02*
X128290476Y-88754819D01*
X128576190Y-88754819D02*
X128576190Y-87754819D01*
X128576190Y-87754819D02*
X128480952Y-87897676D01*
X128480952Y-87897676D02*
X128385714Y-87992914D01*
X128385714Y-87992914D02*
X128290476Y-88040533D01*
X123409048Y-93033866D02*
X124170953Y-93033866D01*
X123790000Y-93414819D02*
X123790000Y-92652914D01*
X160866666Y-51954819D02*
X160866666Y-52669104D01*
X160866666Y-52669104D02*
X160819047Y-52811961D01*
X160819047Y-52811961D02*
X160723809Y-52907200D01*
X160723809Y-52907200D02*
X160580952Y-52954819D01*
X160580952Y-52954819D02*
X160485714Y-52954819D01*
X161771428Y-52288152D02*
X161771428Y-52954819D01*
X161533333Y-51907200D02*
X161295238Y-52621485D01*
X161295238Y-52621485D02*
X161914285Y-52621485D01*
D12*
X122762742Y-87777500D02*
X123237258Y-87777500D01*
X122762742Y-88822500D02*
X123237258Y-88822500D01*
X132460000Y-103315000D02*
X134920000Y-103315000D01*
X134920000Y-101845000D02*
X132460000Y-101845000D01*
X134920000Y-103315000D02*
X134920000Y-101845000D01*
X118359420Y-94890000D02*
X118640580Y-94890000D01*
X118359420Y-95910000D02*
X118640580Y-95910000D01*
D10*
X122990000Y-71597600D02*
X122990000Y-71800800D01*
X122990000Y-84399200D02*
X122990000Y-84602400D01*
X122990000Y-84602400D02*
X126495200Y-84602400D01*
X126495200Y-84602400D02*
X127104800Y-84602400D01*
X127104800Y-84602400D02*
X130610000Y-84602400D01*
X130610000Y-71597600D02*
X122990000Y-71597600D01*
X130610000Y-71800800D02*
X130610000Y-71597600D01*
X130610000Y-84602400D02*
X130610000Y-84399200D01*
X126495200Y-84602400D02*
G75*
G02*
X127104800Y-84602400I304800J0D01*
G01*
D12*
X115380000Y-89600000D02*
X115380000Y-51390000D01*
X118140000Y-51390000D02*
X115380000Y-51390000D01*
X118140000Y-89600000D02*
X115380000Y-89600000D01*
X118140000Y-89600000D02*
X118140000Y-51390000D01*
X118140000Y-90870000D02*
X118140000Y-92250000D01*
X118140000Y-92250000D02*
X116760000Y-92250000D01*
X117775748Y-96776000D02*
X119198252Y-96776000D01*
X117775748Y-98596000D02*
X119198252Y-98596000D01*
D10*
X122990000Y-53597600D02*
X122990000Y-53800800D01*
X122990000Y-66399200D02*
X122990000Y-66602400D01*
X122990000Y-66602400D02*
X126495200Y-66602400D01*
X126495200Y-66602400D02*
X127104800Y-66602400D01*
X127104800Y-66602400D02*
X130610000Y-66602400D01*
X130610000Y-53597600D02*
X122990000Y-53597600D01*
X130610000Y-53800800D02*
X130610000Y-53597600D01*
X130610000Y-66602400D02*
X130610000Y-66399200D01*
X126495200Y-66602400D02*
G75*
G02*
X127104800Y-66602400I304800J0D01*
G01*
D12*
X135660000Y-55400000D02*
X135660000Y-53800000D01*
X135980000Y-53730000D02*
X135980000Y-103730000D01*
X136320000Y-53183000D02*
X136320000Y-104277000D01*
X136590000Y-53120000D02*
X139080000Y-53120000D01*
X136590000Y-104340000D02*
X140427939Y-104340000D01*
X139080000Y-53120000D02*
X139080000Y-54033520D01*
X139080000Y-53120000D02*
X140427940Y-53120000D01*
X139080000Y-56426480D02*
X139080000Y-101033520D01*
X139080000Y-103426480D02*
X139080000Y-104340000D01*
X141352061Y-53120000D02*
X142355000Y-53120000D01*
X142355000Y-53120000D02*
X150825000Y-53120000D01*
X142480000Y-51820000D02*
X142480000Y-52640000D01*
X142480000Y-51820000D02*
X150700000Y-51820000D01*
X142480000Y-52640000D02*
X142690000Y-52640000D01*
X142690000Y-52640000D02*
X142690000Y-54036000D01*
X142690000Y-56424000D02*
X142690000Y-57640000D01*
X142990000Y-104340000D02*
X141352061Y-104340000D01*
X150190000Y-104340000D02*
X142990000Y-104340000D01*
X150490000Y-52640000D02*
X150490000Y-54036000D01*
X150490000Y-56424000D02*
X150490000Y-57640000D01*
X150490000Y-57640000D02*
X142690000Y-57640000D01*
X150700000Y-51820000D02*
X150700000Y-52640000D01*
X150700000Y-52640000D02*
X150490000Y-52640000D01*
X150825000Y-53120000D02*
X151827939Y-53120000D01*
X151827939Y-104340000D02*
X150190000Y-104340000D01*
X152752061Y-53120000D02*
X154100000Y-53120000D01*
X152752061Y-104340000D02*
X156590000Y-104340000D01*
X154100000Y-53120000D02*
X154100000Y-54033520D01*
X154100000Y-56426480D02*
X154100000Y-101033520D01*
X154100000Y-103426480D02*
X154100000Y-104340000D01*
X156590000Y-53120000D02*
X154100000Y-53120000D01*
X156860000Y-104277000D02*
X156860000Y-53183000D01*
X157200000Y-53730000D02*
X157200000Y-103730000D01*
X135980000Y-53730000D02*
G75*
G02*
X136590000Y-53120000I610000J0D01*
G01*
X136590000Y-104340000D02*
G75*
G02*
X135980000Y-103730000I-99J609901D01*
G01*
X156590000Y-53120000D02*
G75*
G02*
X157200000Y-53730000I0J-610000D01*
G01*
X157200000Y-103730000D02*
G75*
G02*
X156590000Y-104340000I-610000J0D01*
G01*
X159820000Y-59900000D02*
X161200000Y-59900000D01*
X159820000Y-61280000D02*
X159820000Y-59900000D01*
X159820000Y-62550000D02*
X159820000Y-77900000D01*
X159820000Y-62550000D02*
X162580000Y-62550000D01*
X159820000Y-77900000D02*
X162580000Y-77900000D01*
X162580000Y-62550000D02*
X162580000Y-77900000D01*
D13*
G36*
X148850016Y-81309491D02*
G01*
X148890904Y-81374739D01*
X148951361Y-81478558D01*
X149021518Y-81603791D01*
X149060884Y-81675994D01*
X149114675Y-81774212D01*
X149153411Y-81850871D01*
X149174970Y-81916010D01*
X149177227Y-81979666D01*
X149158059Y-82051878D01*
X149115342Y-82142682D01*
X149046953Y-82262118D01*
X148950767Y-82420222D01*
X148878403Y-82538523D01*
X148758340Y-82735483D01*
X148311552Y-82735393D01*
X147864764Y-82735302D01*
X147809124Y-82648730D01*
X147688533Y-82455946D01*
X147586072Y-82281919D01*
X147506062Y-82134655D01*
X147452827Y-82022159D01*
X147430689Y-81952436D01*
X147430325Y-81947189D01*
X147446212Y-81879679D01*
X147489047Y-81783572D01*
X147540065Y-81695080D01*
X147616265Y-81573519D01*
X147693550Y-81445332D01*
X147731165Y-81380396D01*
X147939256Y-81380396D01*
X147999356Y-81467059D01*
X148045527Y-81539764D01*
X148107157Y-81644637D01*
X148166344Y-81750682D01*
X148273233Y-81947642D01*
X148646749Y-81947642D01*
X148790527Y-81945748D01*
X148906828Y-81940588D01*
X148983855Y-81932948D01*
X149009810Y-81923612D01*
X149009760Y-81923485D01*
X148990894Y-81886818D01*
X148949009Y-81808513D01*
X148891416Y-81702184D01*
X148857444Y-81639894D01*
X148715632Y-81380458D01*
X148327444Y-81380427D01*
X147939256Y-81380396D01*
X147731165Y-81380396D01*
X147735728Y-81372518D01*
X147820150Y-81222828D01*
X148305138Y-81222828D01*
X148790125Y-81222828D01*
X148850016Y-81309491D01*
G37*
G36*
X141197445Y-77039391D02*
G01*
X141272376Y-77172045D01*
X141333498Y-77290409D01*
X141374253Y-77381088D01*
X141388134Y-77429062D01*
X141369602Y-77502277D01*
X141330014Y-77570874D01*
X141280061Y-77645178D01*
X141222534Y-77744928D01*
X141200149Y-77787841D01*
X141138843Y-77901767D01*
X141065338Y-78027396D01*
X141032942Y-78079342D01*
X140936904Y-78229032D01*
X140493142Y-78227881D01*
X140049379Y-78226730D01*
X139965959Y-78093948D01*
X139899826Y-77984686D01*
X139827326Y-77859149D01*
X139796427Y-77803597D01*
X139741632Y-77707601D01*
X139693014Y-77629607D01*
X139670858Y-77598759D01*
X139619565Y-77517405D01*
X139610028Y-77435013D01*
X139643524Y-77336239D01*
X139700989Y-77236947D01*
X139758142Y-77144747D01*
X139798511Y-77074176D01*
X139813027Y-77041538D01*
X139828774Y-77006008D01*
X139869475Y-76935222D01*
X139887370Y-76906507D01*
X140148859Y-76906507D01*
X140164583Y-76928109D01*
X140202847Y-76982559D01*
X140259211Y-77074026D01*
X140322234Y-77183855D01*
X140329469Y-77196960D01*
X140446385Y-77409677D01*
X140837222Y-77409677D01*
X141228059Y-77409677D01*
X141078290Y-77149689D01*
X140928520Y-76889702D01*
X140522566Y-76880839D01*
X140357093Y-76877674D01*
X140245803Y-76877495D01*
X140179879Y-76881464D01*
X140150504Y-76890747D01*
X140148859Y-76906507D01*
X139887370Y-76906507D01*
X139910853Y-76868825D01*
X140008679Y-76716377D01*
X140508005Y-76716377D01*
X141007330Y-76716377D01*
X141197445Y-77039391D01*
G37*
G36*
X142644713Y-79168142D02*
G01*
X142909663Y-79587276D01*
X142820788Y-79751144D01*
X142763600Y-79853693D01*
X142687009Y-79987182D01*
X142604254Y-80128634D01*
X142572045Y-80182878D01*
X142412177Y-80450744D01*
X141887366Y-80459372D01*
X141362555Y-80468000D01*
X141302441Y-80380588D01*
X141255388Y-80306751D01*
X141192993Y-80201915D01*
X141137353Y-80104094D01*
X141048613Y-79944571D01*
X140984046Y-79829410D01*
X140937466Y-79747734D01*
X140902689Y-79688672D01*
X140879874Y-79651463D01*
X140854113Y-79590008D01*
X140871835Y-79531437D01*
X140882877Y-79513213D01*
X140926691Y-79440511D01*
X140981058Y-79345586D01*
X140997360Y-79316252D01*
X141047626Y-79225169D01*
X141114580Y-79104093D01*
X141184330Y-78978144D01*
X141189064Y-78969602D01*
X141225445Y-78903971D01*
X141451737Y-78903971D01*
X141466978Y-78936629D01*
X141507282Y-79009186D01*
X141564522Y-79107961D01*
X141630569Y-79219274D01*
X141697295Y-79329444D01*
X141756572Y-79424790D01*
X141800272Y-79491632D01*
X141804343Y-79497456D01*
X141865706Y-79584118D01*
X142292619Y-79584118D01*
X142719531Y-79584118D01*
X142674611Y-79513213D01*
X142639109Y-79456684D01*
X142579926Y-79361951D01*
X142506636Y-79244350D01*
X142458270Y-79166615D01*
X142286848Y-78890922D01*
X141869293Y-78890870D01*
X141715328Y-78891783D01*
X141586960Y-78894319D01*
X141495778Y-78898115D01*
X141453372Y-78902806D01*
X141451737Y-78903971D01*
X141225445Y-78903971D01*
X141311346Y-78749007D01*
X141845555Y-78749007D01*
X142379763Y-78749007D01*
X142644713Y-79168142D01*
G37*
G36*
X150624231Y-78985359D02*
G01*
X150707825Y-79142155D01*
X150779535Y-79282686D01*
X150834222Y-79396397D01*
X150866750Y-79472731D01*
X150873589Y-79497730D01*
X150863625Y-79537176D01*
X150831555Y-79609001D01*
X150775085Y-79717447D01*
X150691920Y-79866755D01*
X150579766Y-80061166D01*
X150443284Y-80293176D01*
X150349993Y-80450744D01*
X149765357Y-80459303D01*
X149180721Y-80467861D01*
X149123017Y-80380518D01*
X149083439Y-80318507D01*
X149036016Y-80239559D01*
X148974661Y-80133175D01*
X148893284Y-79988857D01*
X148825660Y-79867741D01*
X148761359Y-79754640D01*
X148697758Y-79646487D01*
X148662711Y-79589230D01*
X148633499Y-79542161D01*
X148617748Y-79503475D01*
X148618761Y-79461401D01*
X148639842Y-79404169D01*
X148684294Y-79320007D01*
X148755420Y-79197143D01*
X148788703Y-79140299D01*
X148890383Y-78963400D01*
X148988738Y-78786846D01*
X149041650Y-78688213D01*
X149267121Y-78688213D01*
X149283673Y-78724888D01*
X149323864Y-78787419D01*
X149327323Y-78792309D01*
X149379362Y-78872289D01*
X149440211Y-78975134D01*
X149463887Y-79017769D01*
X149528389Y-79132568D01*
X149602557Y-79258753D01*
X149632159Y-79307378D01*
X149724069Y-79456072D01*
X150204652Y-79457068D01*
X150370609Y-79456524D01*
X150511757Y-79454369D01*
X150617293Y-79450902D01*
X150676413Y-79446424D01*
X150685235Y-79443705D01*
X150670990Y-79412269D01*
X150631963Y-79336198D01*
X150573713Y-79226097D01*
X150501803Y-79092574D01*
X150482826Y-79057663D01*
X150280417Y-78685980D01*
X149773769Y-78677320D01*
X149603112Y-78675552D01*
X149456974Y-78676228D01*
X149345871Y-78679122D01*
X149280322Y-78684009D01*
X149267121Y-78688213D01*
X149041650Y-78688213D01*
X149069656Y-78636008D01*
X149076433Y-78622952D01*
X149125310Y-78528411D01*
X149750456Y-78528411D01*
X150375602Y-78528411D01*
X150624231Y-78985359D01*
G37*
G36*
X146588793Y-81396734D02*
G01*
X146688453Y-81576238D01*
X146754988Y-81709159D01*
X146790839Y-81800946D01*
X146798449Y-81857048D01*
X146797427Y-81862260D01*
X146772043Y-81923638D01*
X146718106Y-82028576D01*
X146640982Y-82167515D01*
X146546038Y-82330893D01*
X146438639Y-82509149D01*
X146391333Y-82585793D01*
X146298268Y-82735483D01*
X145780112Y-82735483D01*
X145261957Y-82735483D01*
X145208273Y-82637345D01*
X145151520Y-82538457D01*
X145091563Y-82440385D01*
X145041444Y-82356731D01*
X144979171Y-82246033D01*
X144937287Y-82168238D01*
X144881594Y-82067379D01*
X144831081Y-81984195D01*
X144803354Y-81945161D01*
X144768079Y-81889769D01*
X144760670Y-81862862D01*
X144775174Y-81822197D01*
X144813019Y-81742963D01*
X144865701Y-81640986D01*
X144924718Y-81532088D01*
X144981566Y-81432095D01*
X145027743Y-81356828D01*
X145047217Y-81329602D01*
X145081009Y-81278229D01*
X145127662Y-81195084D01*
X145129146Y-81192223D01*
X145378488Y-81192223D01*
X145381173Y-81213339D01*
X145381755Y-81214950D01*
X145409984Y-81269810D01*
X145424387Y-81285855D01*
X145449779Y-81319868D01*
X145494473Y-81393470D01*
X145546098Y-81485812D01*
X145614029Y-81613461D01*
X145665942Y-81704086D01*
X145714089Y-81763973D01*
X145770723Y-81799407D01*
X145848098Y-81816673D01*
X145958466Y-81822055D01*
X146114081Y-81821837D01*
X146200735Y-81821587D01*
X146656629Y-81821587D01*
X146595204Y-81719168D01*
X146549816Y-81642386D01*
X146485593Y-81532390D01*
X146415058Y-81410642D01*
X146402162Y-81388275D01*
X146270545Y-81159801D01*
X145815976Y-81159801D01*
X145638391Y-81160337D01*
X145514840Y-81162705D01*
X145436332Y-81168047D01*
X145393878Y-81177506D01*
X145378488Y-81192223D01*
X145129146Y-81192223D01*
X145149172Y-81153607D01*
X145217618Y-81017989D01*
X145789979Y-81009411D01*
X146362340Y-81000832D01*
X146588793Y-81396734D01*
G37*
G36*
X148738266Y-71296512D02*
G01*
X148929097Y-71297816D01*
X149099091Y-71301161D01*
X149237879Y-71306166D01*
X149335094Y-71312448D01*
X149380366Y-71319629D01*
X149381310Y-71320147D01*
X149408773Y-71355058D01*
X149458977Y-71433806D01*
X149525350Y-71544691D01*
X149601323Y-71676012D01*
X149680324Y-71816069D01*
X149755783Y-71953161D01*
X149821130Y-72075588D01*
X149869793Y-72171649D01*
X149895202Y-72229643D01*
X149897394Y-72239163D01*
X149881762Y-72285749D01*
X149842515Y-72360865D01*
X149823878Y-72391804D01*
X149741850Y-72526219D01*
X149640713Y-72696992D01*
X149531574Y-72885169D01*
X149427291Y-73068672D01*
X149325523Y-73249875D01*
X148736439Y-73249875D01*
X148147355Y-73249875D01*
X148037573Y-73068947D01*
X147977471Y-72967177D01*
X147929043Y-72880272D01*
X147904592Y-72831027D01*
X147873693Y-72771903D01*
X147821614Y-72686554D01*
X147792137Y-72641671D01*
X147721249Y-72529316D01*
X147652489Y-72409288D01*
X147634772Y-72375627D01*
X147566663Y-72241950D01*
X147736258Y-71950193D01*
X147821498Y-71804775D01*
X147909450Y-71656746D01*
X147986599Y-71528775D01*
X148018240Y-71477233D01*
X148027946Y-71461583D01*
X148258685Y-71461583D01*
X148272672Y-71496105D01*
X148308517Y-71568310D01*
X148357045Y-71661023D01*
X148409078Y-71757071D01*
X148455442Y-71839278D01*
X148486961Y-71890470D01*
X148490132Y-71894788D01*
X148525462Y-71949165D01*
X148575025Y-72035877D01*
X148604895Y-72091749D01*
X148682802Y-72241439D01*
X149211584Y-72241439D01*
X149740365Y-72241439D01*
X149638817Y-72060235D01*
X149567735Y-71933577D01*
X149485454Y-71787226D01*
X149421804Y-71674193D01*
X149306339Y-71469354D01*
X148782512Y-71460714D01*
X148608800Y-71458389D01*
X148459436Y-71457422D01*
X148344766Y-71457796D01*
X148275134Y-71459493D01*
X148258685Y-71461583D01*
X148027946Y-71461583D01*
X148130626Y-71296029D01*
X148738266Y-71296512D01*
G37*
G36*
X142825715Y-74447394D02*
G01*
X142913357Y-74601563D01*
X142988729Y-74738054D01*
X143046560Y-74847004D01*
X143081580Y-74918550D01*
X143089711Y-74941373D01*
X143074930Y-74981787D01*
X143034130Y-75065121D01*
X142973531Y-75180138D01*
X142899354Y-75315599D01*
X142817820Y-75460267D01*
X142735149Y-75602905D01*
X142657562Y-75732275D01*
X142608684Y-75810359D01*
X142512586Y-75960049D01*
X141938515Y-75960049D01*
X141735471Y-75959843D01*
X141586185Y-75958473D01*
X141481389Y-75954813D01*
X141411816Y-75947737D01*
X141368196Y-75936119D01*
X141341262Y-75918833D01*
X141321744Y-75894753D01*
X141314786Y-75884261D01*
X141272267Y-75814603D01*
X141215052Y-75715003D01*
X141173564Y-75640030D01*
X141066684Y-75444905D01*
X140983647Y-75297044D01*
X140919368Y-75187712D01*
X140868764Y-75108177D01*
X140840460Y-75067864D01*
X140799326Y-75006024D01*
X140793358Y-74960288D01*
X140821340Y-74899383D01*
X140833118Y-74878782D01*
X140880824Y-74795019D01*
X140942976Y-74684725D01*
X140987600Y-74604962D01*
X141053739Y-74488032D01*
X141134765Y-74347194D01*
X141213284Y-74212677D01*
X141214249Y-74211042D01*
X141261604Y-74130707D01*
X141414429Y-74130707D01*
X141480353Y-74214516D01*
X141525815Y-74284249D01*
X141546197Y-74339107D01*
X141546278Y-74341346D01*
X141563521Y-74380497D01*
X141575668Y-74384367D01*
X141606457Y-74410661D01*
X141626599Y-74455272D01*
X141653183Y-74515730D01*
X141703646Y-74610374D01*
X141767842Y-74720337D01*
X141778412Y-74737609D01*
X141908685Y-74949040D01*
X142422110Y-74950326D01*
X142935535Y-74951612D01*
X142857736Y-74817679D01*
X142806643Y-74729364D01*
X142736290Y-74607294D01*
X142658736Y-74472407D01*
X142626293Y-74415880D01*
X142472648Y-74148014D01*
X141943539Y-74139361D01*
X141414429Y-74130707D01*
X141261604Y-74130707D01*
X141344283Y-73990446D01*
X141953369Y-73990446D01*
X142562455Y-73990446D01*
X142825715Y-74447394D01*
G37*
G36*
X143902381Y-80868300D02*
G01*
X143942182Y-80930650D01*
X144001212Y-81028980D01*
X144073056Y-81151956D01*
X144151300Y-81288243D01*
X144229529Y-81426506D01*
X144301328Y-81555411D01*
X144360284Y-81663623D01*
X144399981Y-81739808D01*
X144414020Y-81772388D01*
X144397576Y-81809045D01*
X144355586Y-81878290D01*
X144323718Y-81926207D01*
X144255258Y-82032431D01*
X144180229Y-82158107D01*
X144142514Y-82225349D01*
X144078551Y-82343097D01*
X144014307Y-82461287D01*
X143983167Y-82518535D01*
X143942493Y-82593488D01*
X143907242Y-82648869D01*
X143867621Y-82687629D01*
X143813838Y-82712722D01*
X143736102Y-82727101D01*
X143624620Y-82733719D01*
X143469600Y-82735529D01*
X143263771Y-82735483D01*
X143051352Y-82734583D01*
X142893727Y-82731472D01*
X142782684Y-82725538D01*
X142710008Y-82716167D01*
X142667489Y-82702744D01*
X142650452Y-82689655D01*
X142610251Y-82631200D01*
X142562684Y-82549435D01*
X142557633Y-82539965D01*
X142520314Y-82471964D01*
X142459706Y-82364538D01*
X142384326Y-82232677D01*
X142306094Y-82097233D01*
X142219667Y-81946090D01*
X142163770Y-81835228D01*
X142136970Y-81750608D01*
X142137838Y-81678186D01*
X142164941Y-81603923D01*
X142216849Y-81513778D01*
X142242462Y-81472941D01*
X142413439Y-81186085D01*
X142534434Y-80963559D01*
X142775310Y-80963559D01*
X142791359Y-81001105D01*
X142832953Y-81073475D01*
X142877999Y-81144763D01*
X142947923Y-81254377D01*
X143031067Y-81388726D01*
X143106473Y-81513779D01*
X143232258Y-81725945D01*
X143726574Y-81726496D01*
X144220890Y-81727047D01*
X143995674Y-81333126D01*
X143770459Y-80939205D01*
X143272884Y-80939205D01*
X143103836Y-80940661D01*
X142959409Y-80944682D01*
X142850222Y-80950748D01*
X142786890Y-80958340D01*
X142775310Y-80963559D01*
X142534434Y-80963559D01*
X142560527Y-80915570D01*
X142630301Y-80781637D01*
X143236391Y-80781637D01*
X143842482Y-80781637D01*
X143902381Y-80868300D01*
G37*
G36*
X147100391Y-71816440D02*
G01*
X147360546Y-72338011D01*
X147236553Y-72565469D01*
X147162429Y-72698463D01*
X147071148Y-72857956D01*
X146978395Y-73016652D01*
X146945051Y-73072698D01*
X146875604Y-73189751D01*
X146820208Y-73285141D01*
X146785672Y-73347021D01*
X146777543Y-73364200D01*
X146807572Y-73367575D01*
X146891723Y-73370570D01*
X147021090Y-73373038D01*
X147186768Y-73374830D01*
X147379852Y-73375800D01*
X147484885Y-73375930D01*
X148192227Y-73375930D01*
X148371475Y-73714702D01*
X148454582Y-73871182D01*
X148539640Y-74030346D01*
X148615362Y-74171121D01*
X148660391Y-74254073D01*
X148770058Y-74454673D01*
X148843710Y-74332857D01*
X148900937Y-74234878D01*
X148968842Y-74114019D01*
X149010470Y-74037716D01*
X149076712Y-73920039D01*
X149146735Y-73804155D01*
X149185350Y-73744816D01*
X149214355Y-73698945D01*
X149425612Y-73698945D01*
X149440821Y-73744742D01*
X149479802Y-73826904D01*
X149533992Y-73927419D01*
X149602876Y-74049271D01*
X149685894Y-74197052D01*
X149766644Y-74341556D01*
X149777301Y-74360700D01*
X149913151Y-74604900D01*
X150489604Y-74604931D01*
X151066056Y-74604962D01*
X150990146Y-74471029D01*
X150944641Y-74388846D01*
X150879085Y-74268036D01*
X150802744Y-74125766D01*
X150734993Y-73998324D01*
X150555750Y-73659553D01*
X149990220Y-73659553D01*
X149777625Y-73660611D01*
X149621521Y-73664087D01*
X149515399Y-73670435D01*
X149452754Y-73680109D01*
X149427080Y-73693564D01*
X149425612Y-73698945D01*
X149214355Y-73698945D01*
X149234466Y-73667139D01*
X149263633Y-73609702D01*
X149267121Y-73596235D01*
X149279270Y-73565466D01*
X149319906Y-73541793D01*
X149395314Y-73524430D01*
X149511779Y-73512589D01*
X149675585Y-73505484D01*
X149893018Y-73502328D01*
X150019945Y-73501984D01*
X150650858Y-73501984D01*
X150841229Y-73856513D01*
X150927635Y-74018038D01*
X151016246Y-74184713D01*
X151095790Y-74335283D01*
X151147950Y-74434910D01*
X151264300Y-74658779D01*
X151192501Y-74750047D01*
X151128760Y-74842142D01*
X151076150Y-74935648D01*
X151076052Y-74935855D01*
X151028473Y-75028053D01*
X150970958Y-75128923D01*
X150963815Y-75140694D01*
X150916298Y-75219762D01*
X150849605Y-75332652D01*
X150776003Y-75458564D01*
X150754724Y-75495223D01*
X150613221Y-75739453D01*
X150113496Y-75739453D01*
X149944057Y-75740422D01*
X149799218Y-75743097D01*
X149689575Y-75747133D01*
X149625720Y-75752187D01*
X149613771Y-75755719D01*
X149628574Y-75787504D01*
X149669202Y-75863536D01*
X149729985Y-75973467D01*
X149805252Y-76106951D01*
X149831471Y-76152951D01*
X149917887Y-76303319D01*
X149979099Y-76405604D01*
X150020921Y-76466591D01*
X150049166Y-76493065D01*
X150069649Y-76491809D01*
X150088182Y-76469609D01*
X150094340Y-76459700D01*
X150144562Y-76374587D01*
X150211367Y-76258002D01*
X150284459Y-76128303D01*
X150353545Y-76003850D01*
X150380303Y-75954593D01*
X150590695Y-75954593D01*
X150606925Y-76010060D01*
X150649797Y-76100912D01*
X150710584Y-76210366D01*
X150780559Y-76321639D01*
X150784945Y-76328134D01*
X150836445Y-76409251D01*
X150868743Y-76470144D01*
X150874317Y-76488178D01*
X150890106Y-76528941D01*
X150930533Y-76602483D01*
X150963330Y-76655825D01*
X151026882Y-76755875D01*
X151085535Y-76849126D01*
X151105868Y-76881823D01*
X151159393Y-76968486D01*
X151823825Y-76968486D01*
X152053225Y-76967702D01*
X152225826Y-76965099D01*
X152347837Y-76960299D01*
X152425469Y-76952926D01*
X152464933Y-76942603D01*
X152472498Y-76929094D01*
X152452983Y-76889324D01*
X152408892Y-76804071D01*
X152345490Y-76683368D01*
X152268039Y-76537250D01*
X152203886Y-76416997D01*
X151951032Y-75944292D01*
X151270863Y-75935799D01*
X151071492Y-75934513D01*
X150895202Y-75935679D01*
X150751071Y-75939045D01*
X150648179Y-75944362D01*
X150595603Y-75951379D01*
X150590695Y-75954593D01*
X150380303Y-75954593D01*
X150408329Y-75903003D01*
X150432248Y-75857100D01*
X150475857Y-75769908D01*
X151261806Y-75778316D01*
X152047756Y-75786724D01*
X152326041Y-76306699D01*
X152442586Y-76530281D01*
X152526927Y-76707195D01*
X152580963Y-76843778D01*
X152606589Y-76946369D01*
X152605704Y-77021306D01*
X152580203Y-77074926D01*
X152561518Y-77093527D01*
X152513556Y-77155242D01*
X152494661Y-77197302D01*
X152466875Y-77258419D01*
X152416175Y-77349661D01*
X152367386Y-77429294D01*
X152311698Y-77520151D01*
X152273162Y-77590290D01*
X152260918Y-77621301D01*
X152244514Y-77659035D01*
X152201808Y-77731705D01*
X152150620Y-77810653D01*
X152093056Y-77899093D01*
X152053147Y-77966068D01*
X152040322Y-77994450D01*
X152023707Y-78031096D01*
X151982935Y-78094914D01*
X151975149Y-78105991D01*
X151909976Y-78197518D01*
X151186319Y-78197518D01*
X150953416Y-78197169D01*
X150775827Y-78195741D01*
X150645842Y-78192661D01*
X150555750Y-78187357D01*
X150497840Y-78179258D01*
X150464400Y-78167791D01*
X150447721Y-78152384D01*
X150443020Y-78142369D01*
X150417596Y-78088282D01*
X150369594Y-77999735D01*
X150306470Y-77889180D01*
X150235679Y-77769066D01*
X150164680Y-77651846D01*
X150100928Y-77549969D01*
X150051880Y-77475885D01*
X150024992Y-77442047D01*
X150023098Y-77441190D01*
X149997292Y-77466464D01*
X149961245Y-77527920D01*
X149958230Y-77534040D01*
X149925922Y-77595312D01*
X149869158Y-77697786D01*
X149795342Y-77828283D01*
X149711879Y-77973622D01*
X149692687Y-78006745D01*
X149472224Y-78386600D01*
X148723643Y-78386600D01*
X148513974Y-78387243D01*
X148326969Y-78389049D01*
X148171282Y-78391833D01*
X148055570Y-78395409D01*
X147988490Y-78399593D01*
X147975062Y-78402610D01*
X147990586Y-78433481D01*
X148033636Y-78509139D01*
X148098930Y-78620556D01*
X148181188Y-78758705D01*
X148258685Y-78887406D01*
X148351457Y-79043205D01*
X148431504Y-79182331D01*
X148493466Y-79295082D01*
X148531980Y-79371755D01*
X148542307Y-79400709D01*
X148526240Y-79449075D01*
X148484361Y-79530909D01*
X148432816Y-79617092D01*
X148376125Y-79710099D01*
X148336270Y-79783150D01*
X148322519Y-79817989D01*
X148303209Y-79863557D01*
X148278858Y-79896774D01*
X148241272Y-79950531D01*
X148187776Y-80038866D01*
X148142426Y-80119850D01*
X148074792Y-80241139D01*
X148002818Y-80364244D01*
X147964289Y-80427109D01*
X147879730Y-80561042D01*
X147205867Y-80561042D01*
X146532004Y-80561042D01*
X146438121Y-80411352D01*
X146298963Y-80186374D01*
X146187309Y-79999268D01*
X146106134Y-79855111D01*
X146066406Y-79776864D01*
X146016848Y-79670230D01*
X145908734Y-79830770D01*
X145851666Y-79919252D01*
X145812435Y-79987227D01*
X145800485Y-80016188D01*
X145784040Y-80054274D01*
X145741919Y-80125561D01*
X145704513Y-80182878D01*
X145638766Y-80287849D01*
X145581174Y-80392557D01*
X145561635Y-80433834D01*
X145532587Y-80501048D01*
X145505182Y-80553110D01*
X145471487Y-80591951D01*
X145423571Y-80619505D01*
X145353501Y-80637704D01*
X145253347Y-80648479D01*
X145115177Y-80653763D01*
X144931058Y-80655489D01*
X144693060Y-80655588D01*
X144651414Y-80655582D01*
X143890140Y-80655582D01*
X143821187Y-80562318D01*
X143775773Y-80494583D01*
X143752890Y-80448099D01*
X143752233Y-80443721D01*
X143735832Y-80406117D01*
X143693135Y-80333546D01*
X143641935Y-80254606D01*
X143584217Y-80164956D01*
X143544292Y-80095407D01*
X143531637Y-80064332D01*
X143515555Y-80026673D01*
X143473147Y-79951982D01*
X143413178Y-79855584D01*
X143405583Y-79843848D01*
X143344355Y-79747373D01*
X143299538Y-79672471D01*
X143279800Y-79633703D01*
X143279528Y-79632117D01*
X143264109Y-79597226D01*
X143224992Y-79528891D01*
X143199992Y-79488386D01*
X143120456Y-79362393D01*
X143199992Y-79245345D01*
X143248146Y-79169349D01*
X143276413Y-79114818D01*
X143279528Y-79103326D01*
X143295282Y-79066331D01*
X143336889Y-78991592D01*
X143395866Y-78894221D01*
X143405583Y-78878762D01*
X143466595Y-78777986D01*
X143511360Y-78696097D01*
X143531312Y-78648914D01*
X143531637Y-78646012D01*
X143549956Y-78605722D01*
X143597767Y-78533262D01*
X143658425Y-78452457D01*
X143710482Y-78386600D01*
X144033584Y-78386600D01*
X144113504Y-78504213D01*
X144162129Y-78583605D01*
X144190463Y-78645023D01*
X144193424Y-78659530D01*
X144213829Y-78712069D01*
X144236071Y-78739881D01*
X144271421Y-78788066D01*
X144323992Y-78874375D01*
X144382730Y-78980607D01*
X144385761Y-78986363D01*
X144440474Y-79087950D01*
X144484995Y-79165878D01*
X144510497Y-79204757D01*
X144511721Y-79205955D01*
X144539614Y-79243474D01*
X144567979Y-79292617D01*
X144581546Y-79315463D01*
X144600388Y-79332785D01*
X144632571Y-79345348D01*
X144686163Y-79353915D01*
X144769234Y-79359251D01*
X144889850Y-79362122D01*
X145056080Y-79363290D01*
X145275991Y-79363522D01*
X145316276Y-79363523D01*
X146027232Y-79363523D01*
X145925614Y-79182319D01*
X145852949Y-79053869D01*
X145769396Y-78907788D01*
X145709889Y-78804759D01*
X145596682Y-78609953D01*
X145800620Y-78609953D01*
X145815138Y-78652468D01*
X145853476Y-78733184D01*
X145907808Y-78835797D01*
X145916566Y-78851556D01*
X146032512Y-79058887D01*
X146120439Y-78953565D01*
X146190511Y-78858408D01*
X146250197Y-78759265D01*
X146258246Y-78743127D01*
X146286251Y-78666330D01*
X146289804Y-78626708D01*
X146714516Y-78626708D01*
X146729769Y-78661362D01*
X146769935Y-78734342D01*
X146826622Y-78830464D01*
X146832062Y-78839425D01*
X146899422Y-78951785D01*
X146960548Y-79056544D01*
X147000093Y-79127171D01*
X147052997Y-79223068D01*
X147110180Y-79322507D01*
X147111022Y-79323932D01*
X147171464Y-79426152D01*
X147778101Y-79426351D01*
X147965844Y-79425689D01*
X148129966Y-79423729D01*
X148260849Y-79420698D01*
X148348879Y-79416827D01*
X148384439Y-79412345D01*
X148384739Y-79411882D01*
X148369179Y-79381236D01*
X148326359Y-79306756D01*
X148262068Y-79198274D01*
X148182098Y-79065622D01*
X148143481Y-79002205D01*
X147902222Y-78607195D01*
X147308369Y-78607195D01*
X147122724Y-78608178D01*
X146960804Y-78610911D01*
X146832326Y-78615077D01*
X146747011Y-78620356D01*
X146714576Y-78626429D01*
X146714516Y-78626708D01*
X146289804Y-78626708D01*
X146291094Y-78612328D01*
X146288866Y-78606846D01*
X146250195Y-78590297D01*
X146170768Y-78579962D01*
X146068942Y-78575727D01*
X145963078Y-78577474D01*
X145871533Y-78585085D01*
X145812667Y-78598445D01*
X145800620Y-78609953D01*
X145596682Y-78609953D01*
X145595781Y-78608403D01*
X145338045Y-78607799D01*
X145186237Y-78602639D01*
X145084306Y-78584412D01*
X145019570Y-78547729D01*
X144979347Y-78487200D01*
X144965449Y-78449441D01*
X144953832Y-78424858D01*
X144930572Y-78407673D01*
X144885710Y-78396570D01*
X144809287Y-78390235D01*
X144691343Y-78387353D01*
X144521919Y-78386609D01*
X144489544Y-78386600D01*
X144033584Y-78386600D01*
X143710482Y-78386600D01*
X143746226Y-78341380D01*
X147170224Y-78341380D01*
X147176766Y-78388651D01*
X147230088Y-78410961D01*
X147336106Y-78417676D01*
X147452963Y-78418114D01*
X147582107Y-78416689D01*
X147683608Y-78412859D01*
X147743825Y-78407288D01*
X147754466Y-78403426D01*
X147739848Y-78353875D01*
X147701531Y-78270117D01*
X147647824Y-78166833D01*
X147587035Y-78058702D01*
X147527472Y-77960406D01*
X147477444Y-77886626D01*
X147445258Y-77852043D01*
X147441901Y-77851114D01*
X147415758Y-77876081D01*
X147388694Y-77922019D01*
X147352552Y-77991301D01*
X147300607Y-78086550D01*
X147273813Y-78134491D01*
X147204545Y-78259782D01*
X147170224Y-78341380D01*
X143746226Y-78341380D01*
X143785212Y-78292059D01*
X143193599Y-78291799D01*
X142601985Y-78291539D01*
X142547710Y-78194875D01*
X144028477Y-78194875D01*
X144029726Y-78210636D01*
X144058530Y-78220616D01*
X144123503Y-78226132D01*
X144233257Y-78228498D01*
X144396406Y-78229029D01*
X144419599Y-78229032D01*
X144844624Y-78229032D01*
X144744589Y-78032071D01*
X144669669Y-77889730D01*
X144595636Y-77758034D01*
X144529151Y-77647942D01*
X144476875Y-77570411D01*
X144445469Y-77536402D01*
X144442893Y-77535731D01*
X144428395Y-77546667D01*
X144401545Y-77583938D01*
X144358285Y-77654236D01*
X144294555Y-77764258D01*
X144206295Y-77920696D01*
X144169229Y-77986988D01*
X144113885Y-78078487D01*
X144060890Y-78154273D01*
X144046168Y-78172020D01*
X144028477Y-78194875D01*
X142547710Y-78194875D01*
X142526930Y-78157866D01*
X142468348Y-78052492D01*
X142399117Y-77926525D01*
X142357904Y-77850868D01*
X142301383Y-77750905D01*
X142250913Y-77668930D01*
X142223380Y-77630272D01*
X142183357Y-77570481D01*
X142138276Y-77485713D01*
X142132177Y-77472704D01*
X142078025Y-77366357D01*
X142017956Y-77263457D01*
X142016949Y-77261886D01*
X141976592Y-77192728D01*
X141970319Y-77144053D01*
X141996916Y-77084131D01*
X142009312Y-77062363D01*
X142064871Y-76964954D01*
X142116328Y-76873593D01*
X142168684Y-76783625D01*
X142213845Y-76710709D01*
X142253675Y-76645200D01*
X142310535Y-76546817D01*
X142365641Y-76448511D01*
X142432698Y-76332837D01*
X142501271Y-76223724D01*
X142509305Y-76212158D01*
X142717274Y-76212158D01*
X142796763Y-76361848D01*
X142862330Y-76479121D01*
X142934051Y-76598563D01*
X142959714Y-76638756D01*
X143021737Y-76739311D01*
X143092914Y-76863288D01*
X143137717Y-76945904D01*
X143232258Y-77125834D01*
X143705339Y-77125944D01*
X144178419Y-77126054D01*
X144178043Y-76976364D01*
X144171858Y-76895301D01*
X144150002Y-76811088D01*
X144106887Y-76708772D01*
X144036924Y-76573401D01*
X144007263Y-76519416D01*
X143836859Y-76212158D01*
X143277067Y-76212158D01*
X142717274Y-76212158D01*
X142509305Y-76212158D01*
X142547610Y-76157009D01*
X142553580Y-76149131D01*
X143979006Y-76149131D01*
X144136655Y-76431835D01*
X144210918Y-76563748D01*
X144264753Y-76643879D01*
X144308482Y-76671799D01*
X144352432Y-76647081D01*
X144406926Y-76569294D01*
X144482288Y-76438012D01*
X144494155Y-76416997D01*
X144553764Y-76310959D01*
X144600780Y-76226220D01*
X144626986Y-76177620D01*
X144629363Y-76172766D01*
X144604524Y-76163089D01*
X144529145Y-76155328D01*
X144415708Y-76150406D01*
X144309437Y-76149131D01*
X143979006Y-76149131D01*
X142553580Y-76149131D01*
X142625222Y-76054590D01*
X143205085Y-76054590D01*
X143784947Y-76054590D01*
X143763621Y-75969617D01*
X143735765Y-75897882D01*
X143685022Y-75797640D01*
X143633884Y-75709629D01*
X143540309Y-75556584D01*
X143451004Y-75407394D01*
X145138833Y-75407394D01*
X145152604Y-75459071D01*
X145189118Y-75550431D01*
X145241177Y-75665698D01*
X145301582Y-75789092D01*
X145363136Y-75904836D01*
X145376594Y-75928535D01*
X145439547Y-76038479D01*
X145522290Y-76184002D01*
X145613813Y-76345696D01*
X145698398Y-76495781D01*
X145778650Y-76636213D01*
X145851958Y-76760270D01*
X145910844Y-76855580D01*
X145947829Y-76909772D01*
X145950802Y-76913337D01*
X145969603Y-76929381D01*
X145999133Y-76941999D01*
X146046455Y-76951596D01*
X146118629Y-76958578D01*
X146222717Y-76963348D01*
X146365782Y-76966313D01*
X146554884Y-76967877D01*
X146797086Y-76968446D01*
X146912106Y-76968486D01*
X147824742Y-76968486D01*
X147779274Y-76897580D01*
X147751878Y-76851500D01*
X147698372Y-76758606D01*
X147623413Y-76627093D01*
X147531657Y-76465155D01*
X147427763Y-76280985D01*
X147331510Y-76109739D01*
X147070058Y-75643801D01*
X147812688Y-75643801D01*
X147925388Y-75849195D01*
X148056625Y-76085260D01*
X148200008Y-76338025D01*
X148336756Y-76574443D01*
X148361265Y-76616191D01*
X148422782Y-76723093D01*
X148480019Y-76826453D01*
X148501035Y-76866066D01*
X148553981Y-76968486D01*
X149337314Y-76968486D01*
X150120647Y-76968486D01*
X150042343Y-76834553D01*
X150001600Y-76764099D01*
X149936370Y-76650403D01*
X149853270Y-76505037D01*
X149758918Y-76339577D01*
X149668484Y-76180645D01*
X149372929Y-75660669D01*
X148592808Y-75652235D01*
X147812688Y-75643801D01*
X147070058Y-75643801D01*
X146975566Y-75475405D01*
X148353226Y-75475405D01*
X148382793Y-75479837D01*
X148463711Y-75483524D01*
X148584306Y-75486128D01*
X148732902Y-75487309D01*
X148764763Y-75487344D01*
X148916150Y-75485657D01*
X149040506Y-75481039D01*
X149126631Y-75474153D01*
X149163324Y-75465663D01*
X149163685Y-75463709D01*
X149103458Y-75355622D01*
X149031465Y-75233504D01*
X148955211Y-75109194D01*
X148882203Y-74994530D01*
X148819947Y-74901351D01*
X148775950Y-74841497D01*
X148759061Y-74825558D01*
X148727466Y-74850466D01*
X148679531Y-74913933D01*
X148650944Y-74959491D01*
X148591137Y-75060908D01*
X148517636Y-75185390D01*
X148462638Y-75278445D01*
X148407823Y-75372757D01*
X148368569Y-75443381D01*
X148353231Y-75475276D01*
X148353226Y-75475405D01*
X146975566Y-75475405D01*
X146929216Y-75392803D01*
X146034025Y-75392803D01*
X145803828Y-75393295D01*
X145595553Y-75394686D01*
X145417117Y-75396845D01*
X145276434Y-75399645D01*
X145181421Y-75402956D01*
X145139994Y-75406649D01*
X145138833Y-75407394D01*
X143451004Y-75407394D01*
X143442876Y-75393816D01*
X143347043Y-75230838D01*
X143258270Y-75077163D01*
X143182016Y-74942307D01*
X143123739Y-74835783D01*
X143088900Y-74767104D01*
X143081381Y-74746774D01*
X143096321Y-74709211D01*
X143137137Y-74629011D01*
X143197461Y-74517689D01*
X143270922Y-74386762D01*
X143351152Y-74247746D01*
X143431779Y-74112157D01*
X143438699Y-74100744D01*
X143490560Y-74013072D01*
X143547204Y-73913890D01*
X143599790Y-73819157D01*
X143639475Y-73744835D01*
X143657418Y-73706883D01*
X143657692Y-73705436D01*
X143627951Y-73700493D01*
X143545813Y-73696166D01*
X143421911Y-73692781D01*
X143266875Y-73690668D01*
X143161352Y-73690143D01*
X142665012Y-73689219D01*
X142527252Y-73438957D01*
X143942875Y-73438957D01*
X143975431Y-73524587D01*
X144008131Y-73598552D01*
X144034314Y-73642763D01*
X144059636Y-73682023D01*
X144108384Y-73763879D01*
X144173257Y-73875896D01*
X144238398Y-73990446D01*
X144312005Y-74120587D01*
X144376227Y-74233487D01*
X144423569Y-74316008D01*
X144445184Y-74352853D01*
X144476213Y-74404777D01*
X144526461Y-74490210D01*
X144570440Y-74565570D01*
X144666668Y-74731017D01*
X145456026Y-74731017D01*
X146245384Y-74731017D01*
X146164722Y-74597084D01*
X146122988Y-74526277D01*
X146056911Y-74412368D01*
X145973242Y-74267078D01*
X145878735Y-74102128D01*
X145792651Y-73951222D01*
X145518987Y-73470471D01*
X145703862Y-73470471D01*
X145740774Y-73541377D01*
X145780861Y-73615284D01*
X145841803Y-73724259D01*
X145912878Y-73849499D01*
X145983365Y-73972203D01*
X146042542Y-74073566D01*
X146074430Y-74126488D01*
X146113367Y-74175167D01*
X146149412Y-74173123D01*
X146170017Y-74158002D01*
X146215416Y-74101616D01*
X146260729Y-74018162D01*
X146265883Y-74006203D01*
X146312314Y-73911613D01*
X146375660Y-73802419D01*
X146402488Y-73760873D01*
X146459753Y-73666283D01*
X146501935Y-73579654D01*
X146512769Y-73548156D01*
X146516448Y-73533498D01*
X146650208Y-73533498D01*
X146718188Y-73667431D01*
X146780653Y-73780319D01*
X146854213Y-73899807D01*
X146876397Y-73933097D01*
X146928360Y-74013550D01*
X146961230Y-74073246D01*
X146967150Y-74090665D01*
X146982641Y-74127757D01*
X147022734Y-74203287D01*
X147078642Y-74302234D01*
X147141581Y-74409578D01*
X147202764Y-74510300D01*
X147253405Y-74589379D01*
X147281804Y-74628597D01*
X147311707Y-74642500D01*
X147378199Y-74653043D01*
X147487018Y-74660539D01*
X147643902Y-74665297D01*
X147854586Y-74667627D01*
X148010025Y-74667989D01*
X148704290Y-74667989D01*
X148580452Y-74439516D01*
X148513074Y-74314518D01*
X148428512Y-74156640D01*
X148338992Y-73988747D01*
X148277149Y-73872270D01*
X148097686Y-73533498D01*
X147373947Y-73533498D01*
X146650208Y-73533498D01*
X146516448Y-73533498D01*
X146532267Y-73470471D01*
X146118064Y-73470471D01*
X145703862Y-73470471D01*
X145518987Y-73470471D01*
X145501240Y-73439294D01*
X144722058Y-73439126D01*
X143942875Y-73438957D01*
X142527252Y-73438957D01*
X142523201Y-73431598D01*
X142444875Y-73291126D01*
X142363008Y-73147226D01*
X142292403Y-73025855D01*
X142277342Y-73000567D01*
X142201151Y-72869997D01*
X142119661Y-72725004D01*
X142077204Y-72646871D01*
X141981113Y-72466586D01*
X142165495Y-72157052D01*
X142239991Y-72031055D01*
X142302311Y-71923899D01*
X142345434Y-71847769D01*
X142361972Y-71816004D01*
X142390317Y-71760115D01*
X142442433Y-71670510D01*
X142506787Y-71565687D01*
X142571848Y-71464142D01*
X142579902Y-71452296D01*
X142776375Y-71452296D01*
X142807483Y-71534115D01*
X142843790Y-71608354D01*
X142900870Y-71704489D01*
X142933005Y-71753161D01*
X142986310Y-71835464D01*
X143020544Y-71897588D01*
X143027419Y-71917836D01*
X143043514Y-71955984D01*
X143085950Y-72031062D01*
X143145956Y-72127659D01*
X143153474Y-72139277D01*
X143214897Y-72237196D01*
X143259760Y-72315176D01*
X143279301Y-72357887D01*
X143279528Y-72359836D01*
X143286266Y-72393111D01*
X143311365Y-72418412D01*
X143362149Y-72436788D01*
X143445946Y-72449289D01*
X143570081Y-72456962D01*
X143741881Y-72460859D01*
X143968670Y-72462027D01*
X143993165Y-72462034D01*
X144631170Y-72462034D01*
X144338969Y-71965694D01*
X144046769Y-71469354D01*
X143411572Y-71460825D01*
X142776375Y-71452296D01*
X142579902Y-71452296D01*
X142626081Y-71384373D01*
X142652161Y-71350574D01*
X142673157Y-71332585D01*
X142704809Y-71319113D01*
X142755229Y-71309659D01*
X142832528Y-71303723D01*
X142944819Y-71300807D01*
X143100212Y-71300410D01*
X143306820Y-71302033D01*
X143419868Y-71303303D01*
X144137399Y-71311786D01*
X144449034Y-71840828D01*
X144571690Y-72054085D01*
X144665369Y-72227851D01*
X144728181Y-72358366D01*
X144758233Y-72441868D01*
X144760670Y-72460195D01*
X144745119Y-72532313D01*
X144704297Y-72635483D01*
X144646946Y-72747696D01*
X144645329Y-72750508D01*
X144570512Y-72881168D01*
X144492500Y-73018860D01*
X144438123Y-73115942D01*
X144346258Y-73281389D01*
X144821599Y-73281389D01*
X145296941Y-73281389D01*
X145196644Y-73100185D01*
X145129193Y-72980737D01*
X145046235Y-72837203D01*
X144964990Y-72699361D01*
X144960022Y-72691044D01*
X144896334Y-72574180D01*
X144848545Y-72466725D01*
X144824883Y-72387807D01*
X144823697Y-72374103D01*
X144840161Y-72311432D01*
X144887338Y-72202562D01*
X144961901Y-72054339D01*
X145060526Y-71873611D01*
X145103272Y-71798442D01*
X145301379Y-71453597D01*
X145518557Y-71453597D01*
X145545549Y-71524592D01*
X145575372Y-71587433D01*
X145627084Y-71682645D01*
X145686500Y-71784580D01*
X145743188Y-71881717D01*
X145784022Y-71957645D01*
X145800506Y-71996530D01*
X145800539Y-71997135D01*
X145817670Y-72033329D01*
X145862131Y-72103709D01*
X145913874Y-72178338D01*
X146027128Y-72335980D01*
X146607385Y-72335980D01*
X147187641Y-72335980D01*
X146966625Y-71894788D01*
X146745609Y-71453597D01*
X146132083Y-71453597D01*
X145518557Y-71453597D01*
X145301379Y-71453597D01*
X145382847Y-71311786D01*
X146111542Y-71303327D01*
X146840236Y-71294868D01*
X147100391Y-71816440D01*
G37*
D12*
X115588000Y-100878000D02*
X115588000Y-103638000D01*
X118238000Y-100878000D02*
X115588000Y-100878000D01*
X118238000Y-100878000D02*
X118238000Y-103638000D01*
X118238000Y-103638000D02*
X115588000Y-103638000D01*
X119508000Y-100878000D02*
X120888000Y-100878000D01*
X120888000Y-100878000D02*
X120888000Y-102258000D01*
X133700000Y-95500000D02*
G75*
G02*
X121500000Y-95500000I-6100000J0D01*
G01*
X121500000Y-95500000D02*
G75*
G02*
X133700000Y-95500000I6100000J0D01*
G01*
X159820000Y-56005000D02*
X159820000Y-53355000D01*
X162580000Y-53355000D02*
X159820000Y-53355000D01*
X162580000Y-56005000D02*
X159820000Y-56005000D01*
X162580000Y-56005000D02*
X162580000Y-53355000D01*
X162580000Y-57275000D02*
X162580000Y-58655000D01*
X162580000Y-58655000D02*
X161200000Y-58655000D01*
M02*
