%TF.GenerationSoftware,KiCad,Pcbnew,9.0.2*%
%TF.CreationDate,2025-07-08T19:24:18+03:00*%
%TF.ProjectId,PCB,5043422e-6b69-4636-9164-5f7063625858,rev?*%
%TF.SameCoordinates,Original*%
%TF.FileFunction,Drillmap*%
%TF.FilePolarity,Positive*%
%FSLAX45Y45*%
G04 Gerber Fmt 4.5, Leading zero omitted, Abs format (unit mm)*
G04 Created by KiCad (PCBNEW 9.0.2) date 2025-07-08 19:24:18*
%MOMM*%
%LPD*%
G01*
G04 APERTURE LIST*
%ADD10C,0.038100*%
%ADD11C,0.200000*%
%ADD12C,0.220000*%
G04 APERTURE END LIST*
D10*
X11400000Y-10600000D02*
X11400000Y-5000000D01*
X16400000Y-5000000D02*
X16400000Y-10600000D01*
X16400000Y-10600000D02*
X11400000Y-10600000D01*
X11400000Y-5000000D02*
X16400000Y-5000000D01*
D11*
D12*
X12010000Y-5105000D02*
X12230000Y-5325000D01*
X12230000Y-5105000D02*
X12010000Y-5325000D01*
X16040000Y-10240000D02*
X16260000Y-10460000D01*
X16260000Y-10240000D02*
X16040000Y-10460000D01*
D11*
X11658872Y-10913389D02*
X11658872Y-10713389D01*
X11658872Y-10713389D02*
X11706491Y-10713389D01*
X11706491Y-10713389D02*
X11735062Y-10722913D01*
X11735062Y-10722913D02*
X11754110Y-10741960D01*
X11754110Y-10741960D02*
X11763634Y-10761008D01*
X11763634Y-10761008D02*
X11773157Y-10799103D01*
X11773157Y-10799103D02*
X11773157Y-10827675D01*
X11773157Y-10827675D02*
X11763634Y-10865770D01*
X11763634Y-10865770D02*
X11754110Y-10884817D01*
X11754110Y-10884817D02*
X11735062Y-10903865D01*
X11735062Y-10903865D02*
X11706491Y-10913389D01*
X11706491Y-10913389D02*
X11658872Y-10913389D01*
X11858872Y-10913389D02*
X11858872Y-10780055D01*
X11858872Y-10818151D02*
X11868396Y-10799103D01*
X11868396Y-10799103D02*
X11877919Y-10789579D01*
X11877919Y-10789579D02*
X11896967Y-10780055D01*
X11896967Y-10780055D02*
X11916015Y-10780055D01*
X11982681Y-10913389D02*
X11982681Y-10780055D01*
X11982681Y-10713389D02*
X11973157Y-10722913D01*
X11973157Y-10722913D02*
X11982681Y-10732436D01*
X11982681Y-10732436D02*
X11992205Y-10722913D01*
X11992205Y-10722913D02*
X11982681Y-10713389D01*
X11982681Y-10713389D02*
X11982681Y-10732436D01*
X12106491Y-10913389D02*
X12087443Y-10903865D01*
X12087443Y-10903865D02*
X12077919Y-10884817D01*
X12077919Y-10884817D02*
X12077919Y-10713389D01*
X12211253Y-10913389D02*
X12192205Y-10903865D01*
X12192205Y-10903865D02*
X12182681Y-10884817D01*
X12182681Y-10884817D02*
X12182681Y-10713389D01*
X12439824Y-10913389D02*
X12439824Y-10713389D01*
X12439824Y-10713389D02*
X12506491Y-10856246D01*
X12506491Y-10856246D02*
X12573157Y-10713389D01*
X12573157Y-10713389D02*
X12573157Y-10913389D01*
X12754110Y-10913389D02*
X12754110Y-10808627D01*
X12754110Y-10808627D02*
X12744586Y-10789579D01*
X12744586Y-10789579D02*
X12725538Y-10780055D01*
X12725538Y-10780055D02*
X12687443Y-10780055D01*
X12687443Y-10780055D02*
X12668396Y-10789579D01*
X12754110Y-10903865D02*
X12735062Y-10913389D01*
X12735062Y-10913389D02*
X12687443Y-10913389D01*
X12687443Y-10913389D02*
X12668396Y-10903865D01*
X12668396Y-10903865D02*
X12658872Y-10884817D01*
X12658872Y-10884817D02*
X12658872Y-10865770D01*
X12658872Y-10865770D02*
X12668396Y-10846722D01*
X12668396Y-10846722D02*
X12687443Y-10837198D01*
X12687443Y-10837198D02*
X12735062Y-10837198D01*
X12735062Y-10837198D02*
X12754110Y-10827675D01*
X12849348Y-10780055D02*
X12849348Y-10980055D01*
X12849348Y-10789579D02*
X12868396Y-10780055D01*
X12868396Y-10780055D02*
X12906491Y-10780055D01*
X12906491Y-10780055D02*
X12925538Y-10789579D01*
X12925538Y-10789579D02*
X12935062Y-10799103D01*
X12935062Y-10799103D02*
X12944586Y-10818151D01*
X12944586Y-10818151D02*
X12944586Y-10875294D01*
X12944586Y-10875294D02*
X12935062Y-10894341D01*
X12935062Y-10894341D02*
X12925538Y-10903865D01*
X12925538Y-10903865D02*
X12906491Y-10913389D01*
X12906491Y-10913389D02*
X12868396Y-10913389D01*
X12868396Y-10913389D02*
X12849348Y-10903865D01*
X13030300Y-10894341D02*
X13039824Y-10903865D01*
X13039824Y-10903865D02*
X13030300Y-10913389D01*
X13030300Y-10913389D02*
X13020777Y-10903865D01*
X13020777Y-10903865D02*
X13030300Y-10894341D01*
X13030300Y-10894341D02*
X13030300Y-10913389D01*
X13030300Y-10789579D02*
X13039824Y-10799103D01*
X13039824Y-10799103D02*
X13030300Y-10808627D01*
X13030300Y-10808627D02*
X13020777Y-10799103D01*
X13020777Y-10799103D02*
X13030300Y-10789579D01*
X13030300Y-10789579D02*
X13030300Y-10808627D01*
X11198095Y-11141905D02*
X11398095Y-11341905D01*
X11398095Y-11141905D02*
X11198095Y-11341905D01*
X11649348Y-11152436D02*
X11658872Y-11142913D01*
X11658872Y-11142913D02*
X11677919Y-11133389D01*
X11677919Y-11133389D02*
X11725538Y-11133389D01*
X11725538Y-11133389D02*
X11744586Y-11142913D01*
X11744586Y-11142913D02*
X11754110Y-11152436D01*
X11754110Y-11152436D02*
X11763634Y-11171484D01*
X11763634Y-11171484D02*
X11763634Y-11190532D01*
X11763634Y-11190532D02*
X11754110Y-11219103D01*
X11754110Y-11219103D02*
X11639824Y-11333389D01*
X11639824Y-11333389D02*
X11763634Y-11333389D01*
X11849348Y-11314341D02*
X11858872Y-11323865D01*
X11858872Y-11323865D02*
X11849348Y-11333389D01*
X11849348Y-11333389D02*
X11839824Y-11323865D01*
X11839824Y-11323865D02*
X11849348Y-11314341D01*
X11849348Y-11314341D02*
X11849348Y-11333389D01*
X11935062Y-11152436D02*
X11944586Y-11142913D01*
X11944586Y-11142913D02*
X11963634Y-11133389D01*
X11963634Y-11133389D02*
X12011253Y-11133389D01*
X12011253Y-11133389D02*
X12030300Y-11142913D01*
X12030300Y-11142913D02*
X12039824Y-11152436D01*
X12039824Y-11152436D02*
X12049348Y-11171484D01*
X12049348Y-11171484D02*
X12049348Y-11190532D01*
X12049348Y-11190532D02*
X12039824Y-11219103D01*
X12039824Y-11219103D02*
X11925538Y-11333389D01*
X11925538Y-11333389D02*
X12049348Y-11333389D01*
X12173157Y-11133389D02*
X12192205Y-11133389D01*
X12192205Y-11133389D02*
X12211253Y-11142913D01*
X12211253Y-11142913D02*
X12220777Y-11152436D01*
X12220777Y-11152436D02*
X12230300Y-11171484D01*
X12230300Y-11171484D02*
X12239824Y-11209579D01*
X12239824Y-11209579D02*
X12239824Y-11257198D01*
X12239824Y-11257198D02*
X12230300Y-11295293D01*
X12230300Y-11295293D02*
X12220777Y-11314341D01*
X12220777Y-11314341D02*
X12211253Y-11323865D01*
X12211253Y-11323865D02*
X12192205Y-11333389D01*
X12192205Y-11333389D02*
X12173157Y-11333389D01*
X12173157Y-11333389D02*
X12154110Y-11323865D01*
X12154110Y-11323865D02*
X12144586Y-11314341D01*
X12144586Y-11314341D02*
X12135062Y-11295293D01*
X12135062Y-11295293D02*
X12125538Y-11257198D01*
X12125538Y-11257198D02*
X12125538Y-11209579D01*
X12125538Y-11209579D02*
X12135062Y-11171484D01*
X12135062Y-11171484D02*
X12144586Y-11152436D01*
X12144586Y-11152436D02*
X12154110Y-11142913D01*
X12154110Y-11142913D02*
X12173157Y-11133389D01*
X12363634Y-11133389D02*
X12382681Y-11133389D01*
X12382681Y-11133389D02*
X12401729Y-11142913D01*
X12401729Y-11142913D02*
X12411253Y-11152436D01*
X12411253Y-11152436D02*
X12420777Y-11171484D01*
X12420777Y-11171484D02*
X12430300Y-11209579D01*
X12430300Y-11209579D02*
X12430300Y-11257198D01*
X12430300Y-11257198D02*
X12420777Y-11295293D01*
X12420777Y-11295293D02*
X12411253Y-11314341D01*
X12411253Y-11314341D02*
X12401729Y-11323865D01*
X12401729Y-11323865D02*
X12382681Y-11333389D01*
X12382681Y-11333389D02*
X12363634Y-11333389D01*
X12363634Y-11333389D02*
X12344586Y-11323865D01*
X12344586Y-11323865D02*
X12335062Y-11314341D01*
X12335062Y-11314341D02*
X12325538Y-11295293D01*
X12325538Y-11295293D02*
X12316015Y-11257198D01*
X12316015Y-11257198D02*
X12316015Y-11209579D01*
X12316015Y-11209579D02*
X12325538Y-11171484D01*
X12325538Y-11171484D02*
X12335062Y-11152436D01*
X12335062Y-11152436D02*
X12344586Y-11142913D01*
X12344586Y-11142913D02*
X12363634Y-11133389D01*
X12516015Y-11333389D02*
X12516015Y-11200055D01*
X12516015Y-11219103D02*
X12525538Y-11209579D01*
X12525538Y-11209579D02*
X12544586Y-11200055D01*
X12544586Y-11200055D02*
X12573158Y-11200055D01*
X12573158Y-11200055D02*
X12592205Y-11209579D01*
X12592205Y-11209579D02*
X12601729Y-11228627D01*
X12601729Y-11228627D02*
X12601729Y-11333389D01*
X12601729Y-11228627D02*
X12611253Y-11209579D01*
X12611253Y-11209579D02*
X12630300Y-11200055D01*
X12630300Y-11200055D02*
X12658872Y-11200055D01*
X12658872Y-11200055D02*
X12677919Y-11209579D01*
X12677919Y-11209579D02*
X12687443Y-11228627D01*
X12687443Y-11228627D02*
X12687443Y-11333389D01*
X12782681Y-11333389D02*
X12782681Y-11200055D01*
X12782681Y-11219103D02*
X12792205Y-11209579D01*
X12792205Y-11209579D02*
X12811253Y-11200055D01*
X12811253Y-11200055D02*
X12839824Y-11200055D01*
X12839824Y-11200055D02*
X12858872Y-11209579D01*
X12858872Y-11209579D02*
X12868396Y-11228627D01*
X12868396Y-11228627D02*
X12868396Y-11333389D01*
X12868396Y-11228627D02*
X12877919Y-11209579D01*
X12877919Y-11209579D02*
X12896967Y-11200055D01*
X12896967Y-11200055D02*
X12925538Y-11200055D01*
X12925538Y-11200055D02*
X12944586Y-11209579D01*
X12944586Y-11209579D02*
X12954110Y-11228627D01*
X12954110Y-11228627D02*
X12954110Y-11333389D01*
X13344586Y-11123865D02*
X13173158Y-11381008D01*
X13601729Y-11133389D02*
X13620777Y-11133389D01*
X13620777Y-11133389D02*
X13639824Y-11142913D01*
X13639824Y-11142913D02*
X13649348Y-11152436D01*
X13649348Y-11152436D02*
X13658872Y-11171484D01*
X13658872Y-11171484D02*
X13668396Y-11209579D01*
X13668396Y-11209579D02*
X13668396Y-11257198D01*
X13668396Y-11257198D02*
X13658872Y-11295293D01*
X13658872Y-11295293D02*
X13649348Y-11314341D01*
X13649348Y-11314341D02*
X13639824Y-11323865D01*
X13639824Y-11323865D02*
X13620777Y-11333389D01*
X13620777Y-11333389D02*
X13601729Y-11333389D01*
X13601729Y-11333389D02*
X13582681Y-11323865D01*
X13582681Y-11323865D02*
X13573158Y-11314341D01*
X13573158Y-11314341D02*
X13563634Y-11295293D01*
X13563634Y-11295293D02*
X13554110Y-11257198D01*
X13554110Y-11257198D02*
X13554110Y-11209579D01*
X13554110Y-11209579D02*
X13563634Y-11171484D01*
X13563634Y-11171484D02*
X13573158Y-11152436D01*
X13573158Y-11152436D02*
X13582681Y-11142913D01*
X13582681Y-11142913D02*
X13601729Y-11133389D01*
X13754110Y-11314341D02*
X13763634Y-11323865D01*
X13763634Y-11323865D02*
X13754110Y-11333389D01*
X13754110Y-11333389D02*
X13744586Y-11323865D01*
X13744586Y-11323865D02*
X13754110Y-11314341D01*
X13754110Y-11314341D02*
X13754110Y-11333389D01*
X13887443Y-11133389D02*
X13906491Y-11133389D01*
X13906491Y-11133389D02*
X13925539Y-11142913D01*
X13925539Y-11142913D02*
X13935062Y-11152436D01*
X13935062Y-11152436D02*
X13944586Y-11171484D01*
X13944586Y-11171484D02*
X13954110Y-11209579D01*
X13954110Y-11209579D02*
X13954110Y-11257198D01*
X13954110Y-11257198D02*
X13944586Y-11295293D01*
X13944586Y-11295293D02*
X13935062Y-11314341D01*
X13935062Y-11314341D02*
X13925539Y-11323865D01*
X13925539Y-11323865D02*
X13906491Y-11333389D01*
X13906491Y-11333389D02*
X13887443Y-11333389D01*
X13887443Y-11333389D02*
X13868396Y-11323865D01*
X13868396Y-11323865D02*
X13858872Y-11314341D01*
X13858872Y-11314341D02*
X13849348Y-11295293D01*
X13849348Y-11295293D02*
X13839824Y-11257198D01*
X13839824Y-11257198D02*
X13839824Y-11209579D01*
X13839824Y-11209579D02*
X13849348Y-11171484D01*
X13849348Y-11171484D02*
X13858872Y-11152436D01*
X13858872Y-11152436D02*
X13868396Y-11142913D01*
X13868396Y-11142913D02*
X13887443Y-11133389D01*
X14068396Y-11219103D02*
X14049348Y-11209579D01*
X14049348Y-11209579D02*
X14039824Y-11200055D01*
X14039824Y-11200055D02*
X14030301Y-11181008D01*
X14030301Y-11181008D02*
X14030301Y-11171484D01*
X14030301Y-11171484D02*
X14039824Y-11152436D01*
X14039824Y-11152436D02*
X14049348Y-11142913D01*
X14049348Y-11142913D02*
X14068396Y-11133389D01*
X14068396Y-11133389D02*
X14106491Y-11133389D01*
X14106491Y-11133389D02*
X14125539Y-11142913D01*
X14125539Y-11142913D02*
X14135062Y-11152436D01*
X14135062Y-11152436D02*
X14144586Y-11171484D01*
X14144586Y-11171484D02*
X14144586Y-11181008D01*
X14144586Y-11181008D02*
X14135062Y-11200055D01*
X14135062Y-11200055D02*
X14125539Y-11209579D01*
X14125539Y-11209579D02*
X14106491Y-11219103D01*
X14106491Y-11219103D02*
X14068396Y-11219103D01*
X14068396Y-11219103D02*
X14049348Y-11228627D01*
X14049348Y-11228627D02*
X14039824Y-11238151D01*
X14039824Y-11238151D02*
X14030301Y-11257198D01*
X14030301Y-11257198D02*
X14030301Y-11295293D01*
X14030301Y-11295293D02*
X14039824Y-11314341D01*
X14039824Y-11314341D02*
X14049348Y-11323865D01*
X14049348Y-11323865D02*
X14068396Y-11333389D01*
X14068396Y-11333389D02*
X14106491Y-11333389D01*
X14106491Y-11333389D02*
X14125539Y-11323865D01*
X14125539Y-11323865D02*
X14135062Y-11314341D01*
X14135062Y-11314341D02*
X14144586Y-11295293D01*
X14144586Y-11295293D02*
X14144586Y-11257198D01*
X14144586Y-11257198D02*
X14135062Y-11238151D01*
X14135062Y-11238151D02*
X14125539Y-11228627D01*
X14125539Y-11228627D02*
X14106491Y-11219103D01*
X14316015Y-11133389D02*
X14277920Y-11133389D01*
X14277920Y-11133389D02*
X14258872Y-11142913D01*
X14258872Y-11142913D02*
X14249348Y-11152436D01*
X14249348Y-11152436D02*
X14230301Y-11181008D01*
X14230301Y-11181008D02*
X14220777Y-11219103D01*
X14220777Y-11219103D02*
X14220777Y-11295293D01*
X14220777Y-11295293D02*
X14230301Y-11314341D01*
X14230301Y-11314341D02*
X14239824Y-11323865D01*
X14239824Y-11323865D02*
X14258872Y-11333389D01*
X14258872Y-11333389D02*
X14296967Y-11333389D01*
X14296967Y-11333389D02*
X14316015Y-11323865D01*
X14316015Y-11323865D02*
X14325539Y-11314341D01*
X14325539Y-11314341D02*
X14335062Y-11295293D01*
X14335062Y-11295293D02*
X14335062Y-11247674D01*
X14335062Y-11247674D02*
X14325539Y-11228627D01*
X14325539Y-11228627D02*
X14316015Y-11219103D01*
X14316015Y-11219103D02*
X14296967Y-11209579D01*
X14296967Y-11209579D02*
X14258872Y-11209579D01*
X14258872Y-11209579D02*
X14239824Y-11219103D01*
X14239824Y-11219103D02*
X14230301Y-11228627D01*
X14230301Y-11228627D02*
X14220777Y-11247674D01*
X14506491Y-11133389D02*
X14468396Y-11133389D01*
X14468396Y-11133389D02*
X14449348Y-11142913D01*
X14449348Y-11142913D02*
X14439824Y-11152436D01*
X14439824Y-11152436D02*
X14420777Y-11181008D01*
X14420777Y-11181008D02*
X14411253Y-11219103D01*
X14411253Y-11219103D02*
X14411253Y-11295293D01*
X14411253Y-11295293D02*
X14420777Y-11314341D01*
X14420777Y-11314341D02*
X14430301Y-11323865D01*
X14430301Y-11323865D02*
X14449348Y-11333389D01*
X14449348Y-11333389D02*
X14487443Y-11333389D01*
X14487443Y-11333389D02*
X14506491Y-11323865D01*
X14506491Y-11323865D02*
X14516015Y-11314341D01*
X14516015Y-11314341D02*
X14525539Y-11295293D01*
X14525539Y-11295293D02*
X14525539Y-11247674D01*
X14525539Y-11247674D02*
X14516015Y-11228627D01*
X14516015Y-11228627D02*
X14506491Y-11219103D01*
X14506491Y-11219103D02*
X14487443Y-11209579D01*
X14487443Y-11209579D02*
X14449348Y-11209579D01*
X14449348Y-11209579D02*
X14430301Y-11219103D01*
X14430301Y-11219103D02*
X14420777Y-11228627D01*
X14420777Y-11228627D02*
X14411253Y-11247674D01*
X14601729Y-11133389D02*
X14601729Y-11171484D01*
X14677920Y-11133389D02*
X14677920Y-11171484D01*
X14973158Y-11409579D02*
X14963634Y-11400055D01*
X14963634Y-11400055D02*
X14944586Y-11371484D01*
X14944586Y-11371484D02*
X14935063Y-11352436D01*
X14935063Y-11352436D02*
X14925539Y-11323865D01*
X14925539Y-11323865D02*
X14916015Y-11276246D01*
X14916015Y-11276246D02*
X14916015Y-11238151D01*
X14916015Y-11238151D02*
X14925539Y-11190532D01*
X14925539Y-11190532D02*
X14935063Y-11161960D01*
X14935063Y-11161960D02*
X14944586Y-11142913D01*
X14944586Y-11142913D02*
X14963634Y-11114341D01*
X14963634Y-11114341D02*
X14973158Y-11104817D01*
X15039824Y-11152436D02*
X15049348Y-11142913D01*
X15049348Y-11142913D02*
X15068396Y-11133389D01*
X15068396Y-11133389D02*
X15116015Y-11133389D01*
X15116015Y-11133389D02*
X15135063Y-11142913D01*
X15135063Y-11142913D02*
X15144586Y-11152436D01*
X15144586Y-11152436D02*
X15154110Y-11171484D01*
X15154110Y-11171484D02*
X15154110Y-11190532D01*
X15154110Y-11190532D02*
X15144586Y-11219103D01*
X15144586Y-11219103D02*
X15030301Y-11333389D01*
X15030301Y-11333389D02*
X15154110Y-11333389D01*
X15392205Y-11333389D02*
X15392205Y-11133389D01*
X15477920Y-11333389D02*
X15477920Y-11228627D01*
X15477920Y-11228627D02*
X15468396Y-11209579D01*
X15468396Y-11209579D02*
X15449348Y-11200055D01*
X15449348Y-11200055D02*
X15420777Y-11200055D01*
X15420777Y-11200055D02*
X15401729Y-11209579D01*
X15401729Y-11209579D02*
X15392205Y-11219103D01*
X15601729Y-11333389D02*
X15582682Y-11323865D01*
X15582682Y-11323865D02*
X15573158Y-11314341D01*
X15573158Y-11314341D02*
X15563634Y-11295293D01*
X15563634Y-11295293D02*
X15563634Y-11238151D01*
X15563634Y-11238151D02*
X15573158Y-11219103D01*
X15573158Y-11219103D02*
X15582682Y-11209579D01*
X15582682Y-11209579D02*
X15601729Y-11200055D01*
X15601729Y-11200055D02*
X15630301Y-11200055D01*
X15630301Y-11200055D02*
X15649348Y-11209579D01*
X15649348Y-11209579D02*
X15658872Y-11219103D01*
X15658872Y-11219103D02*
X15668396Y-11238151D01*
X15668396Y-11238151D02*
X15668396Y-11295293D01*
X15668396Y-11295293D02*
X15658872Y-11314341D01*
X15658872Y-11314341D02*
X15649348Y-11323865D01*
X15649348Y-11323865D02*
X15630301Y-11333389D01*
X15630301Y-11333389D02*
X15601729Y-11333389D01*
X15782682Y-11333389D02*
X15763634Y-11323865D01*
X15763634Y-11323865D02*
X15754110Y-11304817D01*
X15754110Y-11304817D02*
X15754110Y-11133389D01*
X15935063Y-11323865D02*
X15916015Y-11333389D01*
X15916015Y-11333389D02*
X15877920Y-11333389D01*
X15877920Y-11333389D02*
X15858872Y-11323865D01*
X15858872Y-11323865D02*
X15849348Y-11304817D01*
X15849348Y-11304817D02*
X15849348Y-11228627D01*
X15849348Y-11228627D02*
X15858872Y-11209579D01*
X15858872Y-11209579D02*
X15877920Y-11200055D01*
X15877920Y-11200055D02*
X15916015Y-11200055D01*
X15916015Y-11200055D02*
X15935063Y-11209579D01*
X15935063Y-11209579D02*
X15944586Y-11228627D01*
X15944586Y-11228627D02*
X15944586Y-11247674D01*
X15944586Y-11247674D02*
X15849348Y-11266722D01*
X16020777Y-11323865D02*
X16039825Y-11333389D01*
X16039825Y-11333389D02*
X16077920Y-11333389D01*
X16077920Y-11333389D02*
X16096967Y-11323865D01*
X16096967Y-11323865D02*
X16106491Y-11304817D01*
X16106491Y-11304817D02*
X16106491Y-11295293D01*
X16106491Y-11295293D02*
X16096967Y-11276246D01*
X16096967Y-11276246D02*
X16077920Y-11266722D01*
X16077920Y-11266722D02*
X16049348Y-11266722D01*
X16049348Y-11266722D02*
X16030301Y-11257198D01*
X16030301Y-11257198D02*
X16020777Y-11238151D01*
X16020777Y-11238151D02*
X16020777Y-11228627D01*
X16020777Y-11228627D02*
X16030301Y-11209579D01*
X16030301Y-11209579D02*
X16049348Y-11200055D01*
X16049348Y-11200055D02*
X16077920Y-11200055D01*
X16077920Y-11200055D02*
X16096967Y-11209579D01*
X16173158Y-11409579D02*
X16182682Y-11400055D01*
X16182682Y-11400055D02*
X16201729Y-11371484D01*
X16201729Y-11371484D02*
X16211253Y-11352436D01*
X16211253Y-11352436D02*
X16220777Y-11323865D01*
X16220777Y-11323865D02*
X16230301Y-11276246D01*
X16230301Y-11276246D02*
X16230301Y-11238151D01*
X16230301Y-11238151D02*
X16220777Y-11190532D01*
X16220777Y-11190532D02*
X16211253Y-11161960D01*
X16211253Y-11161960D02*
X16201729Y-11142913D01*
X16201729Y-11142913D02*
X16182682Y-11114341D01*
X16182682Y-11114341D02*
X16173158Y-11104817D01*
X16535063Y-11409579D02*
X16525539Y-11400055D01*
X16525539Y-11400055D02*
X16506491Y-11371484D01*
X16506491Y-11371484D02*
X16496967Y-11352436D01*
X16496967Y-11352436D02*
X16487444Y-11323865D01*
X16487444Y-11323865D02*
X16477920Y-11276246D01*
X16477920Y-11276246D02*
X16477920Y-11238151D01*
X16477920Y-11238151D02*
X16487444Y-11190532D01*
X16487444Y-11190532D02*
X16496967Y-11161960D01*
X16496967Y-11161960D02*
X16506491Y-11142913D01*
X16506491Y-11142913D02*
X16525539Y-11114341D01*
X16525539Y-11114341D02*
X16535063Y-11104817D01*
X16611253Y-11200055D02*
X16611253Y-11333389D01*
X16611253Y-11219103D02*
X16620777Y-11209579D01*
X16620777Y-11209579D02*
X16639825Y-11200055D01*
X16639825Y-11200055D02*
X16668396Y-11200055D01*
X16668396Y-11200055D02*
X16687444Y-11209579D01*
X16687444Y-11209579D02*
X16696967Y-11228627D01*
X16696967Y-11228627D02*
X16696967Y-11333389D01*
X16820777Y-11333389D02*
X16801729Y-11323865D01*
X16801729Y-11323865D02*
X16792206Y-11314341D01*
X16792206Y-11314341D02*
X16782682Y-11295293D01*
X16782682Y-11295293D02*
X16782682Y-11238151D01*
X16782682Y-11238151D02*
X16792206Y-11219103D01*
X16792206Y-11219103D02*
X16801729Y-11209579D01*
X16801729Y-11209579D02*
X16820777Y-11200055D01*
X16820777Y-11200055D02*
X16849349Y-11200055D01*
X16849349Y-11200055D02*
X16868396Y-11209579D01*
X16868396Y-11209579D02*
X16877920Y-11219103D01*
X16877920Y-11219103D02*
X16887444Y-11238151D01*
X16887444Y-11238151D02*
X16887444Y-11295293D01*
X16887444Y-11295293D02*
X16877920Y-11314341D01*
X16877920Y-11314341D02*
X16868396Y-11323865D01*
X16868396Y-11323865D02*
X16849349Y-11333389D01*
X16849349Y-11333389D02*
X16820777Y-11333389D01*
X16944587Y-11200055D02*
X17020777Y-11200055D01*
X16973158Y-11133389D02*
X16973158Y-11304817D01*
X16973158Y-11304817D02*
X16982682Y-11323865D01*
X16982682Y-11323865D02*
X17001729Y-11333389D01*
X17001729Y-11333389D02*
X17020777Y-11333389D01*
X17239825Y-11200055D02*
X17239825Y-11400055D01*
X17239825Y-11209579D02*
X17258872Y-11200055D01*
X17258872Y-11200055D02*
X17296968Y-11200055D01*
X17296968Y-11200055D02*
X17316015Y-11209579D01*
X17316015Y-11209579D02*
X17325539Y-11219103D01*
X17325539Y-11219103D02*
X17335063Y-11238151D01*
X17335063Y-11238151D02*
X17335063Y-11295293D01*
X17335063Y-11295293D02*
X17325539Y-11314341D01*
X17325539Y-11314341D02*
X17316015Y-11323865D01*
X17316015Y-11323865D02*
X17296968Y-11333389D01*
X17296968Y-11333389D02*
X17258872Y-11333389D01*
X17258872Y-11333389D02*
X17239825Y-11323865D01*
X17449349Y-11333389D02*
X17430301Y-11323865D01*
X17430301Y-11323865D02*
X17420777Y-11304817D01*
X17420777Y-11304817D02*
X17420777Y-11133389D01*
X17611253Y-11333389D02*
X17611253Y-11228627D01*
X17611253Y-11228627D02*
X17601730Y-11209579D01*
X17601730Y-11209579D02*
X17582682Y-11200055D01*
X17582682Y-11200055D02*
X17544587Y-11200055D01*
X17544587Y-11200055D02*
X17525539Y-11209579D01*
X17611253Y-11323865D02*
X17592206Y-11333389D01*
X17592206Y-11333389D02*
X17544587Y-11333389D01*
X17544587Y-11333389D02*
X17525539Y-11323865D01*
X17525539Y-11323865D02*
X17516015Y-11304817D01*
X17516015Y-11304817D02*
X17516015Y-11285770D01*
X17516015Y-11285770D02*
X17525539Y-11266722D01*
X17525539Y-11266722D02*
X17544587Y-11257198D01*
X17544587Y-11257198D02*
X17592206Y-11257198D01*
X17592206Y-11257198D02*
X17611253Y-11247674D01*
X17677920Y-11200055D02*
X17754110Y-11200055D01*
X17706491Y-11133389D02*
X17706491Y-11304817D01*
X17706491Y-11304817D02*
X17716015Y-11323865D01*
X17716015Y-11323865D02*
X17735063Y-11333389D01*
X17735063Y-11333389D02*
X17754110Y-11333389D01*
X17896968Y-11323865D02*
X17877920Y-11333389D01*
X17877920Y-11333389D02*
X17839825Y-11333389D01*
X17839825Y-11333389D02*
X17820777Y-11323865D01*
X17820777Y-11323865D02*
X17811253Y-11304817D01*
X17811253Y-11304817D02*
X17811253Y-11228627D01*
X17811253Y-11228627D02*
X17820777Y-11209579D01*
X17820777Y-11209579D02*
X17839825Y-11200055D01*
X17839825Y-11200055D02*
X17877920Y-11200055D01*
X17877920Y-11200055D02*
X17896968Y-11209579D01*
X17896968Y-11209579D02*
X17906491Y-11228627D01*
X17906491Y-11228627D02*
X17906491Y-11247674D01*
X17906491Y-11247674D02*
X17811253Y-11266722D01*
X18077920Y-11333389D02*
X18077920Y-11133389D01*
X18077920Y-11323865D02*
X18058872Y-11333389D01*
X18058872Y-11333389D02*
X18020777Y-11333389D01*
X18020777Y-11333389D02*
X18001730Y-11323865D01*
X18001730Y-11323865D02*
X17992206Y-11314341D01*
X17992206Y-11314341D02*
X17982682Y-11295293D01*
X17982682Y-11295293D02*
X17982682Y-11238151D01*
X17982682Y-11238151D02*
X17992206Y-11219103D01*
X17992206Y-11219103D02*
X18001730Y-11209579D01*
X18001730Y-11209579D02*
X18020777Y-11200055D01*
X18020777Y-11200055D02*
X18058872Y-11200055D01*
X18058872Y-11200055D02*
X18077920Y-11209579D01*
X18154111Y-11409579D02*
X18163634Y-11400055D01*
X18163634Y-11400055D02*
X18182682Y-11371484D01*
X18182682Y-11371484D02*
X18192206Y-11352436D01*
X18192206Y-11352436D02*
X18201730Y-11323865D01*
X18201730Y-11323865D02*
X18211253Y-11276246D01*
X18211253Y-11276246D02*
X18211253Y-11238151D01*
X18211253Y-11238151D02*
X18201730Y-11190532D01*
X18201730Y-11190532D02*
X18192206Y-11161960D01*
X18192206Y-11161960D02*
X18182682Y-11142913D01*
X18182682Y-11142913D02*
X18163634Y-11114341D01*
X18163634Y-11114341D02*
X18154111Y-11104817D01*
M02*
