M48
; DRILL file {KiCad 9.0.2} date 2025-07-08T19:24:18+0300
; FORMAT={-:-/ absolute / metric / decimal}
; #@! TF.CreationDate,2025-07-08T19:24:18+03:00
; #@! TF.GenerationSoftware,Kicad,Pcbnew,9.0.2
; #@! TF.FileFunction,Plated,1,4,PTH
FMAT,2
METRIC
; #@! TA.AperFunction,Plated,PTH,ViaDrill
T1C0.300
; #@! TA.AperFunction,Plated,PTH,ComponentDrill
T2C1.000
%
G90
G05
T1
X120.362Y-92.763
X121.4Y-85.6
X122.175Y-86.9
X124.2Y-55.9
X128.673Y-65.188
X129.2Y-63.3
X130.2Y-92.9
X131.35Y-92.85
X132.9Y-69.3
X133.25Y-83.05
X133.7Y-68.9
X133.827Y-82.5
X134.227Y-72.0
X134.227Y-81.3
X134.5Y-52.9
X134.5Y-65.8
X134.627Y-74.4
X134.627Y-75.231
X134.627Y-80.0
X135.373Y-77.55
X135.373Y-79.7
X135.575Y-61.825
X135.7Y-82.2
X135.701Y-76.473
X136.8Y-66.1
X139.5Y-73.7
X140.028Y-87.472
X140.555Y-67.65
X140.698Y-65.826
X140.716Y-65.099
X140.75Y-66.65
X149.35Y-65.099
X149.5Y-65.85
X149.9Y-66.6
X151.096Y-55.649
X151.141Y-56.409
X153.5Y-62.8
X153.5Y-76.0
X158.1Y-56.0
X158.6Y-57.5
T2
X116.76Y-52.77
X116.76Y-55.31
X116.76Y-57.85
X116.76Y-60.39
X116.76Y-62.93
X116.76Y-65.47
X116.76Y-68.01
X116.76Y-70.55
X116.76Y-73.09
X116.76Y-75.63
X116.76Y-78.17
X116.76Y-80.71
X116.76Y-83.25
X116.76Y-85.79
X116.76Y-88.33
X116.76Y-90.87
X116.968Y-102.258
X119.508Y-102.258
X123.8Y-95.5
X131.4Y-95.5
X137.7Y-54.6
X137.7Y-57.14
X137.7Y-59.68
X137.7Y-62.22
X137.7Y-64.76
X137.7Y-67.3
X137.7Y-69.84
X137.7Y-72.38
X137.7Y-74.92
X137.7Y-77.46
X137.7Y-80.0
X137.7Y-82.54
X137.7Y-85.08
X137.7Y-87.62
X137.7Y-90.16
X137.7Y-92.7
X137.7Y-95.24
X137.7Y-97.78
X137.7Y-100.32
X137.7Y-102.86
X155.48Y-54.6
X155.48Y-57.14
X155.48Y-59.68
X155.48Y-62.22
X155.48Y-64.76
X155.48Y-67.3
X155.48Y-69.84
X155.48Y-72.38
X155.48Y-74.92
X155.48Y-77.46
X155.48Y-80.0
X155.48Y-82.54
X155.48Y-85.08
X155.48Y-87.62
X155.48Y-90.16
X155.48Y-92.7
X155.48Y-95.24
X155.48Y-97.78
X155.48Y-100.32
X155.48Y-102.86
X161.2Y-54.735
X161.2Y-57.275
X161.2Y-61.28
X161.2Y-63.82
X161.2Y-66.36
X161.2Y-68.9
X161.2Y-71.44
X161.2Y-73.98
X161.2Y-76.52
M30
